<?xml version="1.0" encoding="iso-8859-1"?>
<!-- Generator: Adobe Illustrator 19.0.0, SVG Export Plug-In . SVG Version: 6.00 Build 0)  -->
<svg xmlns="http://www.w3.org/2000/svg" xmlns:xlink="http://www.w3.org/1999/xlink" version="1.1" id="Layer_1" x="0px" y="0px" viewBox="0 0 446.669 446.669" style="enable-background:new 0 0 446.669 446.669;" xml:space="preserve" width="512" height="512">
<g>
	<path style="fill:#D64394;" d="M304.978,352.338c2.9,47.06-34.49,86.83-81.65,86.83c-45.43,0-81.8-36.92-81.8-81.71   c0-1.69,0.05-3.4,0.16-5.12l7.9-128.01v-0.01l30.93-36.83l42.82,51l42.82-51l30.92,36.83L304.978,352.338z"/>
	<g>
		<path style="fill:#BC3987;" d="M184.528,357.458c0-1.689,0.05-3.399,0.16-5.12l7.9-128.01v-0.01l9.427-11.226l-21.497-25.604    l-30.93,36.83v0.01l-7.9,128.01c-0.11,1.721-0.16,3.431-0.16,5.12c0,44.79,36.37,81.71,81.8,81.71    c7.462,0,14.679-0.998,21.531-2.861C209.966,426.845,184.528,394.911,184.528,357.458z"/>
	</g>
	<path style="fill:#9AD14B;" d="M303.978,157.508l5,80.98l-11.9-14.17l-30.92-36.83l-42.82,51l-42.82-51l-30.93,36.83v0.01   l-11.89,14.16l4.99-80.98c1.74-28.21,17.92-52.37,41.06-65.43c8.47-4.78,14.06-13.4,15.28-23.04l5.99-47.51   c0.5-4.01,2.46-7.52,5.3-10.02c2.84-2.51,6.57-4.01,10.61-4.01c8.08,0,14.89,6.01,15.91,14.03l5.64,44.77   c1.3,10.31,7.67,19.28,16.96,23.95C284.418,102.778,302.158,127.908,303.978,157.508z"/>
	<g>
		<path style="fill:#90BC42;" d="M178.688,157.508c1.74-28.21,17.92-52.369,41.06-65.43c8.47-4.78,14.06-13.399,15.28-23.04    l3.899-30.926l-2.089-16.584c-1.02-8.021-7.83-14.03-15.91-14.03c-4.04,0-7.77,1.5-10.61,4.01c-2.84,2.5-4.8,6.011-5.3,10.021    l-5.99,47.51c-1.22,9.641-6.81,18.26-15.28,23.04c-23.14,13.061-39.32,37.22-41.06,65.43l-4.99,80.98l11.89-14.16v-0.01    l26.961-32.104L178.688,157.508z"/>
	</g>
	<path style="fill:#FFFFFF;" d="M270.192,400.394c-1.586,0-3.184-0.5-4.542-1.536c-3.294-2.512-3.928-7.218-1.416-10.512   c7.509-9.847,11.071-21.648,10.302-34.132l-6.328-102.541c-0.255-4.134,2.89-7.692,7.024-7.947c4.132-0.24,7.692,2.889,7.948,7.023   l6.328,102.542c0.994,16.131-3.621,31.397-13.346,44.15C274.685,399.377,272.451,400.394,270.192,400.394z"/>
	<path style="fill:#FFFFFF;" d="M281.714,177.756c-3.931,0-7.233-3.061-7.479-7.038l-0.7-11.336   c-1.093-17.783-11.742-33.83-27.791-41.88c-7.646-3.844-14.286-9.109-19.739-15.652c-2.652-3.182-2.223-7.911,0.959-10.563   c3.181-2.651,7.911-2.224,10.563,0.96c4.128,4.953,9.157,8.939,14.948,11.851c20.803,10.435,34.611,31.267,36.031,54.363   l0.7,11.334c0.255,4.134-2.89,7.692-7.024,7.947C282.026,177.751,281.869,177.756,281.714,177.756z"/>
	<circle style="fill:#FFFFFF;" cx="221.08" cy="76.433" r="7.5"/>
	<circle style="fill:#FFFFFF;" cx="273.905" cy="225.089" r="7.5"/>
	<path style="fill:#333333;" d="M311.758,245.453c3.006-1.201,4.903-4.195,4.704-7.427l-4.994-80.979   c-1.927-31.246-20.575-59.412-48.666-73.506c-7.08-3.552-11.896-10.35-12.885-18.184l-5.644-44.767   C242.794,8.853,232.756,0,220.924,0c-11.832,0-21.871,8.853-23.35,20.591l-5.989,47.508c-0.931,7.38-5.239,13.903-11.524,17.451   c-26.242,14.814-43.012,41.542-44.859,71.497l-4.994,80.979c-0.199,3.231,1.697,6.226,4.704,7.427   c1.938,0.775,4.051,0.68,5.869-0.142l-6.575,106.549c-0.116,1.817-0.175,3.701-0.175,5.599c0,49.19,40.06,89.21,89.3,89.21   c24.899,0,48.005-9.99,65.062-28.13c17.056-18.139,25.605-41.813,24.074-66.662l-6.575-106.556   c0.969,0.437,2.021,0.667,3.087,0.667C309.91,245.988,310.853,245.814,311.758,245.453z M150.174,157.971   c1.533-24.863,15.462-47.053,37.261-59.358c10.396-5.867,17.512-16.573,19.033-28.637l5.989-47.509   c0.537-4.257,4.177-7.467,8.468-7.467c4.291,0,7.931,3.21,8.468,7.468l5.644,44.767c1.615,12.807,9.48,23.915,21.04,29.714   c23.333,11.707,38.821,35.089,40.42,61.022l3.593,58.271l-28.19-33.574c-1.425-1.696-3.527-2.677-5.744-2.677   c-2.216,0-4.319,0.98-5.744,2.677l-37.077,44.157l-37.077-44.157c-1.425-1.696-3.528-2.677-5.744-2.677   c-2.216,0-4.319,0.98-5.744,2.677l-28.19,33.574L150.174,157.971z M277.464,408.264c-14.192,15.093-33.417,23.405-54.134,23.405   c-40.969,0-74.3-33.29-74.3-74.21c0-1.58,0.048-3.142,0.146-4.658l7.748-125.551l23.59-28.096l37.077,44.157   c1.425,1.696,3.528,2.677,5.744,2.677c2.216,0,4.319-0.98,5.744-2.677l37.077-44.157l23.591,28.097l7.747,125.549   C298.768,373.475,291.654,393.172,277.464,408.264z"/>
</g>















</svg>
