<?xml version="1.0" encoding="iso-8859-1"?>
<!-- Generator: Adobe Illustrator 19.0.0, SVG Export Plug-In . SVG Version: 6.00 Build 0)  -->
<svg xmlns="http://www.w3.org/2000/svg" xmlns:xlink="http://www.w3.org/1999/xlink" version="1.1" id="Layer_1" x="0px" y="0px" viewBox="0 0 412.48 412.48" style="enable-background:new 0 0 412.48 412.48;" xml:space="preserve" width="512" height="512">
<g>
	<path style="fill:#F95428;" d="M404.983,240.354v52.22c-66.25,0-66.25-16-132.5-16s-66.25,16-132.49,16   c-66.25,0-66.25-16-132.49-16v-52.22c66.24,0,66.24,16,132.49,16c66.24,0,66.24-16,132.49-16S338.733,240.354,404.983,240.354z"/>
	<path style="fill:#F7B239;" d="M404.983,188.124v52.23c-66.25,0-66.25-16-132.5-16s-66.25,16-132.49,16   c-66.25,0-66.25-16-132.49-16v-52.23c66.24,0,66.24,16,132.49,16c66.24,0,66.24-16,132.49-16S338.733,188.124,404.983,188.124z"/>
	<path style="fill:#F95428;" d="M404.983,135.904v52.22c-66.25,0-66.25-16-132.5-16s-66.25,16-132.49,16   c-66.25,0-66.25-16-132.49-16v-52.22c66.24,0,66.24,16,132.49,16c66.24,0,66.24-16,132.49-16S338.733,135.904,404.983,135.904z"/>
	<circle style="fill:#FFFFFF;" cx="381.983" cy="158.144" r="7.5"/>
	<path style="fill:#333333;" d="M404.98,128.403c-32.231,0-47.899-3.784-64.487-7.79c-16.712-4.036-33.992-8.21-68.009-8.21   s-51.297,4.174-68.008,8.21c-16.588,4.006-32.256,7.79-64.487,7.79c-32.229,0-47.897-3.784-64.484-7.79   c-16.711-4.036-33.99-8.21-68.005-8.21c-4.143,0-7.5,3.357-7.5,7.5v156.675c0,4.143,3.357,7.5,7.5,7.5   c32.229,0,47.896,3.784,64.483,7.79c16.711,4.036,33.99,8.21,68.006,8.21c34.017,0,51.298-4.174,68.009-8.21   c16.588-4.006,32.256-7.79,64.486-7.79c32.231,0,47.899,3.784,64.487,7.79c16.712,4.036,33.992,8.21,68.009,8.21   c4.143,0,7.5-3.357,7.5-7.5V135.903C412.48,131.76,409.123,128.403,404.98,128.403z M71.983,135.193   c16.711,4.036,33.99,8.21,68.006,8.21c34.017,0,51.298-4.174,68.009-8.21c16.588-4.006,32.256-7.79,64.486-7.79   c32.231,0,47.899,3.784,64.487,7.79c15.437,3.729,31.359,7.574,60.509,8.139v37.222c-27.263-0.541-41.742-4.033-56.987-7.715   c-16.712-4.036-33.992-8.21-68.009-8.21s-51.297,4.174-68.008,8.21c-16.588,4.006-32.256,7.79-64.487,7.79   c-32.229,0-47.897-3.784-64.484-7.79c-15.434-3.728-31.364-7.57-60.505-8.136v-37.228C42.27,128.016,56.736,131.51,71.983,135.193z    M397.48,195.554v37.224c-27.263-0.541-41.742-4.033-56.987-7.715c-16.712-4.036-33.992-8.21-68.009-8.21   s-51.297,4.174-68.008,8.21c-16.588,4.006-32.256,7.79-64.487,7.79c-32.229,0-47.897-3.784-64.484-7.79   c-15.434-3.728-31.364-7.57-60.505-8.136v-37.224c27.261,0.541,41.739,4.033,56.983,7.715c16.711,4.036,33.99,8.21,68.006,8.21   c34.017,0,51.298-4.174,68.009-8.21c16.588-4.006,32.256-7.79,64.486-7.79c32.231,0,47.899,3.784,64.487,7.79   C352.407,191.146,368.338,194.989,397.48,195.554z M340.493,277.288c-16.712-4.036-33.992-8.21-68.009-8.21   s-51.297,4.174-68.008,8.21c-16.588,4.006-32.256,7.79-64.487,7.79c-32.229,0-47.897-3.784-64.484-7.79   c-15.436-3.729-31.357-7.574-60.505-8.139v-37.221c27.261,0.541,41.739,4.033,56.983,7.715c16.711,4.036,33.99,8.21,68.006,8.21   c34.017,0,51.298-4.174,68.009-8.21c16.588-4.006,32.256-7.79,64.486-7.79c32.231,0,47.899,3.784,64.487,7.79   c15.435,3.728,31.366,7.57,60.509,8.136v37.227C370.21,284.464,355.741,280.97,340.493,277.288z"/>
	<path style="fill:#FFFFFF;" d="M381.983,276.247c-4.143,0-7.5-3.357-7.5-7.5v-86.604c0-4.143,3.357-7.5,7.5-7.5s7.5,3.357,7.5,7.5   v86.604C389.483,272.889,386.126,276.247,381.983,276.247z"/>
</g>















</svg>
