<?xml version="1.0" encoding="iso-8859-1"?>
<!-- Generator: Adobe Illustrator 19.0.0, SVG Export Plug-In . SVG Version: 6.00 Build 0)  -->
<svg xmlns="http://www.w3.org/2000/svg" xmlns:xlink="http://www.w3.org/1999/xlink" version="1.1" id="Layer_1" x="0px" y="0px" viewBox="0 0 433.116 433.116" style="enable-background:new 0 0 433.116 433.116;" xml:space="preserve" width="512" height="512">
<g>
	<path style="fill:#BDED69;" d="M389.111,229.932h-61.58c0-17,13.79-30.79,30.79-30.79S389.111,212.932,389.111,229.932z"/>
	<path style="fill:#BDED69;" d="M300.941,229.932h-61.58c0-17,13.79-30.79,30.79-30.79S300.941,212.932,300.941,229.932z"/>
	<path style="fill:#BDED69;" d="M212.761,229.932h-61.57c0-17,13.78-30.79,30.79-30.79   C198.981,199.142,212.761,212.932,212.761,229.932z"/>
	<path style="fill:#BDED69;" d="M124.591,229.932h-61.57c0-17,13.78-30.79,30.79-30.79   C110.811,199.142,124.591,212.932,124.591,229.932z"/>
	<path style="fill:#87AA3A;" d="M425.531,198.862c0.06,0.66,0.08,1.32,0.08,1.99c0,16.06-13.01,29.08-29.07,29.08h-7.43   c0-17-13.79-30.79-30.79-30.79s-30.79,13.79-30.79,30.79h-26.59c0-17-13.79-30.79-30.79-30.79s-30.79,13.79-30.79,30.79h-26.6   c0-17-13.78-30.79-30.78-30.79c-17.01,0-30.79,13.79-30.79,30.79h-26.6c0-17-13.78-30.79-30.78-30.79   c-17.01,0-30.79,13.79-30.79,30.79h-26.45c-8.03,0-15.29-3.25-20.55-8.52c-5.26-5.26-8.52-12.53-8.52-20.56   c0-0.67,0.02-1.33,0.08-1.99c1.01-15.13,13.61-27.08,28.99-27.08h359.97c8.03,0,15.3,3.25,20.56,8.51   C421.921,185.112,425.051,191.622,425.531,198.862z"/>
	<path style="fill:#9AD14B;" d="M396.541,229.932h29.07c-10.82,17.64-25.83,31.83-43.32,41.62c-17.48,9.79-37.43,15.16-58.12,15.16   h-215.22c-41.39,0-79.81-21.5-101.45-56.78h29.07h26.45h61.57h26.6h61.57h26.6h61.58h26.59h61.58H396.541z"/>
	<path style="fill:#90BC42;" d="M87.501,229.931h-24.48h-26.45H7.501c21.64,35.28,60.06,56.78,101.45,56.78h80   C147.561,286.712,109.141,265.212,87.501,229.931z"/>
	<path style="fill:#9AD14B;" d="M425.611,198.852l-0.08,0.01c-0.48-7.24-3.61-13.75-8.43-18.57c-5.26-5.26-12.53-8.51-20.56-8.51   H36.571c-15.38,0-27.98,11.95-28.99,27.08l-0.08-0.01c0-28.97,23.48-52.45,52.45-52.45h313.21   C402.131,146.402,425.611,169.882,425.611,198.852z"/>
	<path style="fill:#FFFFFF;" d="M324.171,271.212c-4.143,0-7.5-3.357-7.5-7.5s3.357-7.5,7.5-7.5   c15.106,0,30.051-3.897,43.217-11.271c3.617-2.024,8.185-0.732,10.209,2.879c2.023,3.614,0.734,8.185-2.879,10.209   C359.317,266.653,341.838,271.212,324.171,271.212z"/>
	<circle style="fill:#FFFFFF;" cx="100.561" cy="214.462" r="7.5"/>
	<circle style="fill:#FFFFFF;" cx="277.561" cy="214.462" r="7.5"/>
	<circle style="fill:#FFFFFF;" cx="187.561" cy="214.462" r="7.5"/>
	<circle style="fill:#FFFFFF;" cx="366.561" cy="214.462" r="7.5"/>
	<path style="fill:#333333;" d="M433.055,198.803c0.038,0.032,0.061,0.053,0.061,0.053c0-33.059-26.895-59.953-59.953-59.953H59.953   C26.895,138.902,0,165.797,0,198.855c0,0,0.023-0.019,0.061-0.05C0.023,199.484,0,200.167,0,200.854   c0,8.076,2.636,15.546,7.087,21.604c-2.553,0.142-4.873,1.563-6.131,3.81c-1.326,2.369-1.269,5.271,0.151,7.585   c11.288,18.401,27.212,33.7,46.05,44.244c18.837,10.544,40.205,16.117,61.793,16.117h215.217c21.588,0,42.955-5.573,61.793-16.117   s34.761-25.844,46.049-44.245c1.42-2.314,1.479-5.216,0.152-7.585c-1.258-2.247-3.579-3.667-6.131-3.809   c4.45-6.059,7.086-13.527,7.086-21.604C433.116,200.165,433.093,199.482,433.055,198.803z M36.576,179.278H396.54   c11.897,0,21.576,9.679,21.576,21.576c0,11.896-9.679,21.575-21.576,21.575h-0.675c-3.496-17.532-18.999-30.786-37.544-30.786   s-34.047,13.254-37.544,30.786h-13.083c-3.496-17.532-18.999-30.786-37.544-30.786s-34.047,13.254-37.544,30.786h-13.083   c-3.497-17.532-19-30.786-37.544-30.786c-18.545,0-34.048,13.254-37.544,30.786h-13.083c-3.497-17.532-19-30.786-37.544-30.786   c-18.544,0-34.047,13.254-37.544,30.786H36.576c-11.897,0-21.576-9.679-21.576-21.575C15,188.957,24.679,179.278,36.576,179.278z    M71.767,222.429c3.129-9.17,11.824-15.786,22.04-15.786c10.216,0,18.911,6.616,22.04,15.786H71.767z M159.938,222.429   c3.129-9.17,11.824-15.786,22.04-15.786c10.216,0,18.91,6.616,22.04,15.786H159.938z M248.11,222.429   c3.129-9.17,11.824-15.786,22.04-15.786s18.91,6.616,22.04,15.786H248.11z M336.281,222.429c3.129-9.17,11.824-15.786,22.04-15.786   s18.91,6.616,22.04,15.786H336.281z M373.163,153.902c11.163,0,21.386,4.094,29.255,10.854c-1.915-0.311-3.877-0.479-5.878-0.479   H36.576c-2.003,0-3.966,0.168-5.883,0.479c7.869-6.762,18.094-10.855,29.259-10.855H373.163z M378.633,265.008   c-16.604,9.294-35.438,14.206-54.467,14.206H108.95c-19.028,0-37.863-4.912-54.467-14.206   c-12.531-7.015-23.599-16.415-32.552-27.578l389.254,0.001C402.232,248.593,391.165,257.994,378.633,265.008z"/>
</g>















</svg>
