<?xml version="1.0" encoding="iso-8859-1"?>
<!-- Generator: Adobe Illustrator 19.0.0, SVG Export Plug-In . SVG Version: 6.00 Build 0)  -->
<svg xmlns="http://www.w3.org/2000/svg" xmlns:xlink="http://www.w3.org/1999/xlink" version="1.1" id="Layer_1" x="0px" y="0px" viewBox="0 0 429.905 429.905" style="enable-background:new 0 0 429.905 429.905;" xml:space="preserve" width="512" height="512">
<g>
	<path style="fill:#9AD14B;" d="M297.226,57.251v3.29c0,9.52-7.71,17.23-17.23,17.23c-4.76,0-9.07-1.92-12.19-5.05   c-3.13-3.11-5.05-7.42-5.05-12.18v-2.84c0-7.96-5.9-14.92-13.82-15.66c-9.08-0.85-16.74,6.3-16.74,15.21v73.77h-34.48v-72.83   c0-27.17,21.39-50.04,48.56-50.68C274.256,6.851,297.226,29.421,297.226,57.251z"/>
	<path style="fill:#F95428;" d="M86.166,194.531l70.27,187.32c5.7,15.2,15.84,26.12,27.93,32.78l-0.09,0.15   c-12.01,4.16-25.24,5.23-39,0.47c-52-18-59.47-220.72-59.47-220.72l0.32-0.12C86.136,194.451,86.156,194.491,86.166,194.531z"/>
	<path style="fill:#F95428;" d="M343.736,194.531c0.01-0.04,0.03-0.08,0.04-0.12l0.32,0.12c0,0-7.47,202.72-59.47,220.72   c-13.76,4.76-26.99,3.69-39-0.47l-0.08-0.15c12.09-6.66,22.23-17.58,27.93-32.78L343.736,194.531z"/>
	<path style="fill:#F95428;" d="M232.196,131.021h67.54c32.78,0,55.47,32.7,44.04,63.39c-0.01,0.04-0.03,0.08-0.04,0.12   l-70.26,187.32c-5.7,15.2-15.84,26.12-27.93,32.78c-18.82,10.36-42.36,10.36-61.18,0c-12.09-6.66-22.23-17.58-27.93-32.78   l-70.27-187.32c-0.01-0.04-0.03-0.08-0.04-0.12c-11.43-30.69,11.27-63.39,44.04-63.39h67.55H232.196z"/>
	<path style="fill:#E54728;" d="M212.773,415.251c-52-18-59.47-220.72-59.47-220.72l0.32-0.12c-11.43-30.69,11.27-63.39,44.04-63.39   h-67.497c-32.77,0-55.47,32.7-44.04,63.39l-0.32,0.12c0,0,7.47,202.72,59.47,220.72c13.76,4.76,26.99,3.69,39-0.47l0.09-0.15   c16.565,9.119,36.785,10.207,54.227,3.273C230.33,418.958,221.663,418.327,212.773,415.251z"/>
	<circle style="fill:#FFFFFF;" cx="299.736" cy="154.021" r="7.5"/>
	<g>
		<path style="fill:#333333;" d="M344.531,146.985c-10.179-14.689-26.925-23.459-44.796-23.459h-60.042V57.25    c0-2.209,0.905-4.25,2.548-5.747c1.64-1.494,3.766-2.205,5.998-1.994c3.935,0.369,7.017,3.967,7.017,8.192v2.838    c0,6.623,2.579,12.838,7.238,17.478c4.662,4.682,10.876,7.26,17.5,7.26c13.64,0,24.737-11.097,24.737-24.737V57.25    c0-15.526-6.134-30.067-17.271-40.944C276.325,5.433,261.645-0.341,246.098,0.016c-30.813,0.722-55.881,26.819-55.881,58.176    v65.334h-60.047c-17.871,0-34.617,8.77-44.796,23.459c-9.703,14.003-12.254,31.7-7.036,47.819c0,0,1.954,51.741,10.295,104.506    c11.734,74.224,29.459,114.466,54.191,123.027c6.843,2.367,13.835,3.55,20.935,3.55c6.565,0,13.222-1.015,19.931-3.039    c9.388,4.582,19.983,7.058,31.262,7.058c11.279,0,21.873-2.476,31.261-7.058c6.709,2.024,13.364,3.039,19.93,3.039    c7.099,0,14.095-1.183,20.937-3.55c24.73-8.561,42.456-48.803,54.19-123.026c8.341-52.765,10.295-104.506,10.295-104.506    C356.785,178.685,354.233,160.987,344.531,146.985z M205.218,58.191c0-23.277,18.497-42.647,41.234-43.18    c11.452-0.282,22.308,3.999,30.527,12.026c8.223,8.031,12.751,18.76,12.751,30.212v3.289c0,5.369-4.368,9.737-9.737,9.737    c-2.604,0-5.045-1.01-6.894-2.866c-1.834-1.827-2.844-4.267-2.844-6.871v-2.838c0-11.884-9.056-22.042-20.619-23.126    c-6.391-0.6-12.768,1.531-17.497,5.84c-4.733,4.311-7.447,10.448-7.447,16.836v66.276h-19.475V58.191z M147.73,408.161    c-10.542-3.649-30.311-22.932-44.261-111.071c-2.919-18.44-5.044-36.696-6.573-52.595l52.512,139.994    c3.873,10.324,9.734,19.201,17.084,26.302C160.087,411.141,153.814,410.266,147.73,408.161z M163.453,379.22L93.188,191.897    c-4.617-12.308-2.971-25.564,4.516-36.369c7.487-10.805,19.321-17.002,32.466-17.002h169.564c13.146,0,24.979,6.197,32.466,17.002    c7.487,10.805,9.133,24.061,4.517,36.369c0,0,0,0,0,0L266.451,379.22c-9.869,26.311-33.074,35.686-51.499,35.686    C196.528,414.905,173.323,405.531,163.453,379.22z M282.177,408.161c-6.085,2.105-12.358,2.98-18.764,2.63    c7.349-7.102,13.211-15.978,17.084-26.302l52.512-139.995c-1.529,15.899-3.654,34.156-6.573,52.596    C312.486,385.229,292.718,404.512,282.177,408.161z"/>
		<path style="fill:#333333;" d="M161.743,172.199c-0.74-4.076-4.648-6.777-8.72-6.039c-4.075,0.74-6.779,4.644-6.039,8.72    l33.057,182.019c0.658,3.623,3.815,6.161,7.371,6.161c0.445,0,0.896-0.04,1.349-0.122c4.075-0.74,6.779-4.644,6.039-8.72    L161.743,172.199z"/>
		<path style="fill:#333333;" d="M276.881,166.16c-4.082-0.739-7.98,1.963-8.72,6.039l-33.057,182.019    c-0.74,4.076,1.964,7.979,6.039,8.72c0.454,0.082,0.904,0.122,1.349,0.122c3.555,0,6.713-2.539,7.371-6.161l33.057-182.019    C283.66,170.804,280.956,166.9,276.881,166.16z"/>
	</g>
	<path style="fill:#FFFFFF;" d="M282.752,395.616c-1.573,0-3.159-0.493-4.511-1.513c-3.307-2.495-3.965-7.198-1.47-10.504   c2.384-3.16,6.133-9.357,10.451-20.933c6.376-17.092,11.913-40.281,16.456-68.922c0.716-4.515,1.461-9.137,2.217-13.823   c3.935-24.41,8.004-49.651,9.856-70.851c2.64-30.213-0.689-38.151-2.243-40.161c-2.533-3.277-1.93-7.987,1.348-10.521   c3.277-2.533,7.987-1.93,10.521,1.348c11.615,15.028,5.691,58.289-4.673,122.572c-0.753,4.673-1.497,9.283-2.211,13.786   c-4.7,29.625-10.492,53.787-17.217,71.813c-3.973,10.652-8.188,18.97-12.53,24.725   C287.271,394.587,285.025,395.616,282.752,395.616z"/>
</g>















</svg>
