<?xml version="1.0" encoding="iso-8859-1"?>
<!-- Generator: Adobe Illustrator 19.0.0, SVG Export Plug-In . SVG Version: 6.00 Build 0)  -->
<svg xmlns="http://www.w3.org/2000/svg" xmlns:xlink="http://www.w3.org/1999/xlink" version="1.1" id="Layer_1" x="0px" y="0px" viewBox="0 0 434.979 434.979" style="enable-background:new 0 0 434.979 434.979;" xml:space="preserve" width="512" height="512">
<g>
	<path style="fill:#E6E6E6;" d="M400.483,373.829l-8.74,20.89c-4.03,9.64-13.46,15.92-23.91,15.92H67.143   c-10.45,0-19.88-6.28-23.91-15.92l-8.73-20.89h22.49h320.99H400.483z"/>
	<path style="fill:#E54728;" d="M234.993,76.839c-2.14,2.14-4.57,3.81-7.17,5c-3.27,1.5-6.8,2.25-10.33,2.25   c-6.34,0-12.67-2.41-17.5-7.25c-9.67-9.66-9.67-25.33,0-35l17.5-17.5l17.5,17.5C244.653,51.509,244.653,67.179,234.993,76.839z"/>
	<path style="fill:#F95428;" d="M234.993,76.839c-2.14,2.14-4.57,3.81-7.17,5c-2.59-1.19-5.03-2.86-7.16-5   c-9.67-9.66-9.67-25.33,0-35l7.17-7.16l7.16,7.16C244.653,51.509,244.653,67.179,234.993,76.839z"/>
	<rect x="189.743" y="105.339" style="fill:#F7B239;" width="55.5" height="70.5"/>
	<rect x="189.743" y="105.339" style="fill:#E09B2D;" width="17.5" height="70.5"/>
	<path style="fill:#B27214;" d="M377.103,209.319l-15.18,14.19c-9.03,8.44-23.05,8.44-32.09,0l-0.01-0.02   c-9.03-8.44-23.06-8.44-32.09,0l-0.01,0.01c-9.03,8.44-23.06,8.44-32.09,0l-0.01-0.01c-9.03-8.44-23.06-8.44-32.09,0.01h-0.01   c-4.51,4.22-10.28,6.33-16.05,6.33c-5.76,0-11.52-2.11-16.04-6.33s-10.28-6.33-16.05-6.33s-11.53,2.11-16.05,6.33   c-4.52,4.22-10.28,6.33-16.04,6.33c-5.77,0-11.54-2.11-16.05-6.33c-4.52-4.22-10.29-6.33-16.06-6.33c-5.76,0-11.52,2.11-16.04,6.33   c-9.03,8.44-23.06,8.44-32.09,0l-15.18-14.17c3.97-19.12,20.91-33.49,41.21-33.49h90.66h55.5h90.65   C356.193,175.839,373.133,190.199,377.103,209.319z"/>
	<rect x="56.993" y="340.829" style="fill:#2BA5F7;" width="320.99" height="33"/>
	<rect x="56.993" y="264.329" style="fill:#2BA5F7;" width="320.99" height="30"/>
	<rect x="56.993" y="294.329" style="fill:#F7B239;" width="320.99" height="46.5"/>
	<path style="fill:#F7B239;" d="M377.983,217.929v46.4H56.993v-46.4c0-2.95,0.3-5.82,0.88-8.6l15.18,14.17   c9.03,8.44,23.06,8.44,32.09,0c4.52-4.22,10.28-6.33,16.04-6.33c5.77,0,11.54,2.11,16.06,6.33c4.51,4.22,10.28,6.33,16.05,6.33   c5.76,0,11.52-2.11,16.04-6.33c4.52-4.22,10.28-6.33,16.05-6.33s11.53,2.11,16.05,6.33s10.28,6.33,16.04,6.33   c5.77,0,11.54-2.11,16.05-6.33h0.01c9.03-8.45,23.06-8.45,32.09-0.01l0.01,0.01c9.03,8.44,23.06,8.44,32.09,0l0.01-0.01   c9.03-8.44,23.06-8.44,32.09,0l0.01,0.02c9.04,8.44,23.06,8.44,32.09,0l15.18-14.19   C377.683,212.099,377.983,214.979,377.983,217.929z"/>
	<g>
		<path style="fill:#CCCCCC;" d="M113.143,410.639h-46c-10.45,0-19.88-6.28-23.91-15.92l-8.73-20.89h46l8.73,20.89    C93.263,404.359,102.693,410.639,113.143,410.639z"/>
		<path style="fill:#995C0D;" d="M163.743,175.839c-20.3,0-37.24,14.37-41.21,33.49c-0.53,2.54-0.83,5.16-0.87,7.85    c-0.16-0.01-0.32-0.01-0.48-0.01c-5.76,0-11.52,2.11-16.04,6.33c-9.03,8.44-23.06,8.44-32.09,0l-15.18-14.17    c3.97-19.12,20.91-33.49,41.21-33.49H163.743z"/>
		<rect x="56.993" y="340.829" style="fill:#2197D8;" width="64.66" height="33"/>
		<rect x="56.993" y="264.329" style="fill:#2197D8;" width="64.66" height="30"/>
		<rect x="56.993" y="294.329" style="fill:#E09B2D;" width="64.66" height="46.5"/>
		<path style="fill:#E09B2D;" d="M121.183,217.169c0.16,0,0.32,0,0.48,0.01c-0.01,0.25-0.01,0.5-0.01,0.75v46.4h-64.66v-46.4    c0-2.95,0.3-5.82,0.88-8.6l15.18,14.17c9.03,8.44,23.06,8.44,32.09,0C109.663,219.279,115.423,217.169,121.183,217.169z"/>
		<path style="fill:#F7B239;" d="M121.663,217.179c0.7,0.01,1.4,0.05,2.1,0.14C123.063,217.239,122.363,217.199,121.663,217.179z"/>
	</g>
	<path style="fill:#FFFFFF;" d="M223.136,161.259c-4.142,0-7.5-3.358-7.5-7.5v-27.232c0-4.142,3.358-7.5,7.5-7.5s7.5,3.358,7.5,7.5   v27.232C230.636,157.901,227.278,161.259,223.136,161.259z"/>
	<g>
		<path style="fill:#333333;" d="M217.49,91.59c8.614,0,16.712-3.354,22.803-9.446c12.573-12.574,12.573-33.033,0-45.606l-17.5-17.5    c-2.928-2.929-7.677-2.929-10.606,0l-17.5,17.5c-12.573,12.574-12.573,33.033,0,45.606C200.777,88.235,208.875,91.59,217.49,91.59    z M205.292,47.144l12.197-12.197l12.197,12.197c6.725,6.725,6.725,17.668,0,24.394c-3.258,3.258-7.589,5.052-12.197,5.052    s-8.939-1.794-12.197-5.052h0C198.568,64.812,198.568,53.869,205.292,47.144z"/>
		<path style="fill:#333333;" d="M427.479,366.326h-41.998V217.925c0-27.343-22.246-49.589-49.589-49.589h-83.154v-62.997    c0-4.142-3.358-7.5-7.5-7.5h-55.498c-4.142,0-7.5,3.358-7.5,7.5v62.997H99.086c-27.343,0-49.589,22.246-49.589,49.589v148.401H7.5    c-4.142,0-7.5,3.358-7.5,7.5s3.358,7.5,7.5,7.5h22.005l13.466,32.206c1.167,2.791,3.895,4.607,6.919,4.607h335.198    c3.024,0,5.753-1.816,6.919-4.607l13.466-32.206h22.005c4.142,0,7.5-3.358,7.5-7.5S431.621,366.326,427.479,366.326z     M67.927,228.979c11.86,11.084,30.437,11.094,42.308,0.025c0.011-0.01,0.021-0.02,0.032-0.029c6.127-5.727,15.725-5.726,21.851,0    c11.87,11.097,30.468,11.096,42.339,0c6.115-5.716,15.69-5.726,21.819-0.031c0.012,0.012,0.025,0.023,0.037,0.035    c11.87,11.093,30.465,11.093,42.341-0.006c6.126-5.725,15.724-5.726,21.858,0.007c11.868,11.092,30.464,11.093,42.334,0    c0.015-0.014,0.031-0.029,0.047-0.044c6.127-5.689,15.697-5.678,21.824,0.047c5.935,5.546,13.549,8.319,21.166,8.318    c7.615,0,15.232-2.773,21.166-8.318l3.434-3.208v31.056H64.498v-31.057L67.927,228.979z M370.481,286.831H64.498v-15h305.984    V286.831z M64.498,301.831h305.984v31.497H64.498V301.831z M197.241,112.839h40.498v55.497h-40.498V112.839z M99.086,183.336    h90.654h55.498h90.654c15.229,0,28.181,9.897,32.787,23.594l-11.873,11.094c-6.126,5.725-15.723,5.725-21.861-0.012    c-11.87-11.091-30.464-11.091-42.333,0.001c-0.015,0.014-0.031,0.029-0.047,0.044c-6.128,5.689-15.698,5.676-21.819-0.044    c-11.87-11.093-30.465-11.092-42.341,0.007c-6.116,5.717-15.692,5.725-21.819,0.029c-0.012-0.011-0.024-0.022-0.036-0.034    c-11.87-11.094-30.467-11.093-42.337,0.002c-6.127,5.727-15.725,5.727-21.852,0c-11.86-11.086-30.436-11.097-42.307-0.029    c-0.012,0.011-0.023,0.021-0.034,0.032c-6.126,5.726-15.724,5.726-21.851,0L66.3,206.928    C70.907,193.232,83.858,183.336,99.086,183.336z M64.498,348.327h305.984v17.999H64.498V348.327z M380.095,403.138H54.884    l-9.12-21.813h11.234h320.984h11.234L380.095,403.138z"/>
	</g>
	<path style="fill:#FFFFFF;" d="M354.983,337.259c-4.142,0-7.5-3.358-7.5-7.5v-111.83c0-0.825-0.08-1.625-0.237-2.378   c-1.109-5.342-5.883-9.212-11.354-9.212c-4.142,0-7.5-3.358-7.5-7.5s3.358-7.5,7.5-7.5c12.543,0,23.494,8.896,26.038,21.154   c0.366,1.75,0.552,3.582,0.552,5.436v111.83C362.483,333.901,359.125,337.259,354.983,337.259z"/>
	<circle style="fill:#FFFFFF;" cx="355.084" cy="353.925" r="7.5"/>
	<circle style="fill:#FFFFFF;" cx="365.75" cy="392.152" r="7.5"/>
</g>















</svg>
