<?xml version="1.0" encoding="iso-8859-1"?>
<!-- Generator: Adobe Illustrator 19.0.0, SVG Export Plug-In . SVG Version: 6.00 Build 0)  -->
<svg xmlns="http://www.w3.org/2000/svg" xmlns:xlink="http://www.w3.org/1999/xlink" version="1.1" id="Layer_1" x="0px" y="0px" viewBox="0 0 421.479 421.479" style="enable-background:new 0 0 421.479 421.479;" xml:space="preserve" width="512" height="512">
<g>
	<path style="fill:#E6E6E6;" d="M332.833,169.694H88.643c0-72.84,54.66-162.19,122.1-162.19   C278.173,7.504,332.833,96.854,332.833,169.694z"/>
	<path style="fill:#CCCCCC;" d="M237.241,12.139c-8.532-2.995-17.398-4.635-26.498-4.635c-67.44,0-122.1,89.35-122.1,162.19h53   C141.643,106.685,182.547,31.334,237.241,12.139z"/>
	<path style="fill:#2BA5F7;" d="M241.273,380.964c18.23,0,33.01,14.78,33.01,33.02h-127.09c0-9.12,3.69-17.38,9.67-23.35   c5.97-5.97,14.22-9.67,23.34-9.67H241.273z"/>
	<path style="fill:#2197D8;" d="M213.203,380.963h-33c-9.12,0-17.37,3.7-23.34,9.67c-5.98,5.97-9.67,14.229-9.67,23.35h33   c0-9.12,3.69-17.38,9.67-23.35C195.833,384.664,204.083,380.963,213.203,380.963z"/>
	<path style="fill:#2BA5F7;" d="M241.273,314.664v66.3h-61.07v-66.3v-0.01c9.83,2.35,20.05,3.59,30.54,3.59   c10.48,0,20.7-1.24,30.53-3.59V314.664z"/>
	<path style="fill:#2197D8;" d="M207.273,314.664v66.3h-27.07v-66.3v-0.01c4.357,2.35,8.887,3.59,13.537,3.59   c4.645,0,9.176-1.24,13.533-3.59V314.664z"/>
	<path style="fill:#2BA5F7;" d="M332.833,169.694h17.38c0,70.74-46.67,130.1-108.94,144.96c-9.83,2.35-20.05,3.59-30.53,3.59   c-10.49,0-20.71-1.24-30.54-3.59c-62.27-14.87-108.94-74.22-108.94-144.96h17.38H332.833z"/>
	<path style="fill:#2197D8;" d="M146.263,169.693h-57.62h-17.38c0,70.74,46.67,130.09,108.94,144.96   c9.83,2.35,20.05,3.59,30.54,3.59c10.48,0,20.7-1.24,30.53-3.59c2.346-0.56,4.667-1.19,6.967-1.875   C189.487,295.29,146.263,237.77,146.263,169.693z"/>
	<path style="fill:#FFFFFF;" d="M279.661,278.295c-2.21,0-4.399-0.973-5.88-2.838c-2.575-3.245-2.031-7.963,1.213-10.537   c7.374-5.852,14.048-12.671,19.836-20.271c11.646-15.291,19.601-33.703,23.005-53.243c0.711-4.081,4.597-6.813,8.676-6.102   c4.081,0.711,6.813,4.596,6.102,8.676c-3.815,21.898-12.754,42.562-25.849,59.757c-6.544,8.592-14.096,16.308-22.445,22.933   C282.939,277.764,281.293,278.295,279.661,278.295z"/>
	<path style="fill:#FFFFFF;" d="M306.347,146.576c-3.45,0-6.556-2.396-7.321-5.904c-9.629-44.157-37.175-84.383-66.985-97.819   c-3.776-1.702-5.458-6.144-3.756-9.92c1.703-3.777,6.145-5.455,9.92-3.756c17.385,7.837,33.92,22.88,47.818,43.503   c12.897,19.14,22.721,42.151,27.659,64.797c0.882,4.047-1.684,8.043-5.73,8.926C307.414,146.52,306.876,146.576,306.347,146.576z"/>
	<circle style="fill:#FFFFFF;" cx="210.243" cy="29.644" r="7.5"/>
	<path style="fill:#333333;" d="M357.711,169.697c0-4.143-3.357-7.5-7.5-7.5h-10.059C336.581,86.929,280.208,0,210.745,0   C141.273,0,84.896,86.929,81.324,162.197H71.268c-4.143,0-7.5,3.357-7.5,7.5c0,72.085,46.276,132.901,108.939,150.742v53.724   c-18.769,3.527-33.014,20.039-33.014,39.816c0,4.143,3.357,7.5,7.5,7.5h127.091c4.143,0,7.5-3.357,7.5-7.5   c0-19.778-14.246-36.291-33.016-39.817V320.44C311.434,302.601,357.711,241.784,357.711,169.697z M130.54,65.594   C153.466,32.968,181.951,15,210.745,15c28.789,0,57.269,17.968,80.193,50.594c19.992,28.452,32.499,64.024,34.192,96.604H96.347   C98.04,129.617,110.547,94.045,130.54,65.594z M78.953,177.197h263.574c-3.66,74.303-61.372,133.551-131.787,133.551   S82.613,251.5,78.953,177.197z M265.66,406.479H155.819c3.209-10.412,12.917-18.001,24.365-18.013h61.088   C252.73,388.467,262.449,396.061,265.66,406.479z M233.769,373.467h-46.062v-49.64c7.506,1.26,15.198,1.921,23.032,1.921   c7.833,0,15.524-0.661,23.029-1.921V373.467z"/>
</g>















</svg>
