<?xml version="1.0" encoding="iso-8859-1"?>
<!-- Generator: Adobe Illustrator 19.0.0, SVG Export Plug-In . SVG Version: 6.00 Build 0)  -->
<svg xmlns="http://www.w3.org/2000/svg" xmlns:xlink="http://www.w3.org/1999/xlink" version="1.1" id="Layer_1" x="0px" y="0px" viewBox="0 0 448.47 448.47" style="enable-background:new 0 0 448.47 448.47;" xml:space="preserve" width="512" height="512">
<g>
	<polygon style="fill:#B27214;" points="410.188,224.228 410.188,281.978 372.688,281.978 372.688,224.228 372.688,166.488    410.188,166.488  "/>
	<polygon style="fill:#B27214;" points="286.838,224.228 286.838,281.978 249.338,281.978 249.338,224.228 249.338,166.488    286.838,166.488  "/>
	<polygon style="fill:#B27214;" points="163.488,224.228 163.488,281.978 125.988,281.978 125.988,224.228 125.988,166.488    163.488,166.488  "/>
	<path style="fill:#F95428;" d="M348.508,224.228v23.41c0,10.35-8.39,18.75-18.75,18.75c-10.35,0-18.74-8.4-18.74-18.75v-46.8   c0-10.36,8.39-18.75,18.74-18.75c5.18,0,9.87,2.1,13.26,5.49c3.39,3.39,5.49,8.08,5.49,13.26V224.228z"/>
	<path style="fill:#9AD14B;" d="M225.158,224.228v23.41c0,10.35-8.39,18.75-18.74,18.75c-10.36,0-18.75-8.4-18.75-18.75v-46.8   c0-10.36,8.39-18.75,18.75-18.75c5.18,0,9.86,2.1,13.25,5.49c3.39,3.39,5.49,8.08,5.49,13.26V224.228z"/>
	<path style="fill:#333333;" d="M440.97,216.731h-23.283v-50.243c0-4.143-3.357-7.5-7.5-7.5h-37.498c-4.143,0-7.5,3.357-7.5,7.5   v50.243h-9.176v-15.897c0-14.474-11.775-26.249-26.25-26.249c-14.474,0-26.249,11.775-26.249,26.249v15.897h-9.176v-50.243   c0-4.143-3.357-7.5-7.5-7.5H249.34c-4.143,0-7.5,3.357-7.5,7.5v50.243h-9.177v-15.897c0-14.474-11.775-26.249-26.249-26.249   s-26.249,11.775-26.249,26.249v15.897h-9.176v-50.243c0-4.143-3.358-7.5-7.5-7.5h-37.498c-4.142,0-7.5,3.357-7.5,7.5v50.243h-22.5   c-4.142,0-7.5,3.357-7.5,7.5c0,20.264-16.486,36.75-36.75,36.75c-20.259,0-36.74-16.486-36.74-36.75   c0-20.259,16.481-36.74,36.74-36.74c4.142,0,7.5-3.357,7.5-7.5s-3.358-7.5-7.5-7.5c-28.53,0-51.74,23.211-51.74,51.74   c0,28.535,23.21,51.75,51.74,51.75c25.989,0,47.564-19.256,51.208-44.25h15.542v50.251c0,4.143,3.358,7.5,7.5,7.5h37.498   c4.142,0,7.5-3.357,7.5-7.5v-50.251h9.176v15.905c0,14.474,11.775,26.249,26.249,26.249s26.249-11.775,26.249-26.249v-15.905h9.177   v50.251c0,4.143,3.357,7.5,7.5,7.5h37.498c4.143,0,7.5-3.357,7.5-7.5v-50.251h9.176v15.905c0,14.474,11.775,26.249,26.249,26.249   c14.475,0,26.25-11.775,26.25-26.249v-15.905h9.176v50.251c0,4.143,3.357,7.5,7.5,7.5h37.498c4.143,0,7.5-3.357,7.5-7.5v-50.251   h23.283c4.143,0,7.5-3.357,7.5-7.5S445.112,216.731,440.97,216.731z M155.989,274.482h-22.498V173.988h22.498V274.482z    M206.414,258.885c-6.203,0-11.249-5.046-11.249-11.249v-46.803c0-6.203,5.046-11.249,11.249-11.249s11.249,5.046,11.249,11.249   v46.803C217.663,253.839,212.617,258.885,206.414,258.885z M279.338,274.482H256.84V173.988h22.498V274.482z M329.763,258.885   c-6.203,0-11.249-5.046-11.249-11.249v-46.803c0-6.203,5.046-11.249,11.249-11.249s11.25,5.046,11.25,11.249v46.803   C341.013,253.839,335.966,258.885,329.763,258.885z M402.687,274.482h-22.498V173.988h22.498V274.482z"/>
	<circle style="fill:#FFFFFF;" cx="146.238" cy="183.638" r="7.5"/>
	<circle style="fill:#FFFFFF;" cx="207.738" cy="200.638" r="7.5"/>
	<circle style="fill:#FFFFFF;" cx="331.738" cy="200.638" r="7.5"/>
	<circle style="fill:#FFFFFF;" cx="269.738" cy="183.638" r="7.5"/>
	<circle style="fill:#FFFFFF;" cx="395.02" cy="183.638" r="7.5"/>
</g>















</svg>
