<?xml version="1.0" encoding="iso-8859-1"?>
<!-- Generator: Adobe Illustrator 19.0.0, SVG Export Plug-In . SVG Version: 6.00 Build 0)  -->
<svg xmlns="http://www.w3.org/2000/svg" xmlns:xlink="http://www.w3.org/1999/xlink" version="1.1" id="Layer_1" x="0px" y="0px" viewBox="0 0 385.481 385.481" style="enable-background:new 0 0 385.481 385.481;" xml:space="preserve" width="512" height="512">
<g>
	
		<line style="fill:none;stroke:#333333;stroke-width:15;stroke-linejoin:round;stroke-miterlimit:10;" x1="289.237" y1="153.847" x2="287.827" y2="153.847"/>
	<path style="fill:#B27214;" d="M377.984,67.325v26.52h-50.39v26.46v22.72c0,3.64-0.98,7.06-2.69,9.99   c-1.03,1.76-2.32,3.35-3.82,4.71c-3.53,3.21-8.23,5.18-13.37,5.18c-5.15,0-9.84-1.97-13.38-5.18c-3.99-3.63-6.5-8.87-6.5-14.7   l-0.01-26.93v56.38c0,10.98-8.9,19.88-19.88,19.88c-10.97,0-19.88-8.9-19.88-19.88v-18.63v-60h-87.64v60v10.47   c0,5.33-2.16,10.17-5.66,13.67s-8.33,5.66-13.67,5.66c-10.68,0-19.33-8.66-19.33-19.33v-10.47v-60h-33.27v-24.58v-1.94H377.984z"/>
	<path style="fill:#F7B239;" d="M88.494,215.335v63h289.49v60H7.504V69.265c0-12.22,9.9-22.12,22.11-22.12h36.77   c12.21,0,22.11,9.9,22.11,22.12v84.58h33.27v10.47c0,10.67,8.65,19.33,19.33,19.33c5.34,0,10.17-2.16,13.67-5.66   s5.66-8.34,5.66-13.67v-10.47h87.64v18.63c0,10.979,8.91,19.88,19.88,19.88c10.98,0,19.88-8.9,19.88-19.88v-56.38l0.01,26.93   c0,5.83,2.51,11.07,6.5,14.7c3.54,3.21,8.23,5.18,13.38,5.18c5.14,0,9.84-1.97,13.37-5.18c1.5-1.36,2.79-2.95,3.82-4.71l1.28,0.83   h51.8v61.49H88.494z"/>
	<polygon style="fill:#2BA5F7;" points="121.764,93.845 121.764,153.845 121.754,153.845 88.494,153.845 88.494,93.845  "/>
	<path style="fill:#2BA5F7;" d="M377.984,93.845v60h-0.01h-51.79l-1.28-0.83c1.71-2.93,2.69-6.35,2.69-9.99v-22.72v-26.46H377.984z"/>
	<rect x="160.424" y="93.845" style="fill:#2BA5F7;" width="87.64" height="60"/>
	<polygon style="fill:#9AD14B;" points="377.984,215.335 377.984,278.335 377.974,278.335 88.494,278.335 88.494,215.335    377.974,215.335  "/>
	<path style="fill:#E09B2D;" d="M37.814,47.145v291.19H7.504V69.265c0-12.22,9.9-22.12,22.11-22.12H37.814z"/>
	<path style="fill:#FFFFFF;" d="M355.8,137.512c-4.143,0-7.5-3.357-7.5-7.5v-17.999c0-4.143,3.357-7.5,7.5-7.5s7.5,3.357,7.5,7.5   v17.999C363.3,134.154,359.942,137.512,355.8,137.512z"/>
	<path style="fill:#FFFFFF;" d="M355.8,263.506c-4.143,0-7.5-3.357-7.5-7.5v-17.999c0-4.143,3.357-7.5,7.5-7.5s7.5,3.357,7.5,7.5   v17.999C363.3,260.148,359.942,263.506,355.8,263.506z"/>
	<path style="fill:#FFFFFF;" d="M355.8,326.503c-4.143,0-7.5-3.357-7.5-7.5v-17.999c0-4.143,3.357-7.5,7.5-7.5s7.5,3.357,7.5,7.5   v17.999C363.3,323.146,359.942,326.503,355.8,326.503z"/>
	<path style="fill:#FFFFFF;" d="M355.8,203.108c-4.143,0-7.5-3.357-7.5-7.5v-17.999c0-4.143,3.357-7.5,7.5-7.5s7.5,3.357,7.5,7.5   v17.999C363.3,199.751,359.942,203.108,355.8,203.108z"/>
	<path style="fill:#FFFFFF;" d="M310.802,149.512c-4.143,0-7.5-3.357-7.5-7.5v-41.998c0-4.143,3.357-7.5,7.5-7.5s7.5,3.357,7.5,7.5   v41.998C318.302,146.154,314.944,149.512,310.802,149.512z"/>
	<path style="fill:#FFFFFF;" d="M270.304,179.51c-4.143,0-7.5-3.357-7.5-7.5v-41.998c0-4.143,3.357-7.5,7.5-7.5s7.5,3.357,7.5,7.5   v41.998C277.804,176.152,274.446,179.51,270.304,179.51z"/>
	<path style="fill:#FFFFFF;" d="M144.311,166.011c-4.143,0-7.5-3.357-7.5-7.5v-19.499c0-4.143,3.357-7.5,7.5-7.5s7.5,3.357,7.5,7.5   v19.499C151.811,162.653,148.453,166.011,144.311,166.011z"/>
	<g>
		<path style="fill:#333333;" d="M377.981,59.827H94.448c-3.949-11.716-15.033-20.179-28.063-20.179H29.613    C13.284,39.648,0,52.933,0,69.262v269.071c0,4.143,3.357,7.5,7.5,7.5h370.481c4.143,0,7.5-3.357,7.5-7.5V67.327    C385.481,63.185,382.124,59.827,377.981,59.827z M327.592,86.346c-4.143,0-7.5,3.357-7.5,7.5v49.18    c0,3.527-1.438,6.776-4.051,9.15c-2.289,2.082-5.247,3.229-8.329,3.229c-3.081,0-6.039-1.146-8.33-3.23    c-2.611-2.373-4.05-5.622-4.05-9.149l-0.003-26.928c0-4.142-3.358-7.499-7.5-7.499c-4.143,0-7.5,3.358-7.5,7.5v56.379    c0,6.826-5.554,12.38-12.38,12.38s-12.38-5.554-12.38-12.38V93.846c0-4.143-3.357-7.5-7.5-7.5h-87.642c-4.143,0-7.5,3.357-7.5,7.5    v70.464c0,6.525-5.309,11.834-11.834,11.834c-6.524,0-11.833-5.309-11.833-11.834V93.846c0-4.143-3.357-7.5-7.5-7.5H95.998V74.827    h274.483v11.519H327.592z M335.092,101.346h35.39v45.001H334.88c0.135-1.097,0.212-2.205,0.212-3.321V101.346z M240.569,146.347    h-72.642v-45.001h72.642V146.347z M95.997,101.346h18.264v45.001H95.997V101.346z M15,330.833V69.262    c0-8.058,6.556-14.613,14.613-14.613h36.771c8.058,0,14.613,6.556,14.613,14.613v24.584v0.001h-0.001v60    c0,4.143,3.357,7.5,7.5,7.5h25.764v2.963c0,14.796,12.038,26.834,26.834,26.834s26.833-12.038,26.833-26.834v-2.963h72.642v11.13    c0,15.098,12.282,27.38,27.38,27.38s27.38-12.282,27.38-27.38v-5.034c3.807,1.935,8.038,2.962,12.383,2.962    c6.822,0,13.364-2.532,18.419-7.129c0.674-0.612,1.311-1.258,1.915-1.929h42.435v46.49H88.497c-4.143,0-7.5,3.357-7.5,7.5v63    c0,4.143,3.357,7.5,7.5,7.5h281.984v44.996H15z M370.481,222.837v48H95.997v-48H370.481z"/>
		<circle style="fill:#333333;" cx="337.942" cy="181.47" r="7.5"/>
		<circle style="fill:#333333;" cx="30.215" cy="92.246" r="7.5"/>
		<circle style="fill:#333333;" cx="55.773" cy="108.743" r="7.5"/>
		<circle style="fill:#333333;" cx="29.252" cy="179.616" r="7.5"/>
		<circle style="fill:#333333;" cx="52.958" cy="249.949" r="7.5"/>
		<circle style="fill:#333333;" cx="62.861" cy="304.921" r="7.5"/>
		<circle style="fill:#333333;" cx="175.817" cy="317.59" r="7.5"/>
		<circle style="fill:#333333;" cx="256.523" cy="299.934" r="7.5"/>
	</g>
</g>















</svg>
