<?xml version="1.0" encoding="iso-8859-1"?>
<!-- Generator: Adobe Illustrator 19.0.0, SVG Export Plug-In . SVG Version: 6.00 Build 0)  -->
<svg xmlns="http://www.w3.org/2000/svg" xmlns:xlink="http://www.w3.org/1999/xlink" version="1.1" id="Layer_1" x="0px" y="0px" viewBox="0 0 416.89 416.89" style="enable-background:new 0 0 416.89 416.89;" xml:space="preserve" width="512" height="512">
<g>
	<polygon style="fill:#B27214;" points="49.408,208.449 7.498,245.229 7.498,171.659  "/>
	<polygon style="fill:#B27214;" points="383.888,141.699 409.388,275.189 373.388,275.189 347.898,141.699  "/>
	<path style="fill:#F95428;" d="M347.898,141.699l25.49,133.49h-257.23c-18.43,0-35.12-7.47-47.2-19.55   c-12.08-12.07-19.55-28.76-19.55-47.19c0-36.87,29.88-66.75,66.75-66.75H347.898z"/>
	<path style="fill:#E54728;" d="M137.408,208.448c0-36.869,29.88-66.75,66.75-66.75h-88c-36.87,0-66.75,29.881-66.75,66.75   c0,18.431,7.47,35.12,19.55,47.19c12.08,12.08,28.77,19.55,47.2,19.55h88c-18.43,0-35.12-7.47-47.2-19.55   C144.878,243.569,137.408,226.879,137.408,208.448z"/>
	<path style="fill:#FFFFFF;" d="M342.28,261.212c-3.528,0-6.672-2.501-7.358-6.094l-11.431-59.86   c-0.777-4.069,1.891-7.997,5.96-8.774c4.073-0.78,7.997,1.893,8.773,5.96l11.431,59.86c0.777,4.069-1.891,7.997-5.96,8.774   C343.22,261.169,342.747,261.212,342.28,261.212z"/>
	<circle style="fill:#FFFFFF;" cx="325.001" cy="163.177" r="7.5"/>
	<path style="fill:#333333;" d="M416.757,273.784l-25.499-133.493c-0.675-3.535-3.767-6.093-7.367-6.093H116.155   c-35.735,0-65.65,25.379-72.679,59.06l-31.028-27.236c-2.212-1.941-5.357-2.411-8.042-1.195C1.724,166.041,0,168.713,0,171.658   v73.573c0,2.945,1.724,5.617,4.406,6.832c0.991,0.449,2.045,0.668,3.092,0.668c1.787,0,3.554-0.639,4.949-1.863l31.028-27.235   c7.029,33.68,36.944,59.059,72.679,59.059H409.39c2.235,0,4.354-0.997,5.779-2.72S417.176,275.981,416.757,273.784z M15,228.669   v-40.447l23.039,20.224L15,228.669z M56.908,208.446c0-32.669,26.578-59.247,59.247-59.247h225.536l22.633,118.493H116.155   C83.486,267.692,56.908,241.113,56.908,208.446z M379.595,267.692l-22.633-118.493h20.727l22.633,118.493H379.595z"/>
</g>















</svg>
