<?xml version="1.0" encoding="iso-8859-1"?>
<!-- Generator: Adobe Illustrator 19.0.0, SVG Export Plug-In . SVG Version: 6.00 Build 0)  -->
<svg xmlns="http://www.w3.org/2000/svg" xmlns:xlink="http://www.w3.org/1999/xlink" version="1.1" id="Layer_1" x="0px" y="0px" viewBox="0 0 422.089 422.089" style="enable-background:new 0 0 422.089 422.089;" xml:space="preserve" width="512" height="512">
<g>
	<ellipse style="fill:#2BA5F7;" cx="211.044" cy="155.042" rx="121.949" ry="147.542"/>
	<path style="fill:#2197D8;" d="M164.092,155.042c0-65.655,35.449-121.284,84.451-140.424C236.728,10.003,224.129,7.5,211.044,7.5   c-67.35,0-121.949,66.057-121.949,147.542c0,81.485,54.598,147.542,121.949,147.542c13.084,0,25.683-2.503,37.498-7.118   C199.541,276.326,164.092,220.697,164.092,155.042z"/>
	<path style="fill:#333333;" d="M340.493,155.042C340.493,69.552,282.423,0,211.045,0S81.595,69.552,81.595,155.042   c0,82.476,54.048,150.106,121.949,154.776v104.771c0,4.143,3.358,7.5,7.5,7.5s7.5-3.357,7.5-7.5V309.818   C286.446,305.148,340.493,237.518,340.493,155.042z M211.045,295.085c-43.741,0-81.824-30.187-101.081-74.424   c16.516,10.763,42.764,22.726,79.38,24.429c0.119,0.005,0.237,0.008,0.354,0.008c3.982,0,7.299-3.133,7.486-7.151   c0.193-4.138-3.005-7.648-7.143-7.841c-31.413-1.461-54.17-11.392-67.729-19.465c-11.519-6.858-18.539-13.566-21.104-16.223   c-2.997-12.497-4.612-25.708-4.612-39.375c0-30.008,7.756-57.839,20.94-80.657c10.501,10.116,33.462,26.259,77.07,32.64   c0.368,0.054,0.734,0.08,1.095,0.08c3.662,0,6.866-2.685,7.412-6.415c0.6-4.099-2.236-7.907-6.335-8.507   C153.135,85.797,132.963,69,125.934,61.521C146.901,32.981,177.287,15,211.045,15c22.523,0,43.544,8.006,61.27,21.809   c-18.554-0.979-32.619-4.431-32.803-4.477c-4.013-1.005-8.087,1.434-9.096,5.449c-1.008,4.018,1.431,8.092,5.448,9.101   c0.951,0.238,20.995,5.19,45.838,5.19c2.195,0,4.44-0.056,6.702-0.14c22.02,24.755,36.116,59.901,37.037,99.021   c-56.411,34.383-133.733,4.97-134.524,4.662c-3.858-1.508-8.204,0.4-9.71,4.257c-1.508,3.857,0.397,8.208,4.255,9.716   c0.896,0.351,22.287,8.617,51.548,11.854c7.57,0.838,14.967,1.254,22.168,1.254c24.598,0,46.886-4.86,65.796-14.351   C319.481,239.347,270.486,295.085,211.045,295.085z"/>
</g>















</svg>
