<?xml version="1.0" encoding="iso-8859-1"?>
<!-- Generator: Adobe Illustrator 19.0.0, SVG Export Plug-In . SVG Version: 6.00 Build 0)  -->
<svg xmlns="http://www.w3.org/2000/svg" xmlns:xlink="http://www.w3.org/1999/xlink" version="1.1" id="Layer_1" x="0px" y="0px" viewBox="0 0 459.011 459.011" style="enable-background:new 0 0 459.011 459.011;" xml:space="preserve" width="512" height="512">
<g>
	<path style="fill:#F7B239;" d="M104.048,304.911c-5.12,2.95-10.12,6.08-15,9.38c-7.66,5.16-15.01,10.74-22.04,16.69   c-15.58,13.22-39.08,10.66-51.7-5.42c-5.13-6.53-7.75-14.45-7.75-22.4c0-6.25,1.62-12.52,4.92-18.149   c10.05-17.131,22.06-32.96,35.74-47.19c4.24-4.41,8.64-8.67,13.19-12.76L104.048,304.911z"/>
	<path style="fill:#F7B239;" d="M188.059,274.831c-7.59,1.261-15.07,2.851-22.41,4.78c-6.58,1.72-13.05,3.7-19.41,5.93   c-14.74,5.17-28.85,11.69-42.19,19.37l-42.64-79.85l-7.58-14.2c21.92-21.42,47.74-38.86,76.3-51.16   c5.28-2.27,10.65-4.37,16.11-6.29c1.76-0.62,3.54-1.22,5.32-1.8L188.059,274.831z"/>
	<path style="fill:#E09B2D;" d="M104.048,304.911c-5.12,2.95-10.12,6.08-15,9.38l-39.64-74.229l-1.19-2.24   c4.24-4.41,8.64-8.67,13.19-12.76L104.048,304.911z"/>
	<path style="fill:#F7B239;" d="M446.538,285.011c7.5,12.79,6.32,28.89-2.83,40.55c-7.16,9.13-17.84,13.9-28.58,13.9   c-8.17,0-16.39-2.77-23.13-8.48c-11.5-9.75-23.9-18.48-37.04-26.07l42.65-79.85C416.828,242.351,433.378,262.571,446.538,285.011z"/>
	<path style="fill:#F7B239;" d="M405.188,210.861l-7.58,14.2l-42.65,79.85c-13.34-7.68-27.45-14.2-42.18-19.37   c-13.45-4.72-27.43-8.33-41.82-10.71l36.5-123.22c1.78,0.58,3.55,1.18,5.32,1.8C347.758,165.691,379.208,185.481,405.188,210.861z"/>
	<path style="fill:#F7B239;" d="M312.778,133.661l-5.32,17.95l-36.5,123.22c-13.48-2.25-27.33-3.41-41.45-3.41   s-27.97,1.16-41.45,3.41l-36.5-123.22l-5.32-17.95c26.05-9.14,54.08-14.12,83.27-14.12S286.718,124.521,312.778,133.661z"/>
	<path style="fill:#E09B2D;" d="M188.059,274.831c-7.59,1.261-15.07,2.851-22.41,4.78l-34.76-117.33l-0.76-2.58   c5.28-2.27,10.65-4.37,16.11-6.29c1.76-0.62,3.54-1.22,5.32-1.8L188.059,274.831z"/>
	<path style="fill:#FFFFFF;" d="M284.212,156.631c-0.593,0-1.194-0.071-1.796-0.219c-10.969-2.695-22.26-4.559-33.559-5.537   c-4.126-0.357-7.182-3.992-6.824-8.119c0.357-4.126,3.981-7.18,8.119-6.824c12.066,1.045,24.126,3.034,35.844,5.914   c4.022,0.988,6.481,5.051,5.493,9.073C290.648,154.34,287.584,156.631,284.212,156.631z"/>
	<path style="fill:#FFFFFF;" d="M376.451,223.348c-1.702,0-3.413-0.576-4.818-1.756c-10.003-8.397-20.831-15.97-32.185-22.506   c-3.59-2.067-4.824-6.652-2.758-10.242c2.067-3.589,6.655-4.822,10.242-2.758c12.114,6.975,23.669,15.056,34.345,24.018   c3.173,2.663,3.585,7.394,0.922,10.566C380.715,222.437,378.59,223.348,376.451,223.348z"/>
	<path style="fill:#FFFFFF;" d="M415.129,323.961c-4.143,0-7.5-3.357-7.5-7.5s3.357-7.5,7.5-7.5c1.83,0,3.457-0.789,4.58-2.221   c1.42-1.811,1.634-4.4,0.521-6.299c-2.725-4.645-5.646-9.233-8.683-13.64c-2.352-3.41-1.492-8.081,1.918-10.432   c3.413-2.353,8.081-1.491,10.432,1.918c3.244,4.706,6.363,9.606,9.271,14.564c4.223,7.198,3.557,16.5-1.657,23.146   C427.542,321.058,421.571,323.961,415.129,323.961z"/>
	<circle style="fill:#FFFFFF;" cx="228.599" cy="143.206" r="7.5"/>
	<path style="fill:#333333;" d="M453.007,281.222c-12.528-21.363-28.007-40.761-46.054-57.742l4.851-9.085   c1.57-2.941,1.011-6.567-1.375-8.897c-26.556-25.946-58.949-46.19-93.74-58.638l3.277-11.063c1.135-3.833-0.936-7.883-4.708-9.207   c-27.496-9.65-56.348-14.544-85.752-14.544s-58.256,4.894-85.752,14.544c-3.772,1.324-5.843,5.374-4.707,9.207l3.277,11.063   c-34.799,12.451-67.188,32.694-93.741,58.638c-2.385,2.33-2.945,5.956-1.375,8.897l4.851,9.085   c-18.047,16.981-33.527,36.379-46.055,57.742c-9.102,15.521-7.767,34.743,3.403,48.973c7.422,9.455,18.095,15.33,30.052,16.542   c1.508,0.153,3.008,0.229,4.5,0.229c10.235,0,20.007-3.565,27.903-10.26c11.176-9.474,23.266-17.984,35.931-25.292   c13.044-7.517,26.813-13.839,40.926-18.79c25.897-9.089,53.077-13.697,80.785-13.697s54.888,4.608,80.786,13.697   c14.111,4.95,27.88,11.272,40.922,18.788c12.669,7.31,24.76,15.82,35.935,25.294c9.047,7.67,20.545,11.235,32.402,10.031   c11.958-1.212,22.632-7.087,30.054-16.542C460.773,315.965,462.109,296.742,453.007,281.222z M62.163,325.264   c-5.91,5.01-13.436,7.332-21.19,6.55c-7.865-0.798-14.886-4.662-19.767-10.881c-7.225-9.203-8.134-22.112-2.263-32.123   c11.117-18.957,24.7-36.276,40.45-51.597l34.676,64.935C82.887,309.026,72.176,316.775,62.163,325.264z M143.754,278.469   c-12.565,4.408-24.865,9.852-36.676,16.195l-43.956-82.311c24.021-22.396,52.731-39.963,83.469-51.086l31.902,107.696   C166.721,271.317,155.12,274.481,143.754,278.469z M193.388,266.438L155.485,138.48c23.848-7.59,48.714-11.435,74.02-11.435   c25.305,0,50.172,3.845,74.021,11.435l-37.905,127.958c-11.907-1.662-23.963-2.512-36.116-2.512   C217.352,263.926,205.296,264.775,193.388,266.438z M280.517,268.964l31.902-107.695c30.73,11.117,59.445,28.686,83.469,51.085   l-43.956,82.311c-11.811-6.344-24.111-11.787-36.675-16.195C303.891,274.481,292.29,271.317,280.517,268.964z M437.804,320.933   c-4.882,6.219-11.902,10.083-19.768,10.881c-7.758,0.779-15.281-1.541-21.189-6.55c-10.012-8.487-20.722-16.235-31.906-23.116   l34.676-64.934c15.75,15.32,29.332,32.639,40.449,51.596C445.938,298.82,445.029,311.73,437.804,320.933z"/>
</g>















</svg>
