<?xml version="1.0" encoding="iso-8859-1"?>
<!-- Generator: Adobe Illustrator 19.0.0, SVG Export Plug-In . SVG Version: 6.00 Build 0)  -->
<svg xmlns="http://www.w3.org/2000/svg" xmlns:xlink="http://www.w3.org/1999/xlink" version="1.1" id="Layer_1" x="0px" y="0px" viewBox="0 0 465.84 465.84" style="enable-background:new 0 0 465.84 465.84;" xml:space="preserve" width="512" height="512">
<g>
	<ellipse style="fill:#B27214;" cx="232.92" cy="232.92" rx="153.742" ry="63.747"/>
	<path style="fill:#995C0D;" d="M154.174,232.92c0-29.843,49.461-54.893,116.244-61.833c-12.003-1.248-24.562-1.914-37.498-1.914   c-84.91,0-153.742,28.541-153.742,63.747s68.833,63.747,153.742,63.747c12.936,0,25.495-0.666,37.498-1.914   C203.635,287.813,154.174,262.763,154.174,232.92z"/>
	<circle style="fill:#FFFFFF;" cx="256.787" cy="193.005" r="7.5"/>
	<path style="fill:#333333;" d="M458.34,225.419h-64.998c-3.811-17.29-20.816-32.884-48.838-44.503   c-29.928-12.409-69.556-19.243-111.585-19.243s-81.657,6.834-111.585,19.243c-28.022,11.619-45.027,27.213-48.838,44.503H7.5   c-4.142,0-7.5,3.357-7.5,7.5s3.358,7.5,7.5,7.5h64.997c3.81,17.291,20.815,32.886,48.838,44.505   c29.928,12.409,69.556,19.243,111.585,19.243s81.657-6.834,111.585-19.243c28.023-11.619,45.028-27.214,48.838-44.505h64.997   c4.142,0,7.5-3.357,7.5-7.5S462.482,225.419,458.34,225.419z M338.759,271.068c-13.884,5.757-30.073,10.232-47.719,13.295v-31.193   c0-4.143-3.358-7.5-7.5-7.5s-7.5,3.357-7.5,7.5v33.414c-13.797,1.699-28.284,2.584-43.12,2.584c-14.836,0-29.323-0.885-43.12-2.584   v-33.414c0-4.143-3.358-7.5-7.5-7.5s-7.5,3.357-7.5,7.5v31.194c-17.647-3.063-33.835-7.538-47.72-13.296   c-25.677-10.646-40.403-24.551-40.403-38.147c0-13.073,13.62-26.43,37.493-36.902v16.651c0,4.143,3.358,7.5,7.5,7.5   s7.5-3.357,7.5-7.5v-22.383c24.498-8.176,54.422-12.897,86.25-13.538v35.921c0,4.143,3.358,7.5,7.5,7.5s7.5-3.357,7.5-7.5v-35.921   c31.824,0.641,61.744,5.361,86.24,13.535v22.386c0,4.143,3.358,7.5,7.5,7.5s7.5-3.357,7.5-7.5v-16.655   c23.878,10.474,37.502,23.831,37.502,36.906C379.162,246.517,364.436,260.421,338.759,271.068z"/>
	<path style="fill:#FFFFFF;" d="M356.671,250.443c-2.097,0-4.181-0.874-5.664-2.58c-2.717-3.127-2.386-7.863,0.741-10.581   c2.221-1.93,3.456-3.453,4.06-4.371c-1.785-2.723-8.634-9.75-25.858-16.893c-13.051-5.411-29.406-9.757-47.296-12.566   c-4.092-0.643-6.888-4.481-6.246-8.573c0.643-4.092,4.488-6.878,8.573-6.245c19.046,2.991,36.583,7.67,50.714,13.529   c21.877,9.071,35.467,20.857,35.467,30.758c0,6.085-5.207,11.887-9.575,15.684C360.167,249.837,358.415,250.443,356.671,250.443z    M356.266,233.765L356.266,233.765L356.266,233.765z M356.266,232.074L356.266,232.074   C356.266,232.075,356.266,232.075,356.266,232.074z"/>
</g>















</svg>
