<?xml version="1.0" encoding="iso-8859-1"?>
<!-- Generator: Adobe Illustrator 19.0.0, SVG Export Plug-In . SVG Version: 6.00 Build 0)  -->
<svg xmlns="http://www.w3.org/2000/svg" xmlns:xlink="http://www.w3.org/1999/xlink" version="1.1" id="Layer_1" x="0px" y="0px" viewBox="0 0 404.98 404.98" style="enable-background:new 0 0 404.98 404.98;" xml:space="preserve" width="512" height="512">
<g>
	<polygon style="fill:#A3E3E5;" points="295.424,367.485 287.104,397.485 117.874,397.485 109.554,367.485 129.214,367.485    177.694,367.485 227.284,367.485 275.774,367.485  "/>
	<polygon style="fill:#8DCCCC;" points="129.214,367.484 109.554,367.484 117.874,397.484 165.871,397.484 157.551,367.484  "/>
	<polygon style="fill:#8DCCCC;" points="116.334,54.755 119.854,140.255 83.954,140.255 83.614,140.275 78.544,54.785    78.994,54.755  "/>
	<polygon style="fill:#8DCCCC;" points="173.344,54.755 174.534,140.255 119.854,140.255 116.334,54.755  "/>
	<polygon style="fill:#A3E3E5;" points="231.634,54.755 230.444,140.255 174.534,140.255 173.344,54.755  "/>
	<polygon style="fill:#A3E3E5;" points="288.644,54.755 285.124,140.255 230.444,140.255 231.634,54.755  "/>
	<polygon style="fill:#A3E3E5;" points="326.434,54.785 321.364,140.275 321.024,140.255 285.124,140.255 288.644,54.755    325.994,54.755  "/>
	<polygon style="fill:#A3E3E5;" points="329.234,7.505 326.434,54.785 325.994,54.755 288.644,54.755 231.634,54.755    173.344,54.755 116.334,54.755 78.994,54.755 78.544,54.785 75.744,7.505  "/>
	<g>
		<polygon style="fill:#8DCCCC;" points="163.241,7.505 75.744,7.505 79.542,54.784 80.153,54.755 130.809,54.755 167.038,54.755       "/>
	</g>
	<polygon style="fill:#F95428;" points="321.364,140.275 307.904,367.485 295.424,367.485 275.774,367.485 285.124,140.255    321.024,140.255  "/>
	<polygon style="fill:#F95428;" points="285.124,140.255 275.774,367.485 227.284,367.485 230.444,140.255  "/>
	<polygon style="fill:#F95428;" points="230.444,140.255 227.284,367.485 177.694,367.485 174.534,140.255  "/>
	<polygon style="fill:#E54728;" points="174.534,140.255 177.694,367.485 129.214,367.485 119.854,140.255  "/>
	<polygon style="fill:#D13420;" points="119.854,140.255 129.214,367.485 109.554,367.485 97.074,367.485 83.614,140.275    83.954,140.255  "/>
	<path style="fill:#333333;" d="M334.692,2.355C333.275,0.853,331.3,0,329.234,0H75.747c-2.066,0-4.041,0.853-5.458,2.355   c-1.417,1.504-2.151,3.525-2.029,5.588l21.329,359.981c0.235,3.963,3.518,7.057,7.487,7.057h6.775l6.797,24.504   c0.901,3.247,3.857,5.495,7.228,5.495h169.229c3.37,0,6.326-2.248,7.227-5.495l6.799-24.504h6.775c3.97,0,7.252-3.094,7.487-7.057   L336.721,7.943C336.843,5.881,336.109,3.859,334.692,2.355z M321.276,15l-1.911,32.257H85.615L83.704,15H321.276z M185.09,359.981   l-4.142-297.725h43.08l-4.141,297.725H185.09z M165.947,62.257l4.142,297.725h-33.678L124.148,62.257H165.947z M234.889,359.981   l4.141-297.725h41.799l-12.252,297.725H234.889z M86.504,62.257h22.632l12.262,297.725h-17.253L86.504,62.257z M281.403,389.98   H123.578l-4.16-14.999h166.146L281.403,389.98z M300.836,359.981H283.59l12.253-297.725h22.634L300.836,359.981z"/>
	<path style="fill:#FFFFFF;" d="M286.78,342.745c-0.149,0-0.299-0.004-0.45-0.013c-4.135-0.245-7.288-3.796-7.044-7.931   l11.631-196.331l1.618-33.101c0.202-4.137,3.707-7.316,7.857-7.125c4.138,0.202,7.327,3.721,7.125,7.857l-1.622,33.178   L294.26,335.688C294.024,339.672,290.719,342.745,286.78,342.745z"/>
	<circle style="fill:#FFFFFF;" cx="300.026" cy="80.238" r="7.5"/>
</g>















</svg>
