<?xml version="1.0" encoding="iso-8859-1"?>
<!-- Generator: Adobe Illustrator 19.0.0, SVG Export Plug-In . SVG Version: 6.00 Build 0)  -->
<svg xmlns="http://www.w3.org/2000/svg" xmlns:xlink="http://www.w3.org/1999/xlink" version="1.1" id="Layer_1" x="0px" y="0px" viewBox="0 0 419.34 419.34" style="enable-background:new 0 0 419.34 419.34;" xml:space="preserve" width="512" height="512">
<g>
	<path style="fill:#F2F2F2;" d="M323.763,191.008c16.8,0,30.41,13.62,30.41,30.41s-13.61,30.41-30.41,30.41   c-16.79,0-30.4-13.62-30.4-30.41S306.973,191.008,323.763,191.008z"/>
	<path style="fill:#F7B239;" d="M271.533,114.908c8.02,8.03,14.2,17.47,18.32,27.71c-0.93-0.19-1.86-0.37-2.79-0.55   c-12.01-2.26-24.32-3.42-36.76-3.42c-14.52,0-28.83,1.59-42.72,4.65c-6.11-11.77-9.34-24.89-9.34-38.26c0-4.45,0.36-8.94,1.09-13.4   C225.743,87.328,252.613,95.988,271.533,114.908z"/>
	<path style="fill:#F7B239;" d="M411.843,221.418c-30.13,41.86-75,69.99-124.78,79.34c-14.61-22.92-23.07-50.14-23.07-79.34   s8.46-56.41,23.07-79.34v-0.01c0.93,0.18,1.86,0.36,2.79,0.55c17.89,3.62,35.11,9.68,51.21,17.92   C368.763,174.748,393.143,195.428,411.843,221.418z M354.173,221.418c0-16.79-13.61-30.41-30.41-30.41   c-16.79,0-30.4,13.62-30.4,30.41s13.61,30.41,30.4,30.41C340.563,251.828,354.173,238.208,354.173,221.418z"/>
	<path style="fill:#F95428;" d="M287.063,142.068v0.01c-14.61,22.93-23.07,50.14-23.07,79.34s8.46,56.42,23.07,79.34   c-12.01,2.27-24.31,3.43-36.76,3.43c-6.02,0-12.02-0.27-17.96-0.81c7.74-11.73,10.91-26.08,8.6-40.23   c-3.04-0.5-6.08-0.74-9.11-0.74c-14.86,0-29.28,5.87-39.97,16.56c-3.93,3.93-7.22,8.37-9.79,13.16   c-7.71-2.82-15.22-6.11-22.51-9.84c-20.29-10.4-38.79-24.27-54.58-41.16c-5.77-6.17-11.18-12.74-16.19-19.69   c0.63-0.01,1.25-0.02,1.88-0.02c-0.63,0-1.25-0.01-1.88-0.02c5.01-6.95,10.42-13.53,16.2-19.7c27.57-29.49,63.41-49.8,102.59-58.4   c13.89-3.06,28.2-4.65,42.72-4.65C262.743,138.648,275.053,139.808,287.063,142.068z"/>
	<g>
		<path style="fill:#E54728;" d="M176.983,241.128c-5.77-6.17-11.18-12.74-16.19-19.69c0.63-0.01,1.25-0.02,1.88-0.02    c-0.63,0-1.25-0.01-1.88-0.02c5.01-6.95,10.42-13.53,16.2-19.7c27.57-29.49,63.41-49.8,102.59-58.4    c2.246-0.495,4.507-0.937,6.775-1.354c-11.787-2.174-23.857-3.296-36.055-3.296c-14.52,0-28.83,1.59-42.72,4.65    c-39.18,8.6-75.02,28.91-102.59,58.4c-5.78,6.17-11.19,12.75-16.2,19.7c0.63,0.01,1.25,0.02,1.88,0.02    c-0.63,0-1.25,0.01-1.88,0.02c5.01,6.95,10.42,13.52,16.19,19.69c15.79,16.89,34.29,30.76,54.58,41.16    c7.29,3.73,14.8,7.02,22.51,9.84c2.57-4.79,5.86-9.23,9.79-13.16c4.654-4.654,10.016-8.392,15.812-11.133    C196.625,260.049,186.326,251.122,176.983,241.128z"/>
	</g>
	<path style="fill:#F7B239;" d="M240.943,263.148c2.31,14.15-0.86,28.5-8.6,40.23h-0.01c-2.07,3.16-4.49,6.13-7.21,8.85   c-10.69,10.69-25.11,16.56-39.97,16.56c-3.03,0-6.07-0.24-9.11-0.74c-2.03-12.46,0.18-25.07,6.03-35.92   c2.57-4.79,5.86-9.23,9.79-13.16c10.69-10.69,25.11-16.56,39.97-16.56C234.863,262.408,237.903,262.648,240.943,263.148z"/>
	<path style="fill:#F7B239;" d="M104.983,201.688l0.01,0.01c-5.78,6.17-11.19,12.75-16.2,19.7c-21.21-0.48-41.66-9.07-56.92-24.35   c-15.73-15.71-24.37-36.92-24.37-58.79c0-4.45,0.36-8.94,1.08-13.4c26.41-4.31,53.29,4.35,72.21,23.27   C95.243,162.598,103.723,181.698,104.983,201.688z"/>
	<path style="fill:#F7B239;" d="M104.983,241.128c-1.26,19.99-9.73,39.11-24.19,53.58c-15.72,15.71-36.94,24.36-58.81,24.36   c-4.45,0-8.93-0.36-13.4-1.09c-4.31-26.41,4.36-53.27,23.29-72.19c15.26-15.28,35.71-23.87,56.92-24.35   C93.803,228.388,99.213,234.958,104.983,241.128z"/>
	<path style="fill:#FFFFFF;" d="M174.192,186.426c-2.797,0-5.481-1.572-6.77-4.264c-1.789-3.736-0.209-8.215,3.526-10.003   c12.681-6.069,26.13-10.687,39.975-13.725c12.906-2.844,26.157-4.286,39.379-4.286c4.143,0,7.5,3.358,7.5,7.5s-3.357,7.5-7.5,7.5   c-12.138,0-24.304,1.324-36.158,3.936c-12.726,2.793-25.077,7.034-36.719,12.605C176.381,186.189,175.278,186.426,174.192,186.426z   "/>
	<path style="fill:#FFFFFF;" d="M79.03,195.32c-3.136,0-6.059-1.981-7.11-5.118c-2.573-7.678-6.968-14.774-12.708-20.522   c-7.808-7.807-18.158-13.054-29.14-14.771c-4.093-0.639-6.892-4.476-6.252-8.568c0.64-4.092,4.469-6.893,8.568-6.252   c14.098,2.204,27.392,8.947,37.433,18.988c7.372,7.382,13.015,16.495,16.321,26.357c1.316,3.927-0.8,8.178-4.728,9.495   C80.625,195.194,79.82,195.32,79.03,195.32z"/>
	<path style="fill:#FFFFFF;" d="M239.274,127.242c-1.109,0-2.235-0.247-3.299-0.769c-4.792-2.352-9.896-3.962-15.169-4.786   c-4.093-0.639-6.893-4.475-6.253-8.567c0.639-4.093,4.479-6.894,8.567-6.253c6.767,1.057,13.315,3.123,19.464,6.141   c3.719,1.825,5.253,6.319,3.428,10.037C244.71,125.7,242.045,127.242,239.274,127.242z"/>
	<path style="fill:#FFFFFF;" d="M314.361,181.216c-0.907,0-1.83-0.166-2.727-0.516c-5.362-2.094-10.889-3.932-16.426-5.462   c-3.993-1.103-6.335-5.234-5.232-9.226c1.104-3.992,5.236-6.335,9.227-5.232c6.031,1.667,12.05,3.668,17.889,5.948   c3.858,1.507,5.765,5.856,4.258,9.715C320.192,179.404,317.36,181.216,314.361,181.216z"/>
	<circle style="fill:#FFFFFF;" cx="154.636" cy="189.879" r="7.5"/>
	<g>
		<path style="fill:#333333;" d="M417.928,217.037c-19.031-26.448-44.429-48.292-73.45-63.173    c-15.635-8.007-32.197-13.976-49.275-17.772c-4.491-9.865-10.649-18.763-18.364-26.489    c-20.583-20.571-50.011-30.055-78.714-25.369c-3.182,0.52-5.676,3.014-6.194,6.196c-0.785,4.818-1.184,9.733-1.184,14.607    c0,11.309,2.163,22.591,6.287,33.108c-32.604,8.69-62.345,25.152-86.855,47.816c-3.857-16.224-12.132-31.176-24.084-43.137    c-20.574-20.574-50.003-30.058-78.716-25.371c-3.182,0.519-5.676,3.014-6.194,6.196C0.398,128.468,0,133.382,0,138.257    c0,23.863,9.684,47.226,26.563,64.094c8.155,8.161,17.638,14.578,27.959,19.066c-10.318,4.487-19.801,10.904-27.955,19.065    C5.986,261.05-3.503,290.473,1.184,319.188c0.52,3.182,3.014,5.676,6.195,6.194c4.817,0.785,9.732,1.184,14.607,1.184    c23.866,0,47.232-9.679,64.109-26.556c11.962-11.971,20.24-26.946,24.093-43.198c13.781,12.728,29.267,23.602,45.954,32.148    c5.172,2.651,10.482,5.075,15.85,7.278c-3.941,10.395-5.185,21.783-3.353,33.019c0.52,3.182,3.014,5.676,6.195,6.195    c3.414,0.557,6.841,0.83,10.251,0.83c16.847,0,33.256-6.668,45.34-18.752c2-2,3.846-4.123,5.544-6.342    c4.748,0.331,9.553,0.501,14.337,0.501c66.25,0,128.912-32.108,167.62-85.889C419.811,223.182,419.811,219.655,417.928,217.037z     M206.043,98.348c22.157-1.953,44.324,6.008,60.187,21.86c3.855,3.86,7.232,8.08,10.138,12.604    c-21.368-2.705-43.313-2.056-64.511,1.96c-4.005-9.367-6.111-19.538-6.111-29.735C205.746,102.812,205.846,100.576,206.043,98.348    z M15,138.257c0-2.226,0.1-4.462,0.297-6.69c22.175-1.956,44.333,6.007,60.188,21.862c12.3,12.309,19.949,28.408,21.748,45.617    c-4.236,4.683-8.27,9.576-12.088,14.668c-18.129-1.313-35.042-9.027-47.974-21.969C23.081,177.665,15,158.169,15,138.257z     M75.486,289.405c-14.083,14.083-33.583,22.161-53.5,22.161c-2.226,0-4.462-0.1-6.689-0.297    c-1.954-22.17,6.013-44.326,21.878-60.181c12.927-12.938,29.84-20.651,47.99-21.965c3.798,5.055,7.825,9.934,12.07,14.616    C95.441,260.974,87.791,277.091,75.486,289.405z M219.818,306.923c-9.788,9.789-23.289,14.934-36.958,14.308    c-0.628-13.677,4.521-27.171,14.309-36.959c9.788-9.788,23.291-14.931,36.958-14.308    C234.754,283.641,229.606,297.135,219.818,306.923z M244.352,296.584c4.445-10.827,5.924-22.82,3.996-34.645    c-0.519-3.182-3.014-5.676-6.195-6.195c-20.279-3.306-41.061,3.393-55.591,17.922c-2.849,2.849-5.392,5.941-7.623,9.22    c-5.406-2.174-10.752-4.609-15.956-7.276c-25.271-12.943-47.598-31.615-64.864-54.195c27.474-35.999,66.716-61.056,111.081-70.795    c21.516-4.744,44.004-5.683,65.834-2.852c-12.16,22.54-18.545,47.779-18.545,73.65c0,25.867,6.383,51.1,18.539,73.637    c-8.15,1.068-16.403,1.633-24.721,1.633C248.323,296.689,246.336,296.646,244.352,296.584z M290.706,292.334    c-12.586-21.441-19.216-45.847-19.216-70.916c0-25.074,6.633-49.485,19.224-70.929c16.276,3.505,32.055,9.11,46.924,16.725    c22.431,11.501,42.52,27.497,58.81,46.704H385.94c-4.143,0-7.5,3.358-7.5,7.5s3.357,7.5,7.5,7.5h10.504    C369.056,261.223,331.703,283.44,290.706,292.334z"/>
		<path style="fill:#333333;" d="M323.766,183.512c-20.901,0-37.906,17.005-37.906,37.906s17.005,37.906,37.906,37.906    s37.906-17.005,37.906-37.906S344.667,183.512,323.766,183.512z M323.766,244.325c-12.631,0-22.906-10.276-22.906-22.906    s10.275-22.906,22.906-22.906s22.906,10.276,22.906,22.906S336.396,244.325,323.766,244.325z"/>
		<circle style="fill:#333333;" cx="323.766" cy="221.418" r="7.5"/>
	</g>
</g>















</svg>
