<?xml version="1.0" encoding="iso-8859-1"?>
<!-- Generator: Adobe Illustrator 19.0.0, SVG Export Plug-In . SVG Version: 6.00 Build 0)  -->
<svg xmlns="http://www.w3.org/2000/svg" xmlns:xlink="http://www.w3.org/1999/xlink" version="1.1" id="Layer_1" x="0px" y="0px" viewBox="0 0 382.18 382.18" style="enable-background:new 0 0 382.18 382.18;" xml:space="preserve" width="512" height="512">
<g>
	<path style="fill:#E6E6E6;" d="M265.013,132.364c0.02-0.02,0-0.01,0-0.01V132.364z M268.713,98.104c3.88-4.31,10.3-6.66,20.3-6.66   c47.32,0,85.67,52.41,85.67,117.07s-38.35,117.07-85.67,117.07c-7.91,0-26.37-2.07-46.83-5.59l-0.01-0.01   c-7.88,6.73-16.56,11.94-25.8,15.34c-8.05,2.96-16.53,4.54-25.28,4.54h-0.01c-8.76,0-17.24-1.58-25.29-4.55   c-9.24-3.39-17.92-8.6-25.8-15.32c-20.46,3.52-38.92,5.59-46.83,5.59c-47.31,0-85.66-52.41-85.66-117.07s38.35-117.07,85.66-117.07   c10.01,0,16.43,2.35,20.31,6.66c20.15-17.53,48.45-48.45,51.18-85.77h52.87C220.253,49.654,248.553,80.574,268.713,98.104z"/>
	<path style="fill:#CCCCCC;" d="M314.513,132.354v0.01C314.533,132.344,314.513,132.354,314.513,132.354z M291.683,319.994   l-0.01-0.01c-2.28,1.95-4.63,3.77-7.04,5.45c1.69,0.1,3.16,0.149,4.38,0.149c6.63,0,13.08-1.03,19.27-2.979   C303.033,321.864,297.433,320.984,291.683,319.994z M113.473,98.104c-3.88-4.31-10.3-6.66-20.31-6.66   c-47.31,0-85.66,52.41-85.66,117.069c0,64.66,38.35,117.07,85.66,117.07c5.69,0,16.82-1.07,30.23-2.979   c-38.03-11.95-66.39-58.49-66.39-114.091c0-48.165,21.279-89.532,51.69-107.504"/>
	<path style="fill:#FFFFFF;" d="M329.775,286.799c-1.59,0-3.193-0.504-4.554-1.545c-3.289-2.519-3.913-7.227-1.396-10.515   c12.937-16.895,20.356-41.032,20.356-66.227c0-34.396-14.114-66.644-35.122-80.246c-3.478-2.252-4.471-6.896-2.22-10.372   c2.252-3.477,6.896-4.469,10.372-2.22c25.496,16.509,41.97,52.95,41.97,92.838c0,28.425-8.546,55.887-23.446,75.346   C334.26,285.788,332.03,286.799,329.775,286.799z"/>
	<path style="fill:#CCCCCC;" d="M144.093,101.994c0,0,39.5-12.5,41.5-87l-20.5-0.5c0,0-16,64-48.5,82l5.5,26L144.093,101.994z"/>
	<path style="fill:#FFFFFF;" d="M248.866,276.512c-0.789,0-1.592-0.125-2.382-0.39c-3.928-1.315-6.046-5.565-4.731-9.493   c19.067-56.953,5.88-95.457-8.54-117.729c-2.251-3.477-1.257-8.12,2.22-10.372s8.121-1.259,10.372,2.22   c16.211,25.038,31.135,68.027,10.173,130.643C254.927,274.529,252.002,276.512,248.866,276.512z"/>
	<circle style="fill:#FFFFFF;" cx="222.593" cy="124.994" r="7.5"/>
	<circle style="fill:#FFFFFF;" cx="289.013" cy="114.444" r="7.5"/>
	<path style="fill:#333333;" d="M355.644,121.301c-17.628-24.092-41.29-37.359-66.627-37.359c-8.248,0-14.852,1.448-19.975,4.391   c-33.893-31.108-42.726-58.635-44.036-76.546c-0.287-3.92-3.551-6.953-7.48-6.953h-52.872c-3.93,0-7.193,3.033-7.48,6.953   c-1.309,17.912-10.142,45.438-44.035,76.547c-5.123-2.944-11.728-4.392-19.975-4.392c-25.337,0-48.999,13.268-66.627,37.359   C9.424,144.688,0,175.661,0,208.514c0,32.854,9.424,63.827,26.535,87.214c17.628,24.092,41.29,37.359,66.627,37.359   c8.46,0,26.129-2.039,44.716-5.133c5.605,4.455,11.5,8.155,17.601,11.103l-11.767,23.102c-1.881,3.691-0.412,8.207,3.278,10.087   c1.091,0.556,2.253,0.819,3.398,0.819c2.73,0,5.364-1.498,6.688-4.098l12.514-24.568c4.595,1.278,9.267,2.16,13.994,2.606v22.841   c0,4.143,3.357,7.5,7.5,7.5s7.5-3.357,7.5-7.5v-22.84c4.727-0.446,9.399-1.328,13.994-2.606l12.512,24.566   c1.325,2.602,3.958,4.099,6.689,4.099c1.146,0,2.308-0.264,3.397-0.818c3.691-1.88,5.16-6.396,3.28-10.087l-11.766-23.102   c6.101-2.948,11.996-6.649,17.602-11.104c18.59,3.095,36.262,5.134,44.723,5.134c25.337,0,48.999-13.268,66.627-37.359   c17.112-23.387,26.536-54.359,26.536-87.214C382.18,175.661,372.756,144.688,355.644,121.301z M289.017,318.087   c-5.057,0-16.251-1.008-31.031-3.17c11.06-12.459,20.009-27.885,26.203-45.353c1.385-3.904-0.658-8.191-4.562-9.575   c-3.903-1.382-8.191,0.658-9.575,4.562c-14.608,41.192-45.603,67.809-78.962,67.809c-33.366,0-64.364-26.616-78.973-67.809   c-1.383-3.903-5.668-5.942-9.575-4.562c-3.904,1.384-5.946,5.671-4.562,9.575c6.195,17.469,15.144,32.896,26.205,45.354   c-14.777,2.162-25.967,3.169-31.023,3.169C50.063,318.087,15,268.933,15,208.514c0-60.418,35.063-109.572,78.162-109.572   c7.393,0,12.396,1.456,14.869,4.327c4.236,4.916,3.43,16.01,1.919,26.551c-8.871,14.981-15.121,31.904-18.569,50.338   c-0.762,4.071,1.921,7.989,5.993,8.751c0.466,0.087,0.93,0.129,1.388,0.129c3.539,0,6.688-2.517,7.363-6.122   c3.174-16.962,9.207-33.099,17.448-46.666c0.046-0.076,0.092-0.153,0.135-0.231c7.61-12.477,16.807-22.566,27.337-29.993   c3.385-2.387,4.194-7.066,1.807-10.451c-2.387-3.383-7.064-4.195-10.451-1.807c-6.964,4.911-13.4,10.789-19.256,17.571   c0.044-3.989-0.212-7.808-0.879-11.021c34.307-31.13,45.923-59.862,49.08-80.484h39.489c3.129,20.433,14.571,48.829,48.151,79.629   c-1.244,2.743-2.048,5.755-2.5,9.03c-5.162-5.591-10.74-10.516-16.71-14.726c-3.384-2.387-8.063-1.578-10.451,1.807   s-1.578,8.064,1.807,10.451c10.53,7.427,19.726,17.516,27.336,29.991c0.044,0.079,0.089,0.156,0.136,0.233   c8.241,13.567,14.274,29.704,17.448,46.666c0.675,3.605,3.824,6.122,7.363,6.122c0.458,0,0.922-0.042,1.388-0.129   c4.072-0.762,6.755-4.68,5.993-8.751c-3.448-18.431-9.697-35.352-18.565-50.332c-1.511-10.543-2.318-21.641,1.918-26.558   c2.475-2.87,7.477-4.326,14.869-4.326c43.1,0,78.163,49.154,78.163,109.572C367.18,268.933,332.116,318.087,289.017,318.087z"/>
</g>















</svg>
