<?xml version="1.0" encoding="iso-8859-1"?>
<!-- Generator: Adobe Illustrator 19.0.0, SVG Export Plug-In . SVG Version: 6.00 Build 0)  -->
<svg xmlns="http://www.w3.org/2000/svg" xmlns:xlink="http://www.w3.org/1999/xlink" version="1.1" id="Layer_1" x="0px" y="0px" viewBox="0 0 470.917 470.917" style="enable-background:new 0 0 470.917 470.917;" xml:space="preserve" width="512" height="512">
<g>
	<path style="fill:#F95428;" d="M235.462,286.443c8.23,0,14.9,6.68,14.9,14.91s-6.67,14.91-14.9,14.91   c-8.24,0-14.91-6.68-14.91-14.91S227.222,286.443,235.462,286.443z"/>
	<path style="fill:#F95428;" d="M235.462,218.953c8.23,0,14.9,6.67,14.9,14.9c0,8.24-6.67,14.91-14.9,14.91   c-8.24,0-14.91-6.67-14.91-14.91C220.552,225.623,227.222,218.953,235.462,218.953z"/>
	<path style="fill:#F95428;" d="M270.262,129.393c4.46,5.74,2.63,14.18-3.86,17.44c-19.91,9.98-43.47,9.98-63.38,0   c-6.5-3.26-8.32-11.7-3.87-17.44c0.05-0.06,0.1-0.12,0.15-0.18c3.41-4.4,9.43-5.7,14.42-3.23c13.21,6.54,28.77,6.54,41.97,0   c4.99-2.47,11.02-1.17,14.43,3.23C270.172,129.273,270.222,129.333,270.262,129.393z"/>
	<path style="fill:#F7B239;" d="M144.072,429.033l62.04,6.65c-0.89,7.9-4.66,14.83-10.21,19.79c-5.53,4.96-12.85,7.94-20.79,7.94   C156.612,463.413,142.192,447.423,144.072,429.033z"/>
	<path style="fill:#F7B239;" d="M264.812,435.683l62.21-3.43c0,17.01-13.81,31.16-31.21,31.16   C279.922,463.413,266.572,451.473,264.812,435.683z"/>
	<path style="fill:#F7B239;" d="M387.812,262.553c6.05,6.05,9.08,14,9.08,21.93s-3.03,15.87-9.08,21.92   c-12.11,12.12-31.74,12.12-43.86,0L387.812,262.553z"/>
	<path style="fill:#F7B239;" d="M83.112,262.553l43.85,43.85c-6.06,6.06-14,9.08-21.93,9.08s-15.87-3.02-21.92-9.08   C70.992,294.303,70.992,274.663,83.112,262.553z"/>
	<path style="fill:#F7B239;" d="M387.812,262.553l-43.86,43.85l-33.1-33.1l16,155.73c0.11,1.08,0.17,2.16,0.17,3.22l-62.21,3.43   l-8.96-68.27c-1.17-10.37-9.94-18.23-20.39-18.23s-19.23,7.86-20.39,18.23l-8.96,68.27l-62.04-6.65l15.99-155.73l-33.1,33.1   l-43.85-43.85l69.65-69.65c5-5,10.88-8.9,17.28-11.55c6.4-2.65,13.31-4.05,20.37-4.05c2.95,0,3.98-3.9,1.41-5.37   c-26.5-15.16-44.36-43.71-44.36-76.43c0-49.74,41.26-89.84,91.43-87.94c47.22,1.8,84.83,41.19,84.57,88.45   c-0.19,32.5-17.99,60.83-44.35,75.91c-1.01,0.58-1.47,1.54-1.47,2.49c0,1.46,1.08,2.89,2.87,2.89c14.12,0,27.66,5.61,37.64,15.6   L387.812,262.553z M266.402,146.833c6.49-3.26,8.32-11.7,3.86-17.44c-0.04-0.06-0.09-0.12-0.14-0.18c-3.41-4.4-9.44-5.7-14.43-3.23   c-13.2,6.54-28.76,6.54-41.97,0c-4.99-2.47-11.01-1.17-14.42,3.23c-0.05,0.06-0.1,0.12-0.15,0.18c-4.45,5.74-2.63,14.18,3.87,17.44   C222.932,156.813,246.492,156.813,266.402,146.833z M250.362,233.853c0-8.23-6.67-14.9-14.9-14.9c-8.24,0-14.91,6.67-14.91,14.9   c0,8.24,6.67,14.91,14.91,14.91C243.692,248.763,250.362,242.093,250.362,233.853z M250.362,301.353c0-8.23-6.67-14.91-14.9-14.91   c-8.24,0-14.91,6.68-14.91,14.91s6.67,14.91,14.91,14.91C243.692,316.263,250.362,309.583,250.362,301.353z"/>
	<path style="fill:#FFFFFF;" d="M186.313,417.367c-0.326,0-0.654-0.021-0.986-0.064c-4.106-0.539-6.999-4.306-6.46-8.412   l5.936-45.216c1.472-12.411,7.417-23.813,16.744-32.108c3.095-2.753,7.835-2.475,10.589,0.62c2.752,3.095,2.475,7.836-0.62,10.589   c-6.591,5.862-10.789,13.925-11.822,22.702c-0.004,0.033-0.008,0.066-0.012,0.101l-5.941,45.264   C193.243,414.618,190.02,417.367,186.313,417.367z"/>
	<path style="fill:#FFFFFF;" d="M301.943,419.229c-3.798,0-7.056-2.874-7.452-6.734L282.043,291.33   c-0.423-4.12,2.574-7.804,6.694-8.228c4.13-0.416,7.805,2.573,8.228,6.694l12.448,121.164c0.423,4.12-2.574,7.804-6.694,8.228   C302.458,419.215,302.199,419.229,301.943,419.229z"/>
	<path style="fill:#FFFFFF;" d="M358.276,273.046c-1.919,0-3.839-0.732-5.303-2.196l-47.501-47.495   c-2.93-2.929-2.93-7.678-0.001-10.606c2.93-2.93,7.679-2.929,10.606-0.001l47.501,47.495c2.93,2.929,2.93,7.678,0.001,10.606   C362.114,272.314,360.194,273.046,358.276,273.046z"/>
	<path style="fill:#FFFFFF;" d="M272.313,49.637c-1.482,0-2.979-0.438-4.288-1.353c-6.31-4.407-13.267-7.448-20.677-9.039   c-4.05-0.869-6.628-4.857-5.759-8.907c0.87-4.051,4.862-6.627,8.907-5.759c9.374,2.013,18.161,5.851,26.118,11.408   c3.396,2.371,4.226,7.047,1.854,10.443C277.01,48.519,274.68,49.637,272.313,49.637z"/>
	<circle style="fill:#FFFFFF;" cx="291.962" cy="202.363" r="7.5"/>
	<circle style="fill:#FFFFFF;" cx="287.204" cy="268.183" r="7.5"/>
	<g>
		<path style="fill:#333333;" d="M393.112,257.248l-69.654-69.654c-8.309-8.309-18.6-13.913-29.808-16.372    c23.12-17.823,37.143-45.597,37.31-75.172c0.14-24.815-9.291-48.43-26.556-66.492c-17.273-18.073-40.439-28.545-65.229-29.486    c-26.243-0.997-51.073,8.458-69.942,26.623c-18.877,18.173-29.273,42.609-29.273,68.807c0,29.8,14.027,57.782,37.31,75.722    c-11.208,2.46-21.498,8.064-29.807,16.372l-69.653,69.653c-7.275,7.276-11.283,16.948-11.283,27.233    c0,10.287,4.009,19.957,11.278,27.22c7.264,7.278,16.934,11.286,27.229,11.286c10.288,0,19.961-4.006,27.235-11.28l18.18-18.181    L136.61,428.269c-1.113,10.878,2.45,21.771,9.777,29.885c7.324,8.111,17.792,12.764,28.722,12.764    c9.542,0,18.704-3.502,25.793-9.854c7.08-6.333,11.573-15.021,12.656-24.471l8.951-68.199c0.006-0.047,0.012-0.095,0.017-0.143    c0.737-6.595,6.298-11.567,12.934-11.567s12.196,4.974,12.935,11.568c0.005,0.047,0.011,0.095,0.017,0.142l8.951,68.197    c2.23,19.575,18.747,34.327,38.449,34.327c21.343,0,38.706-17.344,38.706-38.661c0-1.328-0.07-2.676-0.208-3.99l-13.837-134.739    l18.181,18.181c7.276,7.275,16.948,11.283,27.233,11.283c10.287,0,19.956-4.009,27.226-11.283    c7.273-7.274,11.279-16.942,11.279-27.224C404.392,274.195,400.386,264.523,393.112,257.248z M88.413,301.098    c-4.441-4.438-6.888-10.338-6.888-16.616c0-3.69,0.851-7.248,2.45-10.459l31.516,31.517c-3.21,1.598-6.769,2.448-10.46,2.448    C98.75,307.988,92.851,305.543,88.413,301.098z M190.897,449.887c-4.339,3.889-9.945,6.03-15.787,6.03    c-6.791,0-13.038-2.775-17.588-7.815c-2.8-3.102-4.679-6.756-5.552-10.68l44.602,4.78    C195.224,445.096,193.319,447.721,190.897,449.887z M295.812,455.917c-9.273,0-17.375-5.348-21.258-13.261l43.566-2.399    C314.826,449.378,306.07,455.917,295.812,455.917z M316.159,268c-2.244-2.244-5.659-2.831-8.523-1.47    c-2.866,1.363-4.564,4.383-4.24,7.54l15.52,151.121l-47.576,2.62l-8.046-61.304c-1.622-14.158-13.574-24.824-27.833-24.824    s-26.21,10.667-27.832,24.824l-7.998,60.938l-47.335-5.073l15.229-148.301c0.324-3.157-1.374-6.177-4.24-7.54    c-2.866-1.362-6.279-0.774-8.524,1.47l-27.796,27.796L93.72,262.552l64.35-64.35c8.638-8.639,20.124-13.396,32.345-13.396    c4.77,0,8.796-3.094,10.021-7.699c1.226-4.613-0.737-9.308-4.884-11.68c-25.038-14.324-40.592-41.118-40.592-69.926    c0-22.083,8.764-42.681,24.677-58.001c15.904-15.313,36.845-23.279,58.969-22.44c20.874,0.793,40.391,9.623,54.956,24.862    c14.563,15.235,22.518,35.139,22.399,56.044c-0.161,28.606-15.708,55.219-40.572,69.451c-4.155,2.378-6.122,7.079-4.894,11.697    c1.223,4.601,5.248,7.691,10.017,7.691c12.217,0,23.702,4.757,32.34,13.396l64.351,64.351l-33.244,33.244L316.159,268z     M382.503,301.103c-4.438,4.441-10.339,6.888-16.616,6.888c-3.69,0-7.248-0.852-10.459-2.45l31.516-31.516    c1.597,3.21,2.448,6.768,2.448,10.459C389.392,290.758,386.946,296.659,382.503,301.103z"/>
		<path style="fill:#333333;" d="M199.555,73.808c2.928,2.928,7.677,2.929,10.606-0.001c2.929-2.929,2.929-7.678-0.001-10.606    c-10.313-10.312-27.091-10.31-37.403,0c-2.929,2.93-2.929,7.678,0,10.607c1.465,1.464,3.385,2.196,5.304,2.196    s3.839-0.732,5.304-2.196C187.827,69.343,195.09,69.345,199.555,73.808z"/>
		<path style="fill:#333333;" d="M266.061,76.004c1.919,0,3.839-0.732,5.304-2.196c4.463-4.465,11.726-4.463,16.19,0    c2.928,2.928,7.677,2.929,10.606-0.001c2.929-2.929,2.929-7.678-0.001-10.606c-10.313-10.312-27.092-10.31-37.403,0    c-2.929,2.93-2.929,7.678,0,10.607C262.222,75.272,264.142,76.004,266.061,76.004z"/>
		<path style="fill:#333333;" d="M235.459,211.448c-12.355,0-22.408,10.053-22.408,22.408s10.053,22.408,22.408,22.408    s22.408-10.053,22.408-22.408S247.815,211.448,235.459,211.448z M235.459,241.265c-4.085,0-7.408-3.323-7.408-7.408    s3.323-7.408,7.408-7.408s7.408,3.323,7.408,7.408S239.544,241.265,235.459,241.265z"/>
		<path style="fill:#333333;" d="M235.459,278.945c-12.355,0-22.408,10.053-22.408,22.408s10.053,22.408,22.408,22.408    s22.408-10.053,22.408-22.408S247.815,278.945,235.459,278.945z M235.459,308.761c-4.085,0-7.408-3.323-7.408-7.408    s3.323-7.408,7.408-7.408s7.408,3.323,7.408,7.408S239.544,308.761,235.459,308.761z"/>
		<path style="fill:#333333;" d="M279.735,140.784c1.273-5.614-0.018-11.441-3.55-15.995l-0.138-0.177    c-5.544-7.146-15.503-9.396-23.679-5.349c-11.056,5.472-24.259,5.473-35.318,0c-8.175-4.047-18.136-1.799-23.673,5.341    l-0.15,0.192c-3.525,4.546-4.816,10.373-3.543,15.987c1.263,5.56,4.896,10.208,9.972,12.753    c10.976,5.501,23.015,8.252,35.054,8.252c12.04,0,24.079-2.751,35.054-8.252c0,0,0,0,0-0.001    C274.839,150.992,278.473,146.344,279.735,140.784z M265.108,137.464c-0.156,0.687-0.632,1.944-2.066,2.664v-0.001    c-17.74,8.893-38.922,8.894-56.662,0.001c-1.435-0.72-1.91-1.978-2.066-2.664c-0.276-1.221,0.003-2.487,0.762-3.466l0.149-0.192    c0.791-1.019,1.976-1.564,3.216-1.564c0.653,0,1.322,0.151,1.957,0.466c15.225,7.535,33.402,7.535,48.627,0    c1.837-0.909,3.965-0.458,5.179,1.106l0.137,0.177C265.105,134.977,265.384,136.243,265.108,137.464z"/>
		<path style="fill:#333333;" d="M198.959,106.272V91.273c0-4.143-3.357-7.5-7.5-7.5s-7.5,3.357-7.5,7.5v14.999    c0,4.143,3.357,7.5,7.5,7.5S198.959,110.414,198.959,106.272z"/>
		<path style="fill:#333333;" d="M279.459,83.773c-4.143,0-7.5,3.357-7.5,7.5v14.999c0,4.143,3.357,7.5,7.5,7.5s7.5-3.357,7.5-7.5    V91.273C286.959,87.13,283.602,83.773,279.459,83.773z"/>
	</g>
</g>















</svg>
