<?xml version="1.0" encoding="iso-8859-1"?>
<!-- Generator: Adobe Illustrator 19.0.0, SVG Export Plug-In . SVG Version: 6.00 Build 0)  -->
<svg xmlns="http://www.w3.org/2000/svg" xmlns:xlink="http://www.w3.org/1999/xlink" version="1.1" id="Layer_1" x="0px" y="0px" viewBox="0 0 392.981 392.981" style="enable-background:new 0 0 392.981 392.981;" xml:space="preserve" width="512" height="512">
<g>
	<path style="fill:#E09B2D;" d="M241.484,272.579c9.49,0,17.19,7.69,17.19,17.18s-7.7,17.18-17.19,17.18   c-9.48,0-17.18-7.69-17.18-17.18S232.004,272.579,241.484,272.579z"/>
	<path style="fill:#E09B2D;" d="M123.674,221.849c10.39,0,18.82,8.43,18.82,18.82s-8.43,18.82-18.82,18.82s-18.81-8.43-18.81-18.82   S113.284,221.849,123.674,221.849z"/>
	<polygon style="fill:#F95428;" points="340.484,7.499 340.484,66.409 317.584,66.409 239.034,66.409 191.584,66.409 75.404,66.409    52.494,66.409 52.494,7.499  "/>
	<polygon style="fill:#E54728;" points="120.484,7.499 120.484,66.409 115.078,66.409 96.533,66.409 85.331,66.409 57.903,66.409    52.494,66.409 52.494,7.499  "/>
	<path style="fill:#A3E3E5;" d="M329.024,148.209v40.92H63.954v-40.92c0-6.31,5.13-11.44,11.45-11.44h10.71   c10.35,0,18.74-8.39,18.74-18.74v-22.17h86.73v38.79c0,12.01,9.74,21.75,21.75,21.75h3.95c12.01,0,21.75-9.74,21.75-21.75v-38.79   h49.09v22.17c0,10.35,8.39,18.74,18.74,18.74h10.72C323.894,136.769,329.024,141.899,329.024,148.209z"/>
	<path style="fill:#99E2FF;" d="M358.484,148.209v196.37c0,22.59-18.31,40.9-40.9,40.9H75.404c-22.59,0-40.91-18.31-40.91-40.9   v-196.37c0-22.58,18.32-40.9,40.91-40.9v-40.9h116.18v29.45h-86.73v22.17c0,10.35-8.39,18.74-18.74,18.74h-10.71   c-6.32,0-11.45,5.13-11.45,11.44v40.92v155.45c0,6.31,5.13,11.45,11.45,11.45h242.18c6.31,0,11.44-5.14,11.44-11.45v-155.45v-40.92   c0-6.31-5.13-11.44-11.44-11.44h-10.72c-10.35,0-18.74-8.39-18.74-18.74v-22.17h-49.09v-29.45h78.55v40.9   C340.174,107.309,358.484,125.629,358.484,148.209z"/>
	<path style="fill:#F7B239;" d="M329.024,189.129v155.45c0,6.31-5.13,11.45-11.44,11.45H75.404c-6.32,0-11.45-5.14-11.45-11.45   v-155.45H329.024z M258.674,289.759c0-9.49-7.7-17.18-17.19-17.18c-9.48,0-17.18,7.69-17.18,17.18s7.7,17.18,17.18,17.18   C250.974,306.939,258.674,299.249,258.674,289.759z M142.494,240.669c0-10.39-8.43-18.82-18.82-18.82s-18.81,8.43-18.81,18.82   s8.42,18.82,18.81,18.82S142.494,251.059,142.494,240.669z"/>
	<path style="fill:#F7B239;" d="M239.034,95.859v38.79c0,12.01-9.74,21.75-21.75,21.75h-3.95c-12.01,0-21.75-9.74-21.75-21.75   v-38.79v-29.45h47.45V95.859z"/>
	<path style="fill:#E09B2D;" d="M102.494,357.759H80.353c-9.057,0-16.399-7.342-16.399-16.399V189.129h38.54V357.759z"/>
	<g>
		<path style="fill:#333333;" d="M325.082,100.393V73.906h15.401c4.143,0,7.5-3.358,7.5-7.5V7.5c0-4.142-3.357-7.5-7.5-7.5H52.498    c-4.142,0-7.5,3.358-7.5,7.5v58.906c0,4.142,3.358,7.5,7.5,7.5H67.9v26.487c-23.139,3.616-40.901,23.684-40.901,47.821V344.58    c0,26.688,21.712,48.401,48.401,48.401h242.182c26.688,0,48.4-21.712,48.4-48.401V148.214    C365.982,124.077,348.22,104.009,325.082,100.393z M59.998,15h272.985v43.906H59.998V15z M306.861,144.266h10.72    c2.175,0,3.943,1.769,3.943,3.943v33.418H71.455v-33.418c0-2.174,1.769-3.943,3.944-3.943h10.72    c14.466,0,26.235-11.769,26.235-26.235v-14.674h71.728v31.296c0,16.128,13.121,29.249,29.249,29.249h3.954    c16.128,0,29.249-13.121,29.249-29.249v-31.296h34.093v14.674C280.627,132.497,292.395,144.266,306.861,144.266z M71.455,196.627    h250.069v147.957c0,2.174-1.769,3.943-3.943,3.943H75.399c-2.175,0-3.944-1.769-3.944-3.943V196.627z M231.534,134.652    c0,7.857-6.392,14.249-14.249,14.249h-3.954c-7.856,0-14.249-6.392-14.249-14.249V73.906h32.452V134.652z M350.982,344.58    c0,18.417-14.983,33.401-33.4,33.401H75.4c-18.417,0-33.401-14.983-33.401-33.401V148.214c0-18.417,14.983-33.401,33.401-33.401    c4.142,0,7.5-3.358,7.5-7.5V73.906h101.182v14.451h-79.228c-4.142,0-7.5,3.358-7.5,7.5v22.174c0,6.195-5.04,11.235-11.235,11.235    h-10.72c-10.446,0-18.944,8.498-18.944,18.943v196.375c0,10.445,8.498,18.943,18.944,18.943h242.182    c10.445,0,18.943-8.498,18.943-18.943V148.209c0-10.445-8.498-18.943-18.943-18.943h-10.72c-6.194,0-11.234-5.04-11.234-11.235    V95.856c0-4.142-3.357-7.5-7.5-7.5h-41.593V73.906h63.548v33.407c0,4.142,3.357,7.5,7.5,7.5c18.417,0,33.4,14.983,33.4,33.401    V344.58z"/>
		<path style="fill:#333333;" d="M123.676,266.987c14.511,0,26.317-11.806,26.317-26.317s-11.806-26.317-26.317-26.317    s-26.317,11.806-26.317,26.317S109.165,266.987,123.676,266.987z M123.676,229.353c6.24,0,11.317,5.077,11.317,11.317    s-5.077,11.317-11.317,11.317s-11.317-5.077-11.317-11.317S117.436,229.353,123.676,229.353z"/>
		<path style="fill:#333333;" d="M241.489,314.439c13.609,0,24.681-11.072,24.681-24.681c0-13.609-11.071-24.681-24.681-24.681    s-24.682,11.072-24.682,24.681C216.807,303.368,227.88,314.439,241.489,314.439z M241.489,280.078    c5.338,0,9.681,4.343,9.681,9.681c0,5.338-4.343,9.681-9.681,9.681c-5.339,0-9.682-4.343-9.682-9.681    C231.807,284.42,236.15,280.078,241.489,280.078z"/>
		<circle style="fill:#333333;" cx="227.584" cy="234.939" r="7.5"/>
	</g>
	<path style="fill:#FFFFFF;" d="M303.494,311.259c-4.143,0-7.5-3.358-7.5-7.5v-143c0-4.142,3.357-7.5,7.5-7.5s7.5,3.358,7.5,7.5v143   C310.994,307.901,307.636,311.259,303.494,311.259z"/>
	<path style="fill:#FFFFFF;" d="M318.494,52.259c-4.143,0-7.5-3.358-7.5-7.5v-13c0-4.142,3.357-7.5,7.5-7.5s7.5,3.358,7.5,7.5v13   C325.994,48.901,322.636,52.259,318.494,52.259z"/>
	<path style="fill:#FFFFFF;" d="M220.494,110.259c-4.143,0-7.5-3.358-7.5-7.5V88.384c0-4.142,3.357-7.5,7.5-7.5s7.5,3.358,7.5,7.5   v14.375C227.994,106.901,224.636,110.259,220.494,110.259z"/>
	<circle style="fill:#FFFFFF;" cx="220.494" cy="127.038" r="7.5"/>
	<circle style="fill:#FFFFFF;" cx="303.494" cy="328.405" r="7.5"/>
</g>















</svg>
