<?xml version="1.0" encoding="iso-8859-1"?>
<!-- Generator: Adobe Illustrator 19.0.0, SVG Export Plug-In . SVG Version: 6.00 Build 0)  -->
<svg xmlns="http://www.w3.org/2000/svg" xmlns:xlink="http://www.w3.org/1999/xlink" version="1.1" id="Layer_1" x="0px" y="0px" viewBox="0 0 443 443" style="enable-background:new 0 0 443 443;" xml:space="preserve" width="512" height="512">
<g>
	<path style="fill:#F4DE3B;" d="M134.723,197.563v38.42c0,9.11-7.39,16.5-16.5,16.5s-16.5-7.39-16.5-16.5v-38.42H134.723z"/>
	<path style="fill:#F4DE3B;" d="M323.253,197.563v38.42c0,9.11-7.39,16.5-16.5,16.5s-16.5-7.39-16.5-16.5v-38.42H323.253z"/>
	<path style="fill:#F4DE3B;" d="M290.253,197.563v98.5c0,9.12-7.39,16.5-16.5,16.5c-0.76,0-1.52-0.05-2.25-0.16   c-3.66-0.49-6.94-2.18-9.42-4.67c-2.98-2.99-4.83-7.11-4.83-11.67v-98.5H290.253z"/>
	<path style="fill:#F95428;" d="M257.253,197.563v82.95H48.973c-11.45,0-21.82-4.641-29.32-12.15c-7.51-7.5-12.15-17.88-12.15-29.33   c0-12.36,5.41-23.47,14-31.06c7.31-6.48,16.93-10.41,27.47-10.41h52.75v38.42c0,9.11,7.39,16.5,16.5,16.5   c9.11,0,16.5-7.39,16.5-16.5v-38.42H257.253z"/>
	<g>
		<path style="fill:#E54728;" d="M66.001,239.033c0-20.948,15.544-38.264,35.723-41.063v-0.406h-52.75    c-22.9,0-41.47,18.57-41.47,41.47c0,11.45,4.64,21.83,12.15,29.33c7.5,7.51,17.87,12.15,29.32,12.15h58.497    c-11.45,0-21.82-4.641-29.32-12.15C70.641,260.863,66.001,250.483,66.001,239.033z"/>
	</g>
	<path style="fill:#F95428;" d="M435.503,239.033c0,22.91-18.57,41.48-41.47,41.48h-103.78v-44.53c0,9.11,7.39,16.5,16.5,16.5   s16.5-7.39,16.5-16.5v-38.42h70.78c11.45,0,21.82,4.64,29.32,12.149C430.863,217.213,435.503,227.583,435.503,239.033z"/>
	<path style="fill:#F7B239;" d="M394.033,280.513v32.35c0,15.11-12.26,27.37-27.37,27.37H76.343c-15.11,0-27.37-12.26-27.37-27.37   v-32.35h208.28v15.55c0,4.56,1.85,8.68,4.83,11.67c2.98,2.99,7.11,4.83,11.67,4.83c9.11,0,16.5-7.38,16.5-16.5v-15.55H394.033z"/>
	<g>
		<path style="fill:#E09B2D;" d="M113.806,312.863v-32.35H48.973v32.35c0,15.11,12.26,27.37,27.37,27.37h64.832    C126.066,340.233,113.806,327.974,113.806,312.863z"/>
	</g>
	<path style="fill:#F7B239;" d="M302.233,102.813c24.98,0.78,47.53,11.22,64.03,27.72c17.15,17.15,27.76,40.85,27.76,67.03h-70.77   h-33h-33h-122.53h-33h-52.75c0-51.34,40.83-93.16,91.79-94.75c1-0.03,2-0.05,3.01-0.05h77.73h77.72   C300.233,102.763,301.233,102.783,302.233,102.813z"/>
	<path style="fill:#E09B2D;" d="M212.76,102.813c1-0.03,2-0.05,3.01-0.05h-71.996c-1.01,0-2.01,0.02-3.01,0.05   c-50.96,1.59-91.79,43.41-91.79,94.75h52.75h19.246C120.97,146.223,161.8,104.403,212.76,102.813z"/>
	<path style="fill:#E2C939;" d="M271.503,197.563v114.84c-3.66-0.49-6.94-2.18-9.42-4.67c-2.98-2.99-4.83-7.11-4.83-11.67v-98.5   H271.503z"/>
	<path style="fill:#E2C939;" d="M116.17,198.403v54c-3.66-0.49-6.94-2.18-9.42-4.67c-2.98-2.99-4.83-7.11-4.83-11.67v-37.66H116.17z   "/>
	<path style="fill:#E2C939;" d="M304.837,198.403v54c-3.66-0.49-6.94-2.18-9.42-4.67c-2.98-2.99-4.83-7.11-4.83-11.67v-37.66   H304.837z"/>
	<path style="fill:#FFFFFF;" d="M366.699,180.407c-3.062,0-5.937-1.889-7.046-4.933c-3.207-8.793-8.239-16.658-14.956-23.374   c-5.782-5.782-12.484-10.347-19.92-13.566c-3.801-1.646-5.548-6.063-3.902-9.863c1.646-3.801,6.059-5.549,9.863-3.902   c9.177,3.975,17.442,9.602,24.565,16.725c8.275,8.274,14.479,17.979,18.441,28.843c1.419,3.892-0.585,8.196-4.476,9.615   C368.42,180.261,367.552,180.407,366.699,180.407z"/>
	<path style="fill:#FFFFFF;" d="M412.503,246.533c-4.142,0-7.5-3.357-7.5-7.5c0-2.928-1.137-5.677-3.203-7.739   c-2.083-2.086-4.839-3.23-7.768-3.23c-4.142,0-7.5-3.357-7.5-7.5s3.358-7.5,7.5-7.5c6.938,0,13.464,2.708,18.374,7.624   c4.896,4.89,7.596,11.407,7.596,18.346C420.003,243.176,416.646,246.533,412.503,246.533z"/>
	<path style="fill:#333333;" d="M443,239.036c0-13.089-5.096-25.386-14.343-34.62c-7.511-7.521-17.04-12.295-27.372-13.819   c-3.596-53.171-47.994-95.333-102.062-95.333H143.777c-54.071,0-98.472,42.167-102.063,95.344C18.141,194.124,0,214.499,0,239.036   c0,13.095,5.097,25.396,14.344,34.63c7.451,7.461,16.89,12.214,27.126,13.777v25.423c0,19.228,15.643,34.87,34.87,34.87h290.32   c19.228,0,34.87-15.643,34.87-34.87V287.44C424.985,283.82,443,263.493,443,239.036z M282.75,296.067c0,4.963-4.038,9-9,9   s-9-4.037-9-9v-91h18V296.067z M109.22,205.067h18v30.919c0,4.963-4.038,9-9,9s-9-4.037-9-9V205.067z M297.75,205.067h18v30.919   c0,4.963-4.038,9-9,9s-9-4.037-9-9V205.067z M133.264,110.918v25.568c0,4.143,3.358,7.5,7.5,7.5s7.5-3.357,7.5-7.5v-26.223H214   v26.223c0,4.143,3.358,7.5,7.5,7.5s7.5-3.357,7.5-7.5v-26.223h65.737v26.223c0,4.143,3.358,7.5,7.5,7.5s7.5-3.357,7.5-7.5v-25.568   c40.748,4.917,72.952,37.992,76.471,79.148H56.793C60.312,148.911,92.515,115.835,133.264,110.918z M15,239.036   c0-18.728,15.233-33.964,33.959-33.97c0.005,0,0.009,0.001,0.014,0.001H94.22v30.919c0,13.233,10.766,24,24,24s24-10.767,24-24   v-30.919h107.53v67.948H48.97c-9.078,0-17.605-3.533-24.02-9.956C18.534,256.651,15,248.12,15,239.036z M386.53,312.866   c0,10.956-8.914,19.87-19.87,19.87H76.34c-10.957,0-19.87-8.914-19.87-19.87v-24.851h193.28v8.052c0,13.233,10.767,24,24,24   c13.233,0,24-10.767,24-24v-8.052h88.78V312.866z M394.03,273.016h-96.28v-14.787c2.781,1.13,5.818,1.758,9,1.758   c13.234,0,24-10.767,24-24v-30.919h63.277c0.005,0,0.009-0.001,0.014-0.001c9.073,0.003,17.597,3.536,24.009,9.956   c6.416,6.407,9.95,14.936,9.95,24.014C428,257.772,412.761,273.016,394.03,273.016z"/>
</g>















</svg>
