<?xml version="1.0" encoding="iso-8859-1"?>
<!-- Generator: Adobe Illustrator 19.0.0, SVG Export Plug-In . SVG Version: 6.00 Build 0)  -->
<svg xmlns="http://www.w3.org/2000/svg" xmlns:xlink="http://www.w3.org/1999/xlink" version="1.1" id="Layer_1" x="0px" y="0px" viewBox="0 0 443.65 443.65" style="enable-background:new 0 0 443.65 443.65;" xml:space="preserve" width="512" height="512">
<g>
	<polygon style="fill:#F7B239;" points="342.088,137.774 331.228,184.154 323.288,184.154 267.888,184.154 267.888,137.774    329.508,137.774  "/>
	<path style="fill:#F95428;" d="M331.458,117.134c0,7.06-0.67,13.96-1.95,20.64h-61.62h-39h-114.75   c-1.28-6.68-1.95-13.58-1.95-20.64c0-60.55,49.09-109.63,109.64-109.63S331.458,56.584,331.458,117.134z"/>
	<path style="fill:#E54728;" d="M247.328,10.491c-8.183-1.949-16.72-2.988-25.5-2.988c-60.55,0-109.64,49.08-109.64,109.63   c0,7.06,0.67,13.96,1.95,20.64h51c-1.28-6.68-1.95-13.58-1.95-20.64C163.188,65.364,199.076,21.985,247.328,10.491z"/>
	<path style="fill:#F7B239;" d="M323.288,184.154l-101.46,252l-101.46-252h108.52v11.12c0,10.77,8.73,19.5,19.5,19.5   c5.38,0,10.26-2.18,13.79-5.71s5.71-8.41,5.71-13.79v-11.12H323.288z"/>
	<path style="fill:#F95428;" d="M267.888,184.154v11.12c0,5.38-2.18,10.26-5.71,13.79s-8.41,5.71-13.79,5.71   c-10.77,0-19.5-8.73-19.5-19.5v-11.12v-46.38h39V184.154z"/>
	<polygon style="fill:#F7B239;" points="228.888,137.774 228.888,184.154 120.368,184.154 112.418,184.154 101.558,137.774    114.138,137.774  "/>
	<polygon style="fill:#E09B2D;" points="221.828,436.154 191.828,184.094 120.368,184.154  "/>
	<polygon style="fill:#E09B2D;" points="101.558,137.774 112.418,184.154 164.828,184.094 155.828,138.094  "/>
	<path style="fill:#FFFFFF;" d="M236.763,344.973c-0.932,0-1.88-0.175-2.798-0.544c-3.843-1.547-5.703-5.916-4.156-9.759   l42.723-106.112c1.546-3.841,5.913-5.705,9.758-4.156c3.843,1.547,5.703,5.916,4.156,9.759l-42.723,106.112   C242.546,343.197,239.734,344.973,236.763,344.973z"/>
	<path style="fill:#FFFFFF;" d="M308.425,122.27c-4.049,0-7.384-3.226-7.493-7.298c-0.898-33.366-22.855-62.744-54.637-73.103   c-3.938-1.284-6.09-5.517-4.807-9.455c1.284-3.938,5.518-6.089,9.455-4.807c37.8,12.32,63.914,47.268,64.982,86.961   c0.111,4.141-3.154,7.587-7.295,7.699C308.562,122.269,308.493,122.27,308.425,122.27z"/>
	<circle style="fill:#FFFFFF;" cx="288.823" cy="207.057" r="7.5"/>
	<circle style="fill:#FFFFFF;" cx="221.974" cy="30.732" r="7.5"/>
	<path style="fill:#333333;" d="M347.967,133.11c-1.423-1.794-3.587-2.84-5.877-2.84h-3.87c0.488-4.353,0.74-8.746,0.74-13.14   C338.96,52.544,286.416,0,221.83,0c-64.591,0-117.14,52.544-117.14,117.13c0,4.393,0.252,8.787,0.74,13.14h-3.871   c-2.29,0-4.454,1.046-5.877,2.84s-1.947,4.14-1.426,6.37l10.86,46.38c0.795,3.392,3.819,5.79,7.303,5.79h2.885l99.568,247.301   c1.143,2.839,3.896,4.699,6.957,4.699s5.814-1.86,6.957-4.699l99.568-247.301h2.874c3.483,0,6.508-2.398,7.303-5.79l10.86-46.38   C349.914,137.25,349.39,134.905,347.967,133.11z M221.83,15c56.314,0,102.13,45.815,102.13,102.13c0,4.399-0.282,8.799-0.842,13.14   H267.89c-4.143,0-7.5,3.358-7.5,7.5v57.5c0,6.617-5.383,12-12,12s-12-5.383-12-12v-57.5c0-4.142-3.357-7.5-7.5-7.5H120.532   c-0.56-4.342-0.842-8.741-0.842-13.14C119.691,60.815,165.51,15,221.83,15z M111.019,145.27H221.39v31.38H118.366L111.019,145.27z    M221.83,416.069L131.475,191.65h89.915v3.62c0,14.888,12.112,27,27,27s27-12.112,27-27v-3.62h36.796L221.83,416.069z    M325.283,176.65H275.39v-31.38h57.241L325.283,176.65z"/>
</g>















</svg>
