<?xml version="1.0" encoding="iso-8859-1"?>
<!-- Generator: Adobe Illustrator 19.0.0, SVG Export Plug-In . SVG Version: 6.00 Build 0)  -->
<svg xmlns="http://www.w3.org/2000/svg" xmlns:xlink="http://www.w3.org/1999/xlink" version="1.1" id="Layer_1" x="0px" y="0px" viewBox="0 0 368.011 368.011" style="enable-background:new 0 0 368.011 368.011;" xml:space="preserve" width="512" height="512">
<g>
	<path style="fill:#F95428;" d="M237.528,95.129c-9.76,5.93-16.72,16.11-18.19,28.18l-0.78,6.39c-6.29-12.89-19.5-21.6-34.55-21.6   c-3.12,0-6.16,0.38-9.08,1.09c-11.16,2.7-20.49,10.29-25.48,20.51l-0.77-6.39c-1.48-12.07-8.44-22.25-18.2-28.18   c4.8-7.78,13.77-14.24,25.19-18.33c8.36-2.97,18.03-4.68,28.33-4.68c6.28,0,12.32,0.63,17.97,1.81c3.63,0.74,7.1,1.7,10.37,2.87   C223.758,80.889,232.728,87.349,237.528,95.129z"/>
	<path style="fill:#F95428;" d="M240.908,295.119c0.95,7.78-0.67,15.22-4.14,21.54c-6.05,10.98-17.72,18.54-31.34,18.54h-42.85   c-13.62,0-25.29-7.56-31.33-18.54c-3.48-6.32-5.09-13.76-4.14-21.54l18.75-153.26c0.53-4.33,1.77-8.42,3.59-12.16   c6.29-12.89,19.51-21.6,34.56-21.6s28.26,8.71,34.55,21.6c1.82,3.74,3.06,7.83,3.59,12.16L240.908,295.119z"/>
	<path style="fill:#E54728;" d="M159.748,316.659c-3.48-6.32-5.09-13.76-4.14-21.54l18.75-153.26c0.53-4.33,1.77-8.42,3.59-12.16   c4.192-8.59,11.471-15.305,20.309-18.842c-4.422-1.771-9.229-2.758-14.249-2.758c-15.05,0-28.27,8.71-34.56,21.6   c-1.82,3.74-3.06,7.83-3.59,12.16l-18.75,153.26c-0.95,7.78,0.66,15.22,4.14,21.54c6.04,10.98,17.71,18.54,31.33,18.54h28.5   C177.458,335.199,165.788,327.64,159.748,316.659z"/>
	<path style="fill:#F95428;" d="M314.368,276.569c0.73,5.99-0.06,11.78-2.06,17.02c-5.07,13.36-17.99,23.07-33.41,23.07h-42.13   c3.47-6.32,5.09-13.76,4.14-21.54l-18.76-153.26c-0.53-4.33-1.77-8.42-3.59-12.16l0.78-6.39c1.47-12.07,8.43-22.25,18.19-28.18   c5.83-3.54,12.67-5.57,19.94-5.57c3.49,0,6.88,0.48,10.1,1.35c14.75,4.01,26.1,16.59,28.04,32.4L314.368,276.569z"/>
	<path style="fill:#F95428;" d="M360.248,253.499c2.6,21.3-14.01,40.09-35.47,40.09h-12.47c2-5.24,2.79-11.03,2.06-17.02   l-18.76-153.26c-1.94-15.81-13.29-28.39-28.04-32.4c3.69-9.43,10.95-16.97,20.05-21.06c4.82-2.16,10.15-3.36,15.73-3.36   c19.41,0,35.79,14.49,38.14,33.76L360.248,253.499z"/>
	<path style="fill:#F95428;" d="M287.618,69.849c-9.1,4.09-16.36,11.63-20.05,21.06c-3.22-0.87-6.61-1.35-10.1-1.35   c-7.27,0-14.11,2.03-19.94,5.57c-4.8-7.78-13.77-14.24-25.19-18.33l0.15-1.19c0.84-6.85,3.44-13.08,7.33-18.28v-0.01   c7.04-9.45,18.28-15.48,30.81-15.48h0.01C268.058,41.839,283.038,53.519,287.618,69.849z"/>
	<path style="fill:#F95428;" d="M219.818,57.319v0.01c-3.89,5.2-6.49,11.43-7.33,18.28l-0.15,1.19c-8.36-2.97-18.03-4.68-28.34-4.68   c-10.3,0-19.97,1.71-28.33,4.68l-0.15-1.19c-0.84-6.85-3.43-13.08-7.34-18.28l0.01-0.01c5.6-14.47,19.66-24.5,35.82-24.5   C200.158,32.819,214.218,42.849,219.818,57.319z"/>
	<path style="fill:#E54728;" d="M155.518,75.609l0.15,1.19c-11.42,4.09-20.39,10.55-25.19,18.33c-5.83-3.54-12.67-5.57-19.93-5.57   c-3.5,0-6.89,0.48-10.11,1.35c-3.68-9.44-10.95-16.98-20.05-21.06c4.58-16.33,19.56-28.01,36.98-28.01h0.02   c12.52,0,23.77,6.03,30.79,15.49C152.088,62.529,154.678,68.759,155.518,75.609z"/>
	<path style="fill:#E54728;" d="M148.678,123.309l0.77,6.39c-1.82,3.74-3.06,7.83-3.59,12.16l-18.75,153.26   c-0.95,7.78,0.66,15.22,4.14,21.54h-0.01h-42.12c-15.43,0-28.35-9.71-33.42-23.07c-2-5.24-2.79-11.03-2.06-17.02l18.76-153.26   c1.94-15.81,13.3-28.39,28.04-32.4c3.22-0.87,6.61-1.35,10.11-1.35c7.26,0,14.1,2.03,19.93,5.57   C140.238,101.059,147.198,111.239,148.678,123.309z"/>
	<path style="fill:#E54728;" d="M174.928,109.189c-11.16,2.7-20.49,10.29-25.48,20.51l-0.77-6.39c-1.48-12.07-8.44-22.25-18.2-28.18   c4.8-7.78,13.77-14.24,25.19-18.33c8.36-2.97,18.03-4.68,28.33-4.68c6.28,0,12.32,0.63,17.97,1.81l0.54,1.48   C202.508,75.409,171.478,77.869,174.928,109.189z"/>
	<path style="fill:#E54728;" d="M80.388,69.849c9.1,4.08,16.37,11.62,20.05,21.06c-14.74,4.01-26.1,16.59-28.04,32.4l-18.76,153.26   c-0.73,5.99,0.06,11.78,2.06,17.02h-12.46c-21.46,0-38.08-18.79-35.48-40.09l18.76-153.25c2.36-19.27,18.73-33.76,38.15-33.76   C70.248,66.489,75.568,67.689,80.388,69.849z"/>
	<path style="fill:#FFFFFF;" d="M214.805,278.752c-3.735,0-6.969-2.787-7.435-6.59l-15.497-126.601   c-0.108-0.882-0.354-1.722-0.729-2.494c-0.644-1.319-1.663-2.444-2.944-3.245c-3.511-2.197-4.576-6.825-2.38-10.337   c2.198-3.512,6.826-4.574,10.337-2.38c3.661,2.292,6.591,5.539,8.472,9.391c1.107,2.277,1.824,4.711,2.134,7.243l15.497,126.601   c0.503,4.111-2.422,7.853-6.533,8.355C215.417,278.733,215.109,278.752,214.805,278.752z"/>
	<path style="fill:#FFFFFF;" d="M259.935,75.472c-1.576,0-3.165-0.494-4.52-1.52c-1.396-1.056-3.047-1.613-4.777-1.613   c-1.23,0-2.396,0.263-3.463,0.78c-3.726,1.807-8.213,0.25-10.021-3.478c-1.807-3.727-0.25-8.213,3.478-10.021   c3.123-1.515,6.49-2.282,10.006-2.282c4.952,0,9.863,1.652,13.828,4.652c3.303,2.499,3.955,7.202,1.455,10.506   C264.447,74.446,262.205,75.472,259.935,75.472z"/>
	<path style="fill:#FFFFFF;" d="M288.543,262.463c-3.735,0-6.969-2.788-7.435-6.59l-15.774-128.857   c-0.194-1.582-0.838-3.045-1.863-4.229c-2.709-3.133-2.366-7.869,0.767-10.579c3.134-2.71,7.869-2.365,10.579,0.767   c2.979,3.444,4.849,7.67,5.406,12.219l15.774,128.858c0.504,4.111-2.422,7.853-6.533,8.355   C289.154,262.444,288.847,262.463,288.543,262.463z"/>
	<path style="fill:#FFFFFF;" d="M334.32,238.551c-3.735,0-6.969-2.787-7.435-6.59l-15.671-128.006   c-0.234-1.922-1.163-3.686-2.616-4.973c-3.102-2.746-3.39-7.486-0.644-10.587c2.746-3.102,7.486-3.39,10.587-0.644   c4.2,3.719,6.886,8.827,7.563,14.386l15.67,128.001c0.504,4.111-2.422,7.853-6.533,8.355   C334.931,238.532,334.625,238.551,334.32,238.551z"/>
	<circle style="fill:#FFFFFF;" cx="210.008" cy="94.909" r="7.5"/>
	<circle style="fill:#FFFFFF;" cx="218.934" cy="298.202" r="7.5"/>
	<circle style="fill:#FFFFFF;" cx="291.836" cy="279.792" r="7.5"/>
	<circle style="fill:#FFFFFF;" cx="338.583" cy="256.53" r="7.5"/>
	<path style="fill:#333333;" d="M367.692,252.588L348.935,99.344c-2.813-23.005-22.413-40.353-45.591-40.353   c-3.891,0-7.684,0.485-11.32,1.397C284.49,44.734,268.44,34.34,250.626,34.34c-10.682,0-20.985,3.793-29.108,10.443   c-8.486-11.952-22.48-19.468-37.512-19.468c-15.034,0-29.03,7.518-37.516,19.473c-8.127-6.657-18.429-10.448-29.121-10.448   c-17.804,0-33.852,10.394-41.386,26.047c-3.636-0.911-7.428-1.396-11.317-1.396c-23.178,0-42.777,17.348-45.59,40.352L0.319,252.59   c-1.501,12.288,2.344,24.651,10.55,33.92c8.2,9.264,19.998,14.576,32.367,14.576h7.645c7.413,13.983,22.174,23.068,38.234,23.068   H127.1c0.954,1.37,1.983,2.696,3.102,3.96c8.201,9.267,20.003,14.581,32.377,14.581h42.854c12.375,0,24.176-5.314,32.377-14.581   c1.118-1.264,2.148-2.59,3.102-3.96h37.985c16.064,0,30.829-9.09,38.235-23.068h7.644c12.369,0,24.167-5.313,32.367-14.576   C365.348,277.241,369.193,264.878,367.692,252.588z M250.637,49.34c11.802,0,22.442,6.791,27.608,17.054   c-6.128,3.99-11.279,9.453-14.95,16.046c-1.931-0.247-3.878-0.379-5.83-0.379c-6.261,0-12.256,1.275-17.734,3.577   c-4.761-5.344-11.23-9.954-18.933-13.479c1.016-3.726,2.716-7.248,5.045-10.36C231.638,53.997,240.903,49.34,250.637,49.34z    M214.378,112.104c-8.141-7.184-18.812-11.502-30.373-11.502c-11.561,0-22.231,4.318-30.373,11.502   c-2.622-7.113-6.944-13.36-12.444-18.292c4.185-4.013,10.009-7.447,16.994-9.946c7.816-2.781,16.745-4.251,25.821-4.251   s18.005,1.47,25.808,4.246c6.994,2.502,12.823,5.939,17.008,9.953C221.322,98.745,217,104.991,214.378,112.104z M184.005,40.315   c11.427,0,21.948,6.452,27.259,16.362c-1.999,3.328-3.565,6.896-4.663,10.616c-7.198-1.753-14.867-2.679-22.597-2.679   c-7.728,0-15.396,0.926-22.597,2.68c-1.099-3.731-2.665-7.3-4.659-10.617C162.058,46.768,172.579,40.315,184.005,40.315z    M117.392,49.34c9.716,0,18.976,4.657,24.793,12.489c2.313,3.082,4.007,6.594,5.023,10.33c-7.7,3.524-14.17,8.133-18.932,13.478   c-5.477-2.301-11.471-3.576-17.731-3.576c-1.952,0-3.899,0.132-5.83,0.379c-3.672-6.594-8.823-12.058-14.953-16.048   C94.929,56.129,105.571,49.34,117.392,49.34z M46.198,275.656c-0.425,3.472-0.423,6.98-0.01,10.43h-2.952   c-8.077,0-15.78-3.47-21.136-9.519c-5.36-6.055-7.873-14.132-6.893-22.157l18.757-153.246   c1.895-15.491,15.093-27.173,30.701-27.173c10.061,0,19.436,5.02,25.158,12.998C76.29,93.79,66.854,106.91,64.955,122.397   L46.198,275.656z M119.662,294.206c-0.617,5.044-0.319,10.098,0.798,14.948H89.115c-11.837,0-22.202-7.156-26.411-18.244   c-1.639-4.29-2.183-8.81-1.617-13.432l18.757-153.257c1.537-12.529,10.395-22.764,22.567-26.074   c2.648-0.721,5.385-1.087,8.134-1.087c15.601,0,28.794,11.676,30.687,27.152l0.524,4.316c-1.657,3.883-2.801,8.048-3.336,12.42   L119.662,294.206z M226.577,318.173c-5.355,6.052-13.063,9.522-21.145,9.522h-42.854c-8.081,0-15.788-3.471-21.145-9.522   s-7.865-14.123-6.884-22.145l18.757-153.257c1.896-15.489,15.094-27.17,30.698-27.17s28.802,11.681,30.697,27.17l18.757,153.257   C234.441,304.05,231.933,312.121,226.577,318.173z M305.301,290.925c-4.139,10.903-14.75,18.229-26.405,18.229H247.55   c1.117-4.851,1.416-9.904,0.798-14.948l-18.757-153.257c-0.535-4.372-1.679-8.537-3.336-12.419l0.523-4.311   c1.894-15.482,15.085-27.158,30.687-27.158c2.749,0,5.485,0.366,8.137,1.088c12.17,3.31,21.027,13.544,22.565,26.071   l18.757,153.259C307.49,282.1,306.946,286.619,305.301,290.925z M345.911,276.567c-5.355,6.049-13.059,9.519-21.136,9.519h-2.952   c0.414-3.451,0.415-6.959-0.01-10.43l-18.757-153.262c-1.901-15.486-11.338-28.605-24.869-35.406   c5.723-7.978,15.097-12.998,25.157-12.998c15.608,0,28.808,11.682,30.702,27.174l18.757,153.243   C353.784,262.436,351.271,270.513,345.911,276.567z"/>
</g>















</svg>
