<?xml version="1.0" encoding="iso-8859-1"?>
<!-- Generator: Adobe Illustrator 19.0.0, SVG Export Plug-In . SVG Version: 6.00 Build 0)  -->
<svg xmlns="http://www.w3.org/2000/svg" xmlns:xlink="http://www.w3.org/1999/xlink" version="1.1" id="Layer_1" x="0px" y="0px" viewBox="0 0 468.129 468.129" style="enable-background:new 0 0 468.129 468.129;" xml:space="preserve" width="512" height="512">
<g>
	<path style="fill:#F7B239;" d="M291.027,21.183v29.32h-10.04h-93.84h-10.04v-29.32c0-7.56,6.12-13.68,13.68-13.68h86.55   C284.897,7.503,291.027,13.623,291.027,21.183z"/>
	<path style="fill:#E09B2D;" d="M221.787,7.503h-31c-7.56,0-13.68,6.12-13.68,13.68v29.32h10.04h20.96v-29.32   C208.107,13.623,214.227,7.503,221.787,7.503z"/>
	<path style="fill:#F7B239;" d="M285.137,145.503h-102.15c2.76-15.43,4.16-31.1,4.16-46.85v-13.15h93.84v13.15   C280.987,114.403,282.387,130.074,285.137,145.503z"/>
	<path style="fill:#E09B2D;" d="M215.148,85.503h-28v13.15c0,15.75-1.4,31.42-4.16,46.85h28c2.76-15.43,4.16-31.1,4.16-46.85V85.503   z"/>
	<rect x="187.147" y="50.503" style="fill:#F95428;" width="93.84" height="35"/>
	<rect x="187.147" y="50.503" style="fill:#E54728;" width="25" height="35"/>
	<path style="fill:#F95428;" d="M327.457,316.323v125.12c0,10.6-8.59,19.19-19.18,19.19h-148.42c-10.6,0-19.18-8.59-19.18-19.19   v-125.12c0-18.75,1.98-37.4,5.87-55.64s9.7-36.07,17.36-53.19c8.89-19.86,15.28-40.69,19.08-61.99h102.15   c0.52,2.94,1.1,5.88,1.72,8.8c3.89,18.24,9.7,36.07,17.36,53.19C319.537,241.733,327.457,278.814,327.457,316.323z    M281.927,409.504l13.81-133.67c-19.67-8.57-40.67-12.86-61.67-12.86c-21.01,0-42.01,4.29-61.67,12.86l13.81,133.67H281.927z"/>
	<path style="fill:#E54728;" d="M184.677,441.443v-125.12c0-18.75,1.98-37.4,5.87-55.64c3.89-18.24,9.7-36.07,17.36-53.19   c8.89-19.86,15.28-40.69,19.08-61.99h-44c-3.8,21.3-10.19,42.13-19.08,61.99c-7.66,17.12-13.47,34.95-17.36,53.19   c-3.89,18.24-5.87,36.89-5.87,55.64v125.12c0,10.6,8.58,19.19,19.18,19.19h44C193.257,460.633,184.677,452.043,184.677,441.443z"/>
	<path style="fill:#F7B239;" d="M295.737,275.833l-13.81,133.67h-95.72l-13.81-133.67c19.66-8.57,40.66-12.86,61.67-12.86   C255.067,262.974,276.067,267.263,295.737,275.833z"/>
	<path style="fill:#FFFFFF;" d="M259.173,132.368c-3.835,0-7.105-2.927-7.46-6.821c-0.636-6.985-1.028-14.072-1.167-21.065   c-0.083-4.141,3.208-7.565,7.35-7.647c0.05-0.001,0.101-0.001,0.151-0.001c4.073,0,7.414,3.26,7.495,7.351   c0.132,6.639,0.505,13.369,1.108,20.003c0.376,4.125-2.664,7.773-6.789,8.149C259.63,132.358,259.4,132.368,259.173,132.368z"/>
	<path style="fill:#FFFFFF;" d="M296.368,261.489c-3.318,0-6.352-2.219-7.244-5.577c-3.238-12.197-7.527-24.297-12.746-35.962   c-4.611-10.305-8.679-21.001-12.088-31.79c-1.248-3.95,0.941-8.163,4.892-9.411c3.948-1.249,8.163,0.942,9.411,4.891   c3.237,10.244,7.099,20.4,11.477,30.184c5.548,12.399,10.107,25.264,13.553,38.239c1.063,4.003-1.32,8.111-5.324,9.174   C297.653,261.406,297.005,261.489,296.368,261.489z"/>
	<path style="fill:#FFFFFF;" d="M304.457,445.134c-4.143,0-7.5-3.358-7.5-7.5v-65.3c0-4.142,3.357-7.5,7.5-7.5s7.5,3.358,7.5,7.5   v65.3C311.957,441.776,308.6,445.134,304.457,445.134z"/>
	<circle style="fill:#FFFFFF;" cx="265.643" cy="164.816" r="7.5"/>
	<circle style="fill:#FFFFFF;" cx="257.987" cy="67.633" r="7.5"/>
	<circle style="fill:#FFFFFF;" cx="270.508" cy="25.48" r="7.5"/>
	<g>
		<path style="fill:#333333;" d="M311.065,204.428c-14.984-33.493-22.582-69.08-22.582-105.772V58h2.54c4.143,0,7.5-3.358,7.5-7.5    V21.183C298.523,9.503,289.021,0,277.341,0h-86.553c-11.68,0-21.183,9.503-21.183,21.183V50.5c0,4.142,3.358,7.5,7.5,7.5h2.541    v40.656c0,36.692-7.598,72.279-22.583,105.772c-15.852,35.433-23.89,73.081-23.89,111.898v125.12    c0,14.713,11.97,26.682,26.682,26.682h148.418c14.713,0,26.683-11.97,26.683-26.682v-125.12    C334.956,277.509,326.918,239.861,311.065,204.428z M194.645,98.656V93h78.838v5.656c0,13.267,0.962,26.392,2.831,39.344h-84.5    C193.683,125.048,194.645,111.923,194.645,98.656z M184.604,21.183c0-3.409,2.774-6.183,6.183-6.183h86.553    c3.409,0,6.183,2.774,6.183,6.183V43h-98.919V21.183z M273.483,58v20h-78.838V58H273.483z M319.956,441.447    c0,6.442-5.241,11.682-11.683,11.682H159.855c-6.441,0-11.682-5.241-11.682-11.682v-125.12c0-36.692,7.598-72.279,22.583-105.772    c8.331-18.622,14.481-37.86,18.463-57.554h89.691c3.982,19.694,10.133,38.932,18.464,57.554    c14.984,33.493,22.582,69.08,22.582,105.772V441.447z"/>
		<path style="fill:#333333;" d="M169.397,268.954c-2.994,1.305-4.8,4.397-4.464,7.646l13.811,133.67    c0.395,3.823,3.617,6.729,7.46,6.729h95.72c3.844,0,7.065-2.906,7.46-6.729l13.811-133.67c0.336-3.249-1.47-6.342-4.464-7.646    C257.633,251.047,210.494,251.047,169.397,268.954z M287.7,280.622L275.159,402h-82.19l-12.541-121.379    C214.807,267.152,253.321,267.151,287.7,280.622z"/>
	</g>
</g>















</svg>
