<?xml version="1.0" encoding="iso-8859-1"?>
<!-- Generator: Adobe Illustrator 19.0.0, SVG Export Plug-In . SVG Version: 6.00 Build 0)  -->
<svg xmlns="http://www.w3.org/2000/svg" xmlns:xlink="http://www.w3.org/1999/xlink" version="1.1" id="Layer_1" x="0px" y="0px" viewBox="0 0 413.98 413.98" style="enable-background:new 0 0 413.98 413.98;" xml:space="preserve" width="512" height="512">
<g>
	<g>
		<path style="fill:#F4DE3B;" d="M360.147,210.989c0-78.646-49.858-144.584-116.986-162.309c0.198-1.539,0.311-3.105,0.311-4.698    c0-20.149-16.334-36.483-36.482-36.483s-36.482,16.334-36.482,36.483c0,1.593,0.113,3.159,0.311,4.698    C103.691,66.405,53.833,132.343,53.833,210.989c0,78.584,49.78,144.48,116.828,162.267c1.649,18.621,17.28,33.224,36.33,33.224    s34.681-14.603,36.33-33.224C310.367,355.469,360.147,289.573,360.147,210.989z"/>
	</g>
	<g>
		<path style="fill:#D6BD27;" d="M206.993,406.483c-19.05,0-34.68-14.61-36.33-33.23c-67.05-17.79-116.83-83.68-116.83-162.26    c0-78.65,49.86-144.59,116.99-162.31c-0.2-1.54-0.32-3.11-0.32-4.7c0-20.15,16.34-36.48,36.49-36.48    c-6.98,0-12.64,16.33-12.64,36.48c0,1.59,0.04,3.16,0.11,4.7c-23.24,17.72-40.51,83.66-40.51,162.31    c0,78.58,17.24,144.47,40.46,162.26C194.983,391.874,200.393,406.483,206.993,406.483z"/>
	</g>
	<g>
		<path style="fill:#FFFFFF;" d="M219.242,61.927c-0.319,0-0.643-0.021-0.967-0.063c-4.108-0.528-7.011-4.287-6.481-8.396    l1.117-8.681c0.054-0.417,0.062-0.684,0.062-0.806c0-3.299-2.684-5.982-5.982-5.982c-4.143,0-7.5-3.357-7.5-7.5s3.357-7.5,7.5-7.5    c11.569,0,20.982,9.413,20.982,20.982c0,0.855-0.063,1.771-0.185,2.721l-1.117,8.68C226.185,59.166,222.958,61.927,219.242,61.927    z"/>
		<path style="fill:#FFFFFF;" d="M312.913,302.154c-1.399,0-2.814-0.392-4.076-1.21c-3.475-2.255-4.463-6.899-2.208-10.374    c15.059-23.206,23.019-50.725,23.019-79.581c0-31.702-9.49-61.441-27.443-86.001c-7.473-10.223-16.255-19.205-26.102-26.697    c-3.297-2.508-3.936-7.214-1.428-10.51s7.215-3.936,10.51-1.428c11.001,8.37,20.802,18.391,29.129,29.783    c19.845,27.146,30.334,59.946,30.334,94.853c0,31.762-8.796,62.104-25.437,87.747    C317.775,300.949,315.368,302.154,312.913,302.154z"/>
		<circle style="fill:#FFFFFF;" cx="262.998" cy="81.868" r="7.5"/>
	</g>
	<path style="fill:#333333;" d="M332.882,102.563c-20.896-28.588-49.809-49.521-81.918-59.447C250.5,19.264,230.952,0,206.99,0   s-43.51,19.264-43.974,43.116c-32.109,9.927-61.021,30.859-81.918,59.447c-22.744,31.113-34.766,68.606-34.766,108.426   c0,39.786,12.004,77.255,34.714,108.355c21.104,28.902,50.401,49.994,82.916,59.807c4.21,20.188,21.868,34.829,43.027,34.829   s38.817-14.642,43.027-34.829c32.515-9.813,61.812-30.905,82.916-59.807c22.71-31.101,34.714-68.569,34.714-108.355   C367.647,171.17,355.626,133.677,332.882,102.563z M320.819,310.498c-20.112,27.544-48.318,47.257-79.422,55.509   c-3.052,0.81-5.27,3.442-5.548,6.587c-1.311,14.797-13.987,26.387-28.859,26.387s-27.549-11.59-28.859-26.387   c-0.278-3.145-2.496-5.777-5.548-6.587c-31.104-8.252-59.31-27.965-79.422-55.509c-20.822-28.515-31.828-62.924-31.828-99.509   c0-36.615,11.022-71.047,31.875-99.574c20.144-27.557,48.387-47.261,79.526-55.482c3.641-0.962,6.004-4.475,5.523-8.21   c-0.168-1.308-0.25-2.53-0.25-3.74C178.008,28.001,191.01,15,206.99,15s28.982,13.001,28.982,28.982c0,1.21-0.082,2.433-0.25,3.74   c-0.48,3.735,1.883,7.248,5.523,8.21c31.14,8.222,59.383,27.926,79.526,55.482c20.853,28.527,31.875,62.959,31.875,99.574   C352.647,247.574,341.642,281.983,320.819,310.498z"/>
</g>















</svg>
