<?xml version="1.0" encoding="iso-8859-1"?>
<!-- Generator: Adobe Illustrator 19.0.0, SVG Export Plug-In . SVG Version: 6.00 Build 0)  -->
<svg xmlns="http://www.w3.org/2000/svg" xmlns:xlink="http://www.w3.org/1999/xlink" version="1.1" id="Layer_1" x="0px" y="0px" viewBox="0 0 398.141 398.141" style="enable-background:new 0 0 398.141 398.141;" xml:space="preserve" width="512" height="512">
<g>
	<path style="fill:#9AD14B;" d="M261.513,56.149l-0.01,0.01c-19.35,7.57-40.41,11.74-62.43,11.74c-3.36,0-6.69-0.1-10-0.29   c-18.41-1.06-36.03-5.03-52.43-11.45c8.21-6.88,13.16-17.1,13.16-28.14l-0.01-20.52h98.56l-0.01,20.52   C248.333,39.059,253.303,49.289,261.513,56.149z"/>
	<path style="fill:#9AD14B;" d="M355.673,290.119h0.01c-27.35,59.67-87.81,101.01-157.86,100.52c-50.45-0.36-95.95-22.7-127.3-57.9   c35.26-10.62,65.74-32.24,87.46-60.86c30.07,25.68,69.09,41.19,111.74,41.19C301.043,313.069,330.393,304.709,355.673,290.119z"/>
	<path style="fill:#9AD14B;" d="M97.533,140.879c0,52.45,23.45,99.43,60.45,131c-21.72,28.62-52.2,50.24-87.46,60.86   c-26.58-29.84-42.99-68.91-43.63-111.66c-0.97-64.89,33.97-121.7,86.22-151.85C103.113,91.049,97.533,115.299,97.533,140.879z"/>
	<g>
		<path style="fill:#90BC42;" d="M120.523,332.739c-26.58-29.84-42.99-68.91-43.63-111.66c-0.458-30.643,7.1-59.48,20.699-84.563    c0.597-23.974,6.091-46.712,15.521-67.287c-52.25,30.15-87.19,86.96-86.22,151.85c0.64,42.75,17.05,81.82,43.63,111.66    c31.35,35.2,76.85,57.54,127.3,57.9c8.943,0.063,17.729-0.561,26.311-1.813C183.241,382.832,146.88,362.333,120.523,332.739z"/>
	</g>
	<path style="fill:#90BC42;" d="M355.803,289.849c-0.04,0.09-0.08,0.18-0.12,0.27c-7.88,17.19-18.51,32.86-31.32,46.44   c-20.58,7.93-42.95,12.28-66.35,12.28c-45.77,0-87.64-16.64-119.9-44.2c-39.71-33.87-64.87-84.29-64.87-140.57   c0-27.45,5.99-53.47,16.72-76.88v-0.02c5.21-3,10.59-5.77,16.12-8.27c1.14-0.52,2.26-1.09,3.33-1.71   c-7.85,19.7-12.17,41.18-12.17,63.69c0,52.45,23.45,99.43,60.45,131c30.07,25.68,69.09,41.19,111.74,41.19   c31.32,0,60.67-8.36,85.95-22.95L355.803,289.849z"/>
	<path style="fill:#9AD14B;" d="M371.263,218.449c0,25.58-5.58,49.85-15.58,71.67h-0.01c-25.28,14.59-54.63,22.95-85.95,22.95   c-42.65,0-81.67-15.51-111.74-41.19c-37-31.57-60.45-78.55-60.45-131c0-25.58,5.58-49.83,15.58-71.65v-0.01   c4.86-2.8,9.87-5.38,15.02-7.71c3.11-1.41,5.97-3.22,8.51-5.35c19.34,7.57,40.39,11.74,62.43,11.74c22.02,0,43.08-4.17,62.43-11.74   l0.01-0.01c2.55,2.15,5.41,3.96,8.54,5.38C329.743,88.569,371.263,148.659,371.263,218.449z"/>
	<path style="fill:#90BC42;" d="M189.073,7.499v60.11c-18.41-1.06-36.03-5.03-52.43-11.45c8.21-6.88,13.16-17.1,13.16-28.14   l-0.01-20.52H189.073z"/>
	<path style="fill:#FFFFFF;" d="M340.719,272.966c-0.785,0-1.583-0.124-2.368-0.385c-3.93-1.307-6.057-5.553-4.75-9.484   c4.752-14.288,7.162-29.309,7.162-44.647c0-23.726-6.064-47.301-17.537-68.176c-11.382-20.711-27.864-38.386-47.663-51.115   c-3.484-2.24-4.493-6.88-2.253-10.364c2.24-3.486,6.881-4.494,10.364-2.253c21.893,14.075,40.115,33.615,52.697,56.507   c12.686,23.083,19.392,49.156,19.392,75.4c0,16.95-2.667,33.564-7.928,49.382C346.789,270.976,343.861,272.966,340.719,272.966z"/>
	<circle style="fill:#FFFFFF;" cx="260.607" cy="82.641" r="7.5"/>
	<path style="fill:#333333;" d="M273.148,54.698c-10.518-4.765-17.312-15.237-17.307-26.678l0.008-20.517   c0.001-1.99-0.789-3.898-2.196-5.305C252.248,0.791,250.34,0,248.35,0h-98.557c-1.99,0-3.897,0.791-5.304,2.198   c-1.407,1.407-2.196,3.315-2.196,5.305l0.007,20.52c0.003,11.444-6.77,21.905-17.256,26.652   C59.794,84.209,18.325,149.572,19.396,221.192c0.703,47.043,19.615,91.326,53.252,124.691   c33.635,33.362,78.07,51.919,125.121,52.253c0.439,0.003,0.873,0.004,1.312,0.004c47.765,0,92.682-18.501,126.6-52.18   c34.232-33.991,53.085-79.276,53.085-127.515C378.765,148.04,337.308,83.765,273.148,54.698z M157.296,15h83.551l-0.005,13.014   c-0.004,8.999,2.767,17.593,7.652,24.787c-15.93,5.045-32.506,7.602-49.422,7.602c-16.92,0-33.494-2.556-49.414-7.598   c4.878-7.19,7.645-15.785,7.643-24.787L157.296,15z M131.229,68.339c2.332-1.056,4.539-2.303,6.613-3.711   c19.592,7.151,40.169,10.775,61.229,10.775c21.053,0,41.632-3.625,61.236-10.778c2.085,1.417,4.305,2.674,6.651,3.736   c58.808,26.642,96.807,85.554,96.807,150.084c0,23.211-4.77,45.674-13.834,66.287c-24.403,13.627-52.075,20.839-80.204,20.839   c-39.178,0-77.132-13.99-106.875-39.395c-36.744-31.354-57.817-77.023-57.817-125.296c0-23.118,4.695-45.427,13.93-66.357   C122.943,72.308,127.031,70.24,131.229,68.339z M97.753,88.577c-5.128,16.842-7.718,34.353-7.718,52.304   c0,50.251,20.941,97.904,57.675,131.882c-19.595,23.652-45.782,41.639-74.758,51.328c-24.399-28.982-37.989-65.068-38.558-103.122   C33.611,168.601,57.641,119.886,97.753,88.577z M315.111,335.317c-31.372,31.15-72.998,48.173-117.236,47.819   c-42.716-0.302-83.084-17.019-113.816-47.083c29.015-10.961,55.15-29.585,75.065-53.56c31.478,24.607,70.453,38.078,110.603,38.078   c23.464,0,46.645-4.597,68.166-13.407C331.427,317.236,323.814,326.676,315.111,335.317z"/>
</g>















</svg>
