<?xml version="1.0" encoding="iso-8859-1"?>
<!-- Generator: Adobe Illustrator 19.0.0, SVG Export Plug-In . SVG Version: 6.00 Build 0)  -->
<svg xmlns="http://www.w3.org/2000/svg" xmlns:xlink="http://www.w3.org/1999/xlink" version="1.1" id="Layer_1" x="0px" y="0px" viewBox="0 0 465.95 465.95" style="enable-background:new 0 0 465.95 465.95;" xml:space="preserve" width="512" height="512">
<g>
	<path style="fill:#F95428;" d="M309.258,402.064c-5.98-5.97-14.24-9.68-23.36-9.68h-8.75v-25.01v-28.98v-6.75v-3.06v-28.98v-3.69   v-6.13v-28.98v-13.33h-0.01c1.59-5.15,1.77-11.38,0.94-18.29c-4.89-40.66-45.1-104.49-45.1-104.49s-40.21,63.83-45.11,104.49   c-0.83,6.91-0.64,13.15,0.94,18.29h-0.01v42.31v6.12v32.68v3.05v35.73v0.01v25.01h-8.75c-9.12,0-17.38,3.71-23.35,9.68   c-5.98,5.98-9.68,14.24-9.68,23.36c0,18.24,14.79,33.03,33.03,33.03h33.9h19.03h19.02h33.9c18.24,0,33.04-14.79,33.04-33.03   C318.938,416.304,315.228,408.044,309.258,402.064z"/>
	<path style="fill:#E54728;" d="M181.018,425.424c0-9.12,3.7-17.38,9.68-23.36c5.97-5.97,14.23-9.68,23.35-9.68h8.75v-25.01v-0.01   v-35.73v-3.05v-32.68v-6.12v-42.31h0.01c-1.58-5.14-1.77-11.38-0.94-18.29c2.738-22.718,16.498-52.667,28.11-74.676   c-9.169-17.382-17-29.814-17-29.814s-40.21,63.83-45.11,104.49c-0.83,6.91-0.64,13.15,0.94,18.29h-0.01v42.31v6.12v32.68v3.05   v35.73v0.01v25.01h-8.75c-9.12,0-17.38,3.71-23.35,9.68c-5.98,5.98-9.68,14.24-9.68,23.36c0,18.24,14.79,33.03,33.03,33.03h33.9   h0.1C195.808,458.454,181.018,443.664,181.018,425.424z"/>
	<path style="fill:#E54728;" d="M347.058,112.704v19.02c-11.56,0-22.04-4.69-29.62-12.27c-7.58-7.58-12.27-18.05-12.27-29.62v-30.33   C329.748,65.434,347.058,87.424,347.058,112.704z"/>
	<path style="fill:#F95428;" d="M364.188,128.074c-5.23,2.34-11.03,3.65-17.13,3.65v-19.02c0-25.28-17.31-47.27-41.89-53.2v-52h1.45   c45.47,0,82.33,36.86,82.33,82.33c0,11.57-4.69,22.04-12.27,29.62C373.098,123.034,368.868,125.974,364.188,128.074z"/>
	<path style="fill:#E54728;" d="M160.778,59.504v30.33c0,11.57-4.69,22.04-12.27,29.62s-18.05,12.27-29.62,12.27v-19.02   C118.888,87.424,136.208,65.434,160.778,59.504z"/>
	<path style="fill:#F95428;" d="M101.768,128.074c-4.69-2.1-8.92-5.04-12.5-8.62c-7.58-7.58-12.27-18.05-12.27-29.62   c0-45.47,36.87-82.33,82.34-82.33h1.44v52c-24.57,5.93-41.89,27.92-41.89,53.2v19.02   C112.788,131.724,106.998,130.424,101.768,128.074z"/>
	<path style="fill:#E54728;" d="M112.268,119.454c-7.58-7.58-12.27-18.05-12.27-29.62c0-38.008,25.768-69.982,60.78-79.459V7.504   h-1.44c-45.47,0-82.34,36.86-82.34,82.33c0,11.57,4.69,22.04,12.27,29.62c3.58,3.58,7.81,6.52,12.5,8.62   c5.23,2.35,11.02,3.65,17.12,3.65v-6.888C116.501,123.265,114.279,121.465,112.268,119.454z"/>
	<path style="fill:#FFFFFF;" d="M141.978,51.244c-4.142,0-7.5-3.358-7.5-7.5v-13.5c0-4.142,3.358-7.5,7.5-7.5s7.5,3.358,7.5,7.5   v13.5C149.478,47.886,146.12,51.244,141.978,51.244z"/>
	<g>
		
			<line style="fill:none;stroke:#333333;stroke-width:15;stroke-linecap:round;stroke-linejoin:round;stroke-miterlimit:10;" x1="219.545" y1="190.379" x2="219.545" y2="190.379"/>
		
			<line style="fill:none;stroke:#333333;stroke-width:15;stroke-linecap:round;stroke-linejoin:round;stroke-miterlimit:10;" x1="246.404" y1="190.379" x2="246.404" y2="190.379"/>
	</g>
	<path style="fill:#FFFFFF;" d="M255.164,248.191c-0.733,0-1.479-0.108-2.215-0.336c-3.899-1.204-6.11-5.298-5.005-9.204   c0.048-0.272,0.309-2.025-0.147-5.827c-0.7-5.822-2.576-13.071-5.573-21.544c-1.382-3.905,0.664-8.19,4.568-9.572   c3.905-1.382,8.191,0.664,9.572,4.569c3.365,9.511,5.493,17.84,6.325,24.757c0.805,6.701,0.119,10.312-0.361,11.868   C261.333,246.123,258.367,248.191,255.164,248.191z M247.996,238.477c-0.009,0.028-0.024,0.072-0.04,0.134   C247.968,238.566,247.982,238.521,247.996,238.477z"/>
	<path style="fill:#FFFFFF;" d="M285.898,442.954c-4.142,0-7.5-3.358-7.5-7.5s3.358-7.5,7.5-7.5c1.4,0,2.54-1.135,2.54-2.53   c0-0.864-0.416-1.461-0.764-1.81c-2.927-2.931-2.924-7.68,0.007-10.607c2.931-2.927,7.68-2.924,10.606,0.007   c1.924,1.926,5.15,6.099,5.15,12.409C303.438,435.09,295.569,442.954,285.898,442.954z"/>
	<path style="fill:#FFFFFF;" d="M365.948,97.334c-4.142,0-7.5-3.358-7.5-7.5c0-14.459-5.831-27.887-16.419-37.81   c-3.022-2.833-3.176-7.579-0.344-10.601c2.831-3.023,7.578-3.176,10.601-0.344c13.449,12.604,21.163,30.375,21.163,48.755   C373.448,93.976,370.09,97.334,365.948,97.334z"/>
	<g>
		<path style="fill:#333333;" d="M396.447,89.833C396.447,40.299,356.148,0,306.614,0h-1.444c-4.142,0-7.5,3.358-7.5,7.5v82.333    c0,27.233,22.156,49.389,49.389,49.389c3.83,0,7.554-0.453,11.135-1.282c4.497,29.796,4.06,51.285,3.567,60.083    c-3.43,1.305-8.842,3.292-15.847,5.642c-8.947-22.655-19.671-41.594-29.567-56.398c-24.599-36.8-49.004-56.328-50.032-57.142    c-2.985-2.364-7.267-2.116-9.959,0.576l-23.381,23.381l-23.381-23.381c-2.692-2.692-6.976-2.94-9.959-0.576    c-1.027,0.813-25.433,20.342-50.032,57.142c-9.895,14.803-20.619,33.741-29.566,56.394c-7.008-2.351-12.423-4.338-15.855-5.642    c-0.501-8.775-0.945-30.181,3.573-60.079c3.582,0.829,7.306,1.282,11.137,1.282c27.233,0,49.389-22.156,49.389-49.389V7.5    c0-4.142-3.358-7.5-7.5-7.5h-1.444c-49.534,0-89.833,40.299-89.833,89.833c0,17.944,9.621,33.68,23.974,42.329    c-6.988,43.517-3.996,70.801-3.86,71.985c0.312,2.707,2.067,5.032,4.586,6.073c0.689,0.285,8.195,3.36,20.679,7.565    c-8.865,26.327-14.996,56.97-14.996,91.412c0,4.142,3.358,7.5,7.5,7.5s7.5-3.358,7.5-7.5c0-32.724,5.849-61.835,14.285-86.829    c13.901,4.248,31.248,8.944,50.786,12.937c-0.126,4.924,0.321,9.327,1.347,13.198v34.309l-18.458-10.844    c-2.944-1.73-6.688-1.251-9.102,1.164l-14.549,14.548c-2.929,2.929-2.929,7.678,0,10.607c2.928,2.929,7.677,2.929,10.606,0    l10.448-10.447l21.055,12.369v18.332l-18.458-10.844c-2.944-1.73-6.688-1.251-9.102,1.164l-14.549,14.548    c-2.929,2.929-2.929,7.678,0,10.607c2.928,2.929,7.677,2.929,10.606,0l10.448-10.447l21.055,12.369v18.332l-18.458-10.844    c-2.944-1.73-6.688-1.252-9.102,1.164l-14.549,14.548c-2.929,2.929-2.929,7.678,0,10.607c2.928,2.929,7.677,2.929,10.606,0    l10.448-10.447l21.055,12.369v13.219h-1.251c-10.822,0-21,4.218-28.659,11.877s-11.877,17.837-11.877,28.659    c0,22.346,18.185,40.525,40.537,40.525h105.847c22.352,0,40.536-18.179,40.536-40.525c0-10.823-4.218-21-11.877-28.659    c-7.659-7.659-17.837-11.877-28.659-11.877h-1.252v-13.219l21.056-12.37l10.447,10.447c2.928,2.929,7.677,2.929,10.606,0    c2.929-2.929,2.929-7.677,0-10.606l-14.548-14.549c-2.416-2.416-6.158-2.894-9.102-1.164l-18.459,10.844l0-18.332l21.056-12.37    l10.447,10.447c2.928,2.929,7.677,2.929,10.606,0c2.929-2.929,2.929-7.677,0-10.606l-14.548-14.549    c-2.416-2.416-6.158-2.894-9.102-1.164l-18.459,10.844v-18.332l21.056-12.369l10.447,10.447c2.928,2.929,7.677,2.929,10.606,0    c2.929-2.929,2.929-7.677,0-10.606l-14.548-14.549c-2.416-2.416-6.158-2.894-9.102-1.164l-18.459,10.844v-22.008h0v-12.298    c1.027-3.872,1.474-8.276,1.348-13.201c19.539-3.993,36.887-8.69,50.788-12.938c8.44,25.005,14.283,54.114,14.283,86.83    c0,4.142,3.358,7.5,7.5,7.5s7.5-3.358,7.5-7.5c0-34.442-6.131-65.085-14.996-91.412c12.484-4.205,19.99-7.28,20.679-7.565    c2.519-1.041,4.274-3.366,4.586-6.073c0.137-1.185,3.128-28.469-3.86-71.985C386.826,123.513,396.447,107.777,396.447,89.833z     M126.391,123.389v-10.686c0-18.555,10.678-34.941,26.889-42.636v19.767C153.28,106.219,141.757,119.956,126.391,123.389z     M153.28,15.243v38.653c-24.937,8.584-41.889,31.972-41.889,58.807v10.686c-15.366-3.433-26.889-17.17-26.889-33.555    C84.502,50.607,114.836,18.334,153.28,15.243z M196.303,316.141c4.592,2.742,9.954,4.323,15.68,4.323h41.984    c5.726,0,11.087-1.581,15.679-4.323v12.449c-0.005,8.641-7.036,15.67-15.679,15.67h-41.984c-8.646,0-15.68-7.034-15.68-15.68    V316.141z M269.646,289.794c-0.005,8.641-7.036,15.67-15.679,15.67h-41.984c-8.646,0-15.68-7.034-15.68-15.68v-16.313    c3.331,2.97,7.015,5.215,11.047,6.707c10.562,3.909,20.5,1.403,25.624-0.514c3.146,1.177,8.105,2.576,13.912,2.576    c3.649,0,7.635-0.553,11.712-2.062c4.032-1.492,7.716-3.737,11.047-6.707V289.794z M196.303,354.937    c4.592,2.742,9.954,4.323,15.68,4.323h41.984c5.726,0,11.087-1.581,15.679-4.323v12.449c-0.005,8.641-7.036,15.67-15.679,15.67    h-41.984c-8.646,0-15.68-7.034-15.68-15.68V354.937z M269.608,246.354c-4,10.547-9.412,17.177-16.083,19.706    c-8.395,3.185-16.755-1.042-17.004-1.171c-2.23-1.197-4.915-1.189-7.138,0.024c-0.082,0.044-8.345,4.335-16.827,1.196    c-6.732-2.491-12.188-9.138-16.215-19.756c-2.618-6.902-3.936-25.055,16.655-69.079c7.093-15.165,14.792-29.05,20.021-38.058    C253.312,173.868,277.307,226.057,269.608,246.354z M134.368,208.24c8.337-20.894,18.238-38.416,27.392-52.167    c16.889-25.372,33.964-42.335,42.17-49.82l19.565,19.565c-4.925,8.21-14.838,25.35-24.024,44.969    c-9.025,19.276-14.925,35.832-17.696,49.581C163.724,216.628,147.513,212.239,134.368,208.24z M154.515,425.425    c0-6.815,2.658-13.227,7.484-18.053c4.826-4.826,11.237-7.484,18.053-7.484h1.284c0.335,11.483,6.277,21.894,16.069,27.996    c0.072,0.045,0.146,0.089,0.219,0.131c5.531,3.544,8.826,9.565,8.826,16.155v6.78h-26.398    C165.97,450.95,154.515,439.499,154.515,425.425z M232.975,450.95h-11.525v-6.78c0-11.886-6.019-22.733-16.101-29.016    c-0.072-0.045-0.146-0.089-0.219-0.131c-5.532-3.544-8.827-9.565-8.827-16.155v-5.135c4.592,2.742,9.954,4.323,15.68,4.323h41.984    c5.726,0,11.087-1.581,15.679-4.323v5.134c0,6.59-3.294,12.61-8.825,16.154c-0.074,0.043-0.147,0.087-0.22,0.132    c-10.082,6.283-16.101,17.13-16.101,29.016v6.78H232.975z M303.951,407.372c4.826,4.826,7.483,11.237,7.483,18.053    c0,14.075-11.456,25.525-25.536,25.525H259.5v-6.78c0-6.589,3.295-12.61,8.826-16.154c0.074-0.043,0.147-0.087,0.22-0.132    c9.791-6.102,15.733-16.513,16.068-27.996h1.284C292.713,399.888,299.125,402.546,303.951,407.372z M284.174,220.368    c-2.771-13.749-8.672-30.305-17.696-49.581c-9.185-19.619-19.099-36.76-24.024-44.969l19.571-19.571    c8.14,7.412,25.006,24.155,41.853,49.357c9.263,13.858,19.288,31.538,27.708,52.64    C318.449,212.239,302.242,216.626,284.174,220.368z M312.669,89.833V70.067c16.211,7.695,26.889,24.081,26.889,42.636v10.686    C324.193,119.956,312.669,106.219,312.669,89.833z M354.559,123.389v-10.686c0-26.835-16.952-50.224-41.889-58.807V15.243    c38.444,3.092,68.778,35.365,68.778,74.591C381.447,106.219,369.925,119.956,354.559,123.389z"/>
		<circle style="fill:#333333;" cx="219.548" cy="190.381" r="7.5"/>
		<circle style="fill:#333333;" cx="246.408" cy="190.381" r="7.5"/>
	</g>
	<circle style="fill:#FFFFFF;" cx="256.082" cy="332.244" r="7.5"/>
	<circle style="fill:#FFFFFF;" cx="256.082" cy="371.287" r="7.5"/>
	<circle style="fill:#FFFFFF;" cx="256.082" cy="293.649" r="7.5"/>
	<circle style="fill:#FFFFFF;" cx="232.855" cy="171.761" r="7.5"/>
	<circle style="fill:#FFFFFF;" cx="328.168" cy="34.554" r="7.5"/>
</g>















</svg>
