<?xml version="1.0" encoding="iso-8859-1"?>
<!-- Generator: Adobe Illustrator 19.0.0, SVG Export Plug-In . SVG Version: 6.00 Build 0)  -->
<svg xmlns="http://www.w3.org/2000/svg" xmlns:xlink="http://www.w3.org/1999/xlink" version="1.1" id="Layer_1" x="0px" y="0px" viewBox="0 0 449.181 449.181" style="enable-background:new 0 0 449.181 449.181;" xml:space="preserve" width="512" height="512">
<g>
	<path style="fill:#F7B239;" d="M237.094,297.009v144.67h-25v-144.67c4.12,0.35,8.29,0.53,12.5,0.53   S232.974,297.359,237.094,297.009z"/>
	<path style="fill:#F95428;" d="M224.594,7.499c80.09,0,145.02,64.93,145.02,145.02c0,75.88-58.28,138.15-132.52,144.49   c-4.12,0.35-8.29,0.53-12.5,0.53s-8.38-0.18-12.5-0.53c-74.25-6.34-132.52-68.61-132.52-144.49   C79.574,72.429,144.493,7.499,224.594,7.499z M319.053,152.519c0-52.17-42.29-94.46-94.46-94.46s-94.47,42.29-94.47,94.46   s42.3,94.46,94.47,94.46S319.053,204.689,319.053,152.519z"/>
	<path style="fill:#E09B2D;" d="M224.594,297.539c-4.21,0-8.38-0.18-12.5-0.53v23c4.12,0.35,8.29,0.53,12.5,0.53   s8.38-0.18,12.5-0.53v-23C232.974,297.359,228.804,297.539,224.594,297.539z"/>
	<path style="fill:#E6E6E6;" d="M224.594,58.059c52.17,0,94.46,42.29,94.46,94.46s-42.29,94.46-94.46,94.46   s-94.47-42.29-94.47-94.46S172.424,58.059,224.594,58.059z M267.104,152.519c0-23.48-19.03-42.52-42.51-42.52   c-23.49,0-42.52,19.04-42.52,42.52s19.03,42.52,42.52,42.52C248.074,195.039,267.104,175.999,267.104,152.519z"/>
	<path style="fill:#9AD14B;" d="M224.594,109.999c23.48,0,42.51,19.04,42.51,42.52s-19.03,42.52-42.51,42.52   c-23.49,0-42.52-19.04-42.52-42.52S201.104,109.999,224.594,109.999z"/>
	<path style="fill:#FFFFFF;" d="M314.289,242.744c-1.819,0-3.642-0.657-5.084-1.988c-3.044-2.809-3.234-7.554-0.425-10.598   c19.562-21.198,30.334-48.77,30.334-77.638c0-51.874-35.02-97.398-85.162-110.708c-4.003-1.063-6.387-5.169-5.325-9.173   c1.063-4.003,5.173-6.386,9.173-5.325c56.708,15.052,96.314,66.538,96.314,125.206c0,32.649-12.185,63.834-34.311,87.811   C318.324,241.932,316.309,242.744,314.289,242.744z"/>
	<circle style="fill:#FFFFFF;" cx="225.307" cy="30.677" r="7.5"/>
	<g>
		<path style="fill:#333333;" d="M377.112,152.521C377.112,68.42,308.691,0,224.591,0S72.069,68.42,72.069,152.521    c0,77.323,57.84,141.386,132.524,151.21v137.95c0,4.142,3.358,7.5,7.5,7.5h25c4.142,0,7.5-3.358,7.5-7.5V303.73    C319.275,293.903,377.112,229.842,377.112,152.521z M229.594,434.181h-10V304.952c1.66,0.054,3.324,0.091,4.997,0.091    c1.675,0,3.341-0.037,5.003-0.091V434.181z M224.591,290.042c-75.83,0-137.521-61.692-137.521-137.521    C87.069,76.692,148.761,15,224.591,15c75.829,0,137.521,61.692,137.521,137.521C362.112,228.351,300.42,290.042,224.591,290.042z"/>
		<path style="fill:#333333;" d="M224.591,50.558c-56.223,0-101.963,45.74-101.963,101.963s45.741,101.963,101.963,101.963    s101.963-45.741,101.963-101.963S280.813,50.558,224.591,50.558z M224.591,239.484c-47.952,0-86.963-39.012-86.963-86.963    s39.012-86.963,86.963-86.963s86.963,39.011,86.963,86.963S272.542,239.484,224.591,239.484z"/>
		<path style="fill:#333333;" d="M224.591,102.503c-27.58,0-50.018,22.438-50.018,50.018c0,27.58,22.438,50.018,50.018,50.018    c27.58,0,50.018-22.438,50.018-50.018C274.608,124.941,252.17,102.503,224.591,102.503z M224.591,187.539    c-19.309,0-35.018-15.709-35.018-35.018c0-19.309,15.709-35.018,35.018-35.018c19.309,0,35.018,15.709,35.018,35.018    C259.608,171.83,243.899,187.539,224.591,187.539z"/>
	</g>
</g>















</svg>
