<?xml version="1.0" encoding="iso-8859-1"?>
<!-- Generator: Adobe Illustrator 19.0.0, SVG Export Plug-In . SVG Version: 6.00 Build 0)  -->
<svg xmlns="http://www.w3.org/2000/svg" xmlns:xlink="http://www.w3.org/1999/xlink" version="1.1" id="Layer_1" x="0px" y="0px" viewBox="0 0 444.38 444.38" style="enable-background:new 0 0 444.38 444.38;" xml:space="preserve" width="512" height="512">
<g>
	<path style="fill:#F7B239;" d="M234.693,220.239v216.64h-25v-216.64c4.1,0.48,8.27,0.73,12.5,0.73S230.593,220.719,234.693,220.239   z"/>
	<path style="fill:#F95428;" d="M118.653,140.239h207.08c-10.63,42.45-46.69,74.83-91.04,80c-4.1,0.48-8.27,0.73-12.5,0.73   s-8.4-0.25-12.5-0.73C165.333,215.069,129.273,182.689,118.653,140.239z"/>
	<path style="fill:#E09B2D;" d="M234.693,220.239v26c-4.1,0.48-8.27,0.73-12.5,0.73s-8.4-0.25-12.5-0.73v-26   c4.1,0.48,8.27,0.73,12.5,0.73S230.593,220.719,234.693,220.239z"/>
	<path style="fill:#F95428;" d="M325.733,140.239h-207.08h-0.49c-7.16,0-12.97-5.81-12.97-12.98v-26.05   c0-7.17,5.81-12.97,12.97-12.97h0.5h207.06h0.49c7.17,0,12.98,5.8,12.98,12.97v26.05c0,7.17-5.81,12.98-12.98,12.98H325.733z"/>
	<path style="fill:#F95428;" d="M325.723,88.229v0.01h-207.06v-0.01c11.6-46.38,53.55-80.73,103.53-80.73   C272.163,7.499,314.123,41.849,325.723,88.229z"/>
	<path style="fill:#E54728;" d="M178.65,140.239h-59.997c10.62,42.45,46.68,74.83,91.04,80c4.1,0.48,8.27,0.73,12.5,0.73   s8.4-0.25,12.5-0.73c6-0.699,11.842-1.913,17.497-3.566C216.045,206.107,187.833,176.946,178.65,140.239z"/>
	<path style="fill:#E54728;" d="M188.244,127.259v-26.05c0-7.17,10.267-12.97,22.919-12.97h-82.168h-0.884   c-12.652,0-22.919,5.8-22.919,12.97v26.05c0,7.17,10.267,12.98,22.919,12.98h0.866h82.186   C198.511,140.239,188.244,134.429,188.244,127.259z"/>
	<path style="fill:#E54728;" d="M252.189,11.794c-9.519-2.783-19.58-4.295-29.997-4.295c-49.98,0-91.93,34.35-103.53,80.73v0.01   h59.997v-0.01C187.842,51.518,216.046,22.363,252.189,11.794z"/>
	<path style="fill:#FFFFFF;" d="M290.763,73.565c-2.362,0-4.687-1.113-6.146-3.193c-6.811-9.708-15.95-17.797-26.432-23.395   c-3.653-1.951-5.034-6.495-3.083-10.149c1.951-3.653,6.493-5.035,10.149-3.083c12.546,6.7,23.489,16.386,31.645,28.011   c2.379,3.391,1.559,8.068-1.832,10.447C293.753,73.123,292.25,73.565,290.763,73.565z"/>
	<path style="fill:#FFFFFF;" d="M249.258,200.979c-3.115,0-6.024-1.956-7.093-5.067c-1.345-3.918,0.741-8.184,4.659-9.529   c14.904-5.116,28.195-15.025,37.424-27.902c2.413-3.367,7.1-4.139,10.465-1.727c3.366,2.413,4.14,7.098,1.727,10.465   c-11.027,15.388-26.919,27.232-44.746,33.351C250.888,200.848,250.066,200.979,249.258,200.979z"/>
	<path style="fill:#FFFFFF;" d="M316.193,128.959c-4.143,0-7.5-3.358-7.5-7.5v-13c0-4.142,3.357-7.5,7.5-7.5s7.5,3.358,7.5,7.5v13   C323.693,125.601,320.335,128.959,316.193,128.959z"/>
	<circle style="fill:#FFFFFF;" cx="239.439" cy="32.275" r="7.5"/>
	<path style="fill:#333333;" d="M331.647,81.489C317.294,33.258,272.998,0,222.193,0c-50.804,0-95.1,33.257-109.454,81.487   C104.078,83.874,97.69,91.8,97.69,101.209v26.05c0,9.406,6.384,17.33,15.04,19.72c12.436,41.774,47.332,72.304,89.463,79.734   V436.88c0,4.142,3.357,7.5,7.5,7.5h25c4.143,0,7.5-3.358,7.5-7.5V226.712c42.123-7.431,77.019-37.961,89.461-79.734   c8.654-2.391,15.036-10.314,15.036-19.718v-26.05C346.69,91.803,340.305,83.878,331.647,81.489z M118.165,132.734   c-3.019,0-5.475-2.456-5.475-5.475v-26.05c0-3.019,2.456-5.475,5.475-5.475h208.05c3.02,0,5.476,2.456,5.476,5.475v26.05   c0,3.019-2.456,5.475-5.476,5.475H118.165z M222.193,15c42.339,0,79.458,26.589,93.418,65.734H128.775   C142.734,41.589,179.854,15,222.193,15z M227.193,429.38h-10V228.36c1.659,0.072,3.326,0.11,5,0.11c1.674,0,3.341-0.038,5-0.11   V429.38z M222.193,213.47c-42.341,0-79.462-26.59-93.424-65.736h186.846C301.644,186.88,264.524,213.47,222.193,213.47z"/>
</g>















</svg>
