<?xml version="1.0" encoding="iso-8859-1"?>
<!-- Generator: Adobe Illustrator 19.0.0, SVG Export Plug-In . SVG Version: 6.00 Build 0)  -->
<svg xmlns="http://www.w3.org/2000/svg" xmlns:xlink="http://www.w3.org/1999/xlink" version="1.1" id="Layer_1" x="0px" y="0px" viewBox="0 0 375.336 375.336" style="enable-background:new 0 0 375.336 375.336;" xml:space="preserve" width="512" height="512">
<g>
	<polygon style="fill:#F95428;" points="208.651,244.001 208.651,283.331 166.681,283.331 144.621,283.331 29.561,283.331    29.561,244.001 144.621,244.001 166.681,244.001  "/>
	<path style="fill:#9AD14B;" d="M230.721,283.331v18.61c0,20.84-16.89,37.73-37.73,37.73h-10.65H45.221   c-20.83,0-37.72-16.89-37.72-37.73v-18.61h22.06h115.06h22.06h41.97H230.721z"/>
	<path style="fill:#9AD14B;" d="M230.721,225.391v18.61h-22.07h-41.97h-22.06H29.561H7.501v-18.61c0-20.83,16.89-37.72,37.72-37.72   h89.03h48.09h10.65C213.831,187.671,230.721,204.561,230.721,225.391z"/>
	<rect x="118.591" y="92.001" style="fill:#B27214;" width="179.09" height="39.33"/>
	<path style="fill:#E56AB4;" d="M319.751,73.391v18.61h-22.07h-179.09h-22.06v-18.61c0-20.83,16.89-37.72,37.72-37.72h147.77   C302.851,35.671,319.751,52.561,319.751,73.391z"/>
	<path style="fill:#E56AB4;" d="M319.751,131.331v18.61c0,20.84-16.9,37.73-37.73,37.73h-89.03h-10.65h-48.09   c-20.83,0-37.72-16.89-37.72-37.73v-18.61h22.06h179.09H319.751z"/>
	<polygon style="fill:#F7B239;" points="345.771,244.001 345.771,283.331 230.721,283.331 208.651,283.331 208.651,244.001    230.721,244.001  "/>
	<path style="fill:#2BA5F7;" d="M367.831,283.331v18.61c0,20.84-16.89,37.729-37.72,37.729h-137.12c8.38,0,16.11-2.729,22.37-7.34   c9.32-6.88,15.36-17.93,15.36-30.39v-18.61H367.831z"/>
	<path style="fill:#2BA5F7;" d="M367.831,225.392v18.609h-137.11v-18.609c0-12.46-6.04-23.5-15.36-30.38   c-6.26-4.61-13.99-7.341-22.37-7.341h137.12C350.941,187.671,367.831,204.562,367.831,225.392z"/>
	<g>
		<path style="fill:#90BC42;" d="M90.221,339.671h-45c-20.83,0-37.72-16.89-37.72-37.729v-18.61h45v18.61    C52.501,322.781,69.391,339.671,90.221,339.671z"/>
		<path style="fill:#90BC42;" d="M90.221,187.671c-20.83,0-37.72,16.891-37.72,37.721v18.609h-45v-18.609    c0-20.83,16.89-37.721,37.72-37.721H90.221z"/>
		<rect x="31.671" y="244.571" style="fill:#E54728;" width="35" height="40"/>
	</g>
	<g>
		<path style="fill:#BC3987;" d="M179.251,187.671h-45c-20.83,0-37.72-16.89-37.72-37.729v-18.61h45v18.61    C141.531,170.782,158.421,187.671,179.251,187.671z"/>
		<path style="fill:#BC3987;" d="M179.251,35.671c-20.83,0-37.72,16.891-37.72,37.721v18.609h-45V73.392    c0-20.83,16.89-37.721,37.72-37.721H179.251z"/>
		<rect x="120.701" y="92.572" style="fill:#995C0D;" width="35" height="40"/>
	</g>
	<g>
		<path style="fill:#2197D8;" d="M282.721,339.671h-45c-8.36,0-16.1-2.72-22.36-7.34c9.32-6.88,15.36-17.93,15.36-30.39v-17.37    h-22.55v-1.24h36.83v18.61C245.001,322.781,261.891,339.671,282.721,339.671z"/>
		<path style="fill:#2197D8;" d="M282.721,187.671c-20.83,0-37.72,16.891-37.72,37.721v18.609h-14.28v-18.609    c0-12.46-6.04-23.5-15.36-30.38c6.26-4.62,14-7.341,22.36-7.341H282.721z"/>
		<rect x="210.171" y="244.571" style="fill:#E09B2D;" width="33" height="40"/>
	</g>
	<g>
		<path style="fill:#FFFFFF;" d="M282.021,172.171c-4.143,0-7.5-3.357-7.5-7.5s3.357-7.5,7.5-7.5c3.987,0,7.23-3.243,7.23-7.229    c0-4.143,3.357-7.5,7.5-7.5s7.5,3.357,7.5,7.5C304.251,162.199,294.278,172.171,282.021,172.171z"/>
		<path style="fill:#FFFFFF;" d="M296.751,80.892c-4.143,0-7.5-3.357-7.5-7.5c0-3.981-3.243-7.221-7.23-7.221    c-4.143,0-7.5-3.357-7.5-7.5s3.357-7.5,7.5-7.5c12.258,0,22.23,9.968,22.23,22.221C304.251,77.534,300.894,80.892,296.751,80.892z    "/>
		<path style="fill:#FFFFFF;" d="M277.004,122.166c-4.143,0-7.5-3.357-7.5-7.5v-6c0-4.143,3.357-7.5,7.5-7.5s7.5,3.357,7.5,7.5v6    C284.504,118.809,281.146,122.166,277.004,122.166z"/>
	</g>
	<g>
		<path style="fill:#FFFFFF;" d="M333.021,324.166c-4.143,0-7.5-3.357-7.5-7.5s3.357-7.5,7.5-7.5c3.987,0,7.23-3.243,7.23-7.229    c0-4.143,3.357-7.5,7.5-7.5s7.5,3.357,7.5,7.5C355.251,314.194,345.278,324.166,333.021,324.166z"/>
		<path style="fill:#FFFFFF;" d="M347.751,232.887c-4.143,0-7.5-3.357-7.5-7.5c0-3.981-3.243-7.221-7.23-7.221    c-4.143,0-7.5-3.357-7.5-7.5s3.357-7.5,7.5-7.5c12.258,0,22.23,9.968,22.23,22.221    C355.251,229.529,351.894,232.887,347.751,232.887z"/>
		<path style="fill:#FFFFFF;" d="M328.004,274.162c-4.143,0-7.5-3.357-7.5-7.5v-6c0-4.143,3.357-7.5,7.5-7.5s7.5,3.357,7.5,7.5v6    C335.504,270.805,332.146,274.162,328.004,274.162z"/>
	</g>
	<g>
		<path style="fill:#FFFFFF;" d="M190.021,324.166c-4.142,0-7.5-3.357-7.5-7.5s3.358-7.5,7.5-7.5c3.987,0,7.23-3.243,7.23-7.229    c0-4.143,3.357-7.5,7.5-7.5s7.5,3.357,7.5,7.5C212.251,314.194,202.278,324.166,190.021,324.166z"/>
		<path style="fill:#FFFFFF;" d="M204.751,232.887c-4.143,0-7.5-3.357-7.5-7.5c0-3.981-3.243-7.221-7.23-7.221    c-4.142,0-7.5-3.357-7.5-7.5s3.358-7.5,7.5-7.5c12.258,0,22.23,9.968,22.23,22.221    C212.251,229.529,208.894,232.887,204.751,232.887z"/>
		<path style="fill:#FFFFFF;" d="M185.004,274.162c-4.142,0-7.5-3.357-7.5-7.5v-6c0-4.143,3.358-7.5,7.5-7.5s7.5,3.357,7.5,7.5v6    C192.505,270.805,189.146,274.162,185.004,274.162z"/>
	</g>
	<path style="fill:#333333;" d="M367.836,251.503c4.143,0,7.5-3.357,7.5-7.5v-18.611c0-24.937-20.287-45.224-45.224-45.224h-14.484   c7.217-8.017,11.618-18.616,11.618-30.227v-18.609c0-4.143-3.357-7.5-7.5-7.5h-14.564V99.503h14.564c4.143,0,7.5-3.357,7.5-7.5   V73.394c0-24.938-20.288-45.226-45.227-45.226H134.255c-24.938,0-45.226,20.288-45.226,45.226v18.609c0,4.143,3.358,7.5,7.5,7.5   h14.564v24.329H96.529c-4.142,0-7.5,3.357-7.5,7.5v18.609c0,11.61,4.401,22.21,11.618,30.227H45.226   C20.289,180.168,0,200.456,0,225.394v18.609c0,4.143,3.358,7.5,7.5,7.5h14.564v24.329H7.5c-4.142,0-7.5,3.357-7.5,7.5v18.609   c0,24.938,20.289,45.227,45.226,45.227h284.886c24.937,0,45.224-20.287,45.224-45.224v-18.612c0-4.143-3.357-7.5-7.5-7.5h-14.567   v-24.329H367.836z M360.336,225.392v11.111h-14.567H238.217v-11.109c0-11.61-4.401-22.209-11.618-30.226h55.421h48.093   C346.777,195.168,360.336,208.727,360.336,225.392z M104.029,73.394c0-16.666,13.56-30.226,30.226-30.226H282.02   c16.667,0,30.227,13.56,30.227,30.226v11.109h-14.564H118.593h-14.564V73.394z M126.093,99.503h164.088v24.329H126.093V99.503z    M104.029,149.941v-11.109h14.564h179.088h14.564v11.109c0,16.667-13.56,30.227-30.227,30.227H134.255   C117.589,180.168,104.029,166.608,104.029,149.941z M15,225.394c0-16.666,13.56-30.226,30.226-30.226h89.029h48.087h10.648   c16.667,0,30.227,13.56,30.227,30.226v11.109h-14.564h-41.967h-22.067H29.564H15V225.394z M37.064,251.503h107.555h22.067h34.467   v24.329h-34.467h-22.067H37.064V251.503z M182.342,332.168H45.226C28.56,332.168,15,318.608,15,301.941v-11.109h14.564h115.055   h22.067h41.967h14.564v11.109c0,16.667-13.56,30.227-30.227,30.227H182.342z M360.336,301.944   c0,16.665-13.559,30.224-30.224,30.224H226.599c7.217-8.017,11.618-18.616,11.618-30.227v-11.109h107.552h14.567V301.944z    M338.269,275.832H230.717h-14.564v-24.329h14.564h107.552V275.832z"/>
</g>















</svg>
