<?xml version="1.0" encoding="iso-8859-1"?>
<!-- Generator: Adobe Illustrator 19.0.0, SVG Export Plug-In . SVG Version: 6.00 Build 0)  -->
<svg xmlns="http://www.w3.org/2000/svg" xmlns:xlink="http://www.w3.org/1999/xlink" version="1.1" id="Layer_1" x="0px" y="0px" viewBox="0 0 344.447 344.447" style="enable-background:new 0 0 344.447 344.447;" xml:space="preserve" width="512" height="512">
<g>
	<path style="fill:#666666;" d="M336.947,55.537v233.38c0,26.41-21.61,48.03-48.03,48.03H55.537c-26.42,0-48.04-21.62-48.04-48.03   V55.537c0-26.42,21.62-48.04,48.04-48.04h233.38C315.337,7.497,336.947,29.117,336.947,55.537z M309.447,288.917V55.537   c0-11.32-9.21-20.53-20.53-20.53H55.537c-11.32,0-20.53,9.21-20.53,20.53v233.38c0,11.32,9.21,20.53,20.53,20.53h233.38   C300.237,309.447,309.447,300.237,309.447,288.917z"/>
	<path style="fill:#F2F2F2;" d="M309.447,55.537v233.38c0,11.32-9.21,20.53-20.53,20.53H55.537c-11.32,0-20.53-9.21-20.53-20.53   V55.537c0-11.32,9.21-20.53,20.53-20.53h233.38C300.237,35.007,309.447,44.217,309.447,55.537z M223.597,223.597   c18.93-18.93,25.23-45.72,18.89-69.88c-3.15-12.04-9.45-23.43-18.89-32.87c-0.91-0.91-1.84-1.79-2.78-2.64   c-11.29-10.17-25-16.18-39.15-18.02c-21.6-2.82-44.22,4.07-60.82,20.66c-16.59,16.6-23.48,39.22-20.66,60.82   c1.84,14.15,7.85,27.86,18.02,39.15c0.85,0.94,1.73,1.87,2.64,2.78c9.44,9.44,20.83,15.74,32.87,18.89   C177.877,248.827,204.667,242.527,223.597,223.597z"/>
	<path style="fill:#F95428;" d="M242.487,153.717c6.34,24.16,0.04,50.95-18.89,69.88s-45.72,25.23-69.88,18.89L242.487,153.717z"/>
	<path style="fill:#F95428;" d="M242.487,153.717l-88.77,88.77c-12.04-3.15-23.43-9.45-32.87-18.89c-0.91-0.91-1.79-1.84-2.64-2.78   l0.01-0.01l102.59-102.59l0.01-0.01c0.94,0.85,1.87,1.73,2.78,2.64C233.037,130.287,239.337,141.677,242.487,153.717z"/>
	<path style="fill:#F95428;" d="M220.817,118.207l-0.01,0.01l-102.59,102.59l-0.01,0.01c-10.17-11.29-16.18-25-18.02-39.15   l81.48-81.47v-0.01C195.817,102.027,209.527,108.037,220.817,118.207z"/>
	<path style="fill:#F95428;" d="M181.667,100.187v0.01l-81.48,81.47c-2.82-21.6,4.07-44.22,20.66-60.82   C137.447,104.257,160.067,97.367,181.667,100.187z"/>
	<path style="fill:#FFFFFF;" d="M286.446,272.986c-4.143,0-7.5-3.357-7.5-7.5V82.496c0-4.143,3.357-7.5,7.5-7.5s7.5,3.357,7.5,7.5   v182.99C293.946,269.629,290.589,272.986,286.446,272.986z"/>
	<g>
		<path style="fill:#333333;" d="M288.913,0H55.533C24.912,0,0,24.912,0,55.533v233.38c0,30.622,24.912,55.534,55.533,55.534h233.38    c30.622,0,55.534-24.912,55.534-55.534V55.533C344.447,24.912,319.535,0,288.913,0z M329.447,288.913    c0,22.351-18.184,40.534-40.534,40.534H55.533C33.183,329.447,15,311.264,15,288.913V55.533C15,33.183,33.183,15,55.533,15h233.38    c22.351,0,40.534,18.183,40.534,40.533V288.913z"/>
		<path style="fill:#333333;" d="M288.913,27.504H55.533c-15.455,0-28.029,12.574-28.029,28.03v233.379    c0,15.456,12.574,28.03,28.029,28.03h233.38c15.456,0,28.03-12.574,28.03-28.03V55.534    C316.943,40.078,304.369,27.504,288.913,27.504z M301.943,288.913c0,7.185-5.846,13.03-13.03,13.03H55.533    c-7.185,0-13.029-5.846-13.029-13.03V55.534c0-7.185,5.845-13.03,13.029-13.03h233.38c7.185,0,13.03,5.846,13.03,13.03V288.913z"/>
		<path style="fill:#333333;" d="M115.547,115.548c-31.25,31.251-31.25,82.101,0,113.352v0.001    c15.626,15.625,36.151,23.438,56.677,23.438c20.524,0,41.051-7.813,56.677-23.438c31.25-31.251,31.25-82.101-0.001-113.353    C197.647,84.297,146.799,84.296,115.547,115.548z M184.246,108.221c8.939,1.666,17.586,5.215,25.319,10.63l-90.714,90.714    c-5.415-7.732-8.964-16.381-10.63-25.319L184.246,108.221z M220.808,128.822c6.075,6.792,10.465,14.563,13.192,22.772L151.594,234    c-8.209-2.727-15.979-7.118-22.771-13.192L220.808,128.822z M126.154,126.154c10.498-10.498,23.718-16.644,37.408-18.465    l-55.874,55.873C109.51,149.872,115.657,136.652,126.154,126.154z M218.294,218.293c-13.387,13.387-31.196,19.71-48.767,18.988    l67.754-67.753C238.002,187.099,231.679,204.907,218.294,218.293z"/>
	</g>
	<circle style="fill:#FFFFFF;" cx="286.446" cy="58.007" r="7.5"/>
	<path style="fill:#FFFFFF;" d="M207.333,214.833c-1.92,0-3.839-0.732-5.304-2.197c-2.929-2.929-2.929-7.678,0.001-10.606   c10.555-10.554,14.751-26.106,10.95-40.589c-1.872-7.157-5.659-13.735-10.951-19.028c-0.518-0.518-1.076-1.047-1.638-1.554   c-6.344-5.715-14.187-9.324-22.669-10.428c-1.821-0.238-3.673-0.358-5.508-0.358c-4.143,0-7.5-3.357-7.5-7.5s3.357-7.5,7.5-7.5   c2.481,0,4.987,0.163,7.447,0.484c11.509,1.497,22.153,6.396,30.78,14.167c0.775,0.701,1.51,1.398,2.194,2.082   c7.173,7.175,12.31,16.107,14.854,25.833c5.146,19.613-0.545,40.689-14.855,54.998   C211.172,214.101,209.252,214.833,207.333,214.833z"/>
</g>















</svg>
