<?xml version="1.0" encoding="iso-8859-1"?>
<!-- Generator: Adobe Illustrator 19.0.0, SVG Export Plug-In . SVG Version: 6.00 Build 0)  -->
<svg xmlns="http://www.w3.org/2000/svg" xmlns:xlink="http://www.w3.org/1999/xlink" version="1.1" id="Layer_1" x="0px" y="0px" viewBox="0 0 377.561 377.561" style="enable-background:new 0 0 377.561 377.561;" xml:space="preserve" width="512" height="512">
<g>
	<path style="fill:#E09B2D;" d="M97.193,194.479l14.7,173.3c-18.44-0.22-33.91-14.06-36.12-32.41l-16.97-140.89H97.193z"/>
	<path style="fill:#E09B2D;" d="M144.563,194.479l7.1,173.3h-39.34c-0.14,0-0.29,0-0.43,0l-14.7-173.3H144.563z"/>
	<polygon style="fill:#F7B239;" points="188.783,194.479 188.783,367.779 151.663,367.779 144.563,194.479  "/>
	<path style="fill:#F7B239;" d="M318.753,194.479l-16.97,140.89c-2.2,18.35-17.68,32.19-36.12,32.41l14.71-173.3H318.753z"/>
	<polygon style="fill:#F7B239;" points="232.993,194.479 225.893,367.779 188.783,367.779 188.783,194.479  "/>
	<path style="fill:#F7B239;" d="M280.373,194.479l-14.71,173.3c-0.14,0-0.29,0-0.43,0h-39.34l7.1-173.3H280.373z"/>
	<path style="fill:#B27214;" d="M370.063,144.359c0,27.68-22.44,50.12-50.12,50.12h-1.19h-38.38h-47.38h-44.21h-44.22h-47.37h-38.39   h-1.18c-13.84,0-26.37-5.61-35.44-14.68s-14.68-21.6-14.68-35.44c0-74.33,60.25-134.58,134.58-134.58h93.4   c37.16,0,70.8,15.06,95.16,39.42C355.003,73.549,370.063,107.189,370.063,144.359z"/>
	<path style="fill:#995C0D;" d="M105.503,144.359c0-73.561,59.012-133.322,132.28-134.551c-0.766-0.013-1.531-0.029-2.3-0.029h-93.4   c-74.33,0-134.58,60.25-134.58,134.58c0,13.84,5.61,26.37,14.68,35.44c9.07,9.07,21.6,14.68,35.44,14.68h1.18h38.39h47.37h11.06   c-13.84,0-26.37-5.61-35.44-14.68C111.113,170.729,105.503,158.199,105.503,144.359z"/>
	<path style="fill:#FFFFFF;" d="M347.063,151.859c-4.143,0-7.5-3.358-7.5-7.5c0-27.805-10.827-53.941-30.485-73.592   c-13.6-13.599-30.548-23.138-49.013-27.587c-4.026-0.97-6.505-5.021-5.534-9.048c0.969-4.026,5.015-6.504,9.048-5.535   c21.151,5.096,40.552,16.01,56.104,31.563c22.492,22.483,34.88,52.387,34.88,84.2C354.563,148.501,351.206,151.859,347.063,151.859   z"/>
	<circle style="fill:#FFFFFF;" cx="235.567" cy="33.062" r="7.5"/>
	<g>
		<path style="fill:#333333;" d="M377.561,144.36c0-78.343-63.737-142.08-142.08-142.08h-93.401C63.736,2.28,0,66.017,0,144.36    c0,29.917,22.92,54.574,52.122,57.352l16.205,134.554c2.679,22.242,21.593,39.014,43.995,39.014h152.915    c22.402,0,41.316-16.772,43.995-39.014l16.206-134.554C354.64,198.934,377.561,174.277,377.561,144.36z M83.22,334.472    L67.263,201.981h23.036l13.322,156.972C92.851,355.599,84.63,346.186,83.22,334.472z M258.773,360.28h-25.064l6.486-158.299    h32.012L258.773,360.28z M218.696,360.28H196.28V201.981h28.902L218.696,360.28z M181.28,360.28h-22.416l-6.486-158.299h28.902    V360.28z M137.365,201.981l6.486,158.299h-25.064l-13.436-158.299H137.365z M294.34,334.472    c-1.41,11.713-9.631,21.127-20.401,24.481l13.323-156.972h23.035L294.34,334.472z M319.939,186.981H57.621    C34.12,186.981,15,167.861,15,144.36C15,74.288,72.008,17.28,142.079,17.28h93.401c70.072,0,127.08,57.008,127.08,127.08    C362.561,167.861,343.44,186.981,319.939,186.981z"/>
		<circle style="fill:#333333;" cx="252.783" cy="51.787" r="7.5"/>
		<circle style="fill:#333333;" cx="188.783" cy="51.787" r="7.5"/>
		<circle style="fill:#333333;" cx="124.783" cy="51.787" r="7.5"/>
		<circle style="fill:#333333;" cx="94.783" cy="95.779" r="7.5"/>
		<circle style="fill:#333333;" cx="284.783" cy="95.779" r="7.5"/>
		<circle style="fill:#333333;" cx="158.117" cy="95.779" r="7.5"/>
		<circle style="fill:#333333;" cx="221.45" cy="95.779" r="7.5"/>
	</g>
</g>















</svg>
