<?xml version="1.0" encoding="iso-8859-1"?>
<!-- Generator: Adobe Illustrator 19.0.0, SVG Export Plug-In . SVG Version: 6.00 Build 0)  -->
<svg xmlns="http://www.w3.org/2000/svg" xmlns:xlink="http://www.w3.org/1999/xlink" version="1.1" id="Layer_1" x="0px" y="0px" viewBox="0 0 431.979 431.979" style="enable-background:new 0 0 431.979 431.979;" xml:space="preserve" width="512" height="512">
<g>
	<path style="fill:#F7B239;" d="M346.483,230.993c0,6.68-3.99,13.02-11.15,18.74h-82.9c5.63-31.86-23.62-51.92-53.57-63.92   c6.56-0.38,13.28-0.57,20.13-0.57C289.403,185.243,346.483,205.723,346.483,230.993z"/>
	<path style="fill:#FFFFFF;" d="M313.396,232.967c-1.167,0-2.351-0.273-3.457-0.85c-4.975-2.59-11.125-4.983-18.277-7.114   c-0.936-0.278-1.885-0.552-2.846-0.818c-3.991-1.107-6.329-5.241-5.221-9.232c1.109-3.992,5.243-6.329,9.233-5.221   c1.052,0.292,2.091,0.591,3.116,0.896c8.064,2.402,15.103,5.156,20.922,8.186c3.674,1.913,5.102,6.441,3.189,10.115   C318.718,231.495,316.104,232.967,313.396,232.967z"/>
	<path style="fill:#E09B2D;" d="M198.863,185.813c29.95,12,59.2,32.06,53.57,63.92h-149.79c-7.16-5.72-11.15-12.06-11.15-18.74   C91.493,208.183,138.013,189.273,198.863,185.813z"/>
	<path style="fill:#666666;" d="M335.333,249.733h39.65h49.5c-28.84,48.37-81,78-137.31,78h-106.54c-33.11,0-65.42-7.1-94.95-20.4   c-29.52-13.3-56.25-32.8-78.18-57.6h70.49h24.65h149.79H335.333z"/>
	<path style="fill:#4D4D4D;" d="M192.349,307.334c-29.52-13.301-56.25-32.801-78.18-57.601h-11.527h-24.65H7.503   c21.93,24.8,48.66,44.3,78.18,57.601c29.53,13.3,61.84,20.399,94.95,20.399h106.54c0.019,0,0.038-0.001,0.057-0.001   C254.144,327.722,221.859,320.624,192.349,307.334z"/>
	<path style="fill:#4D4D4D;" d="M406.483,162.743c10.5,16.5,21,49.5-31.5,86.99h-39.65c7.16-5.72,11.15-12.06,11.15-18.74   c0-25.27-57.08-45.75-127.49-45.75c-6.85,0-13.57,0.19-20.13,0.57c-60.85,3.46-107.37,22.37-107.37,45.18   c0,6.68,3.99,13.02,11.15,18.74h-24.65c0,0-71.99-29.99-43.49-77.99c17.94-30.22,67.49-67.5,190.49-67.5   C347.983,104.243,395.983,146.243,406.483,162.743z"/>
	<g>
		<path style="fill:#666666;" d="M90.44,199.077c17.94-30.221,67.49-67.5,190.49-67.5c46.307,0,81.98,5.955,109.027,14.26    c-24.1-18.637-74.033-41.594-164.964-41.594c-123,0-172.55,37.28-190.49,67.5c-28.5,48,43.49,77.99,43.49,77.99h17.443    C84.413,236.743,78.284,219.55,90.44,199.077z"/>
	</g>
	<path style="fill:#FFFFFF;" d="M331.828,304.671c-3.104,0-6.008-1.942-7.084-5.041c-1.359-3.912,0.71-8.187,4.623-9.546   c14.945-5.192,28.685-12.967,40.836-23.108c3.18-2.653,7.91-2.228,10.563,0.952c2.654,3.18,2.228,7.909-0.952,10.563   c-13.546,11.307-28.863,19.974-45.524,25.763C333.476,304.536,332.645,304.671,331.828,304.671z"/>
	<circle style="fill:#FFFFFF;" cx="268.758" cy="212.153" r="7.5"/>
	<path style="fill:#333333;" d="M431.001,246.034c-1.333-2.347-3.823-3.796-6.521-3.796h-28.412   c37.65-35.332,27.358-66.837,16.741-83.522c-3.221-5.061-16.479-22.777-51.879-38.279c-35.898-15.721-81.635-23.691-135.939-23.691   c-56.301,0-102.61,7.753-137.64,23.043c-34.278,14.962-51.167,34.429-59.299,48.125c-7.978,13.436-9.801,26.949-5.42,40.166   c4.807,14.502,16.433,25.996,27.529,34.159H7.5c-2.95,0-5.626,1.729-6.838,4.419c-1.212,2.69-0.734,5.841,1.22,8.051   c45.272,51.176,110.423,80.526,178.748,80.526h106.547c28.925,0,57.508-7.552,82.659-21.839   c25.151-14.287,46.273-34.972,61.085-59.816C432.303,251.261,432.333,248.38,431.001,246.034z M36.868,203.359   c-2.994-9.032-1.66-18.122,4.08-27.788c14.153-23.837,56.883-63.826,184.042-63.826c52.22,0,95.932,7.547,129.922,22.432   c32.328,14.157,43.358,29.634,45.241,32.592c15.668,24.623,6.102,50.685-27.62,75.47h-21.257c2.089-4.271,2.708-8.156,2.708-11.249   c0-34.587-69.55-53.25-134.99-53.25c-65.445,0-135,18.663-135,53.25c0,3.093,0.62,6.978,2.708,11.249h-7.151   C68.667,237.387,43.256,222.631,36.868,203.359z M105.41,242.238c-3.257-2.965-6.417-6.946-6.417-11.249   c0-8.563,12.103-18.018,32.375-25.292c18.204-6.532,41.202-10.757,66.237-12.296c31.999,13.129,48.122,29.529,48.015,48.837H105.41   z M229.258,192.899c29.318,0.848,56.482,5.31,77.35,12.798c20.271,7.274,32.374,16.729,32.374,25.292   c0,4.303-3.16,8.285-6.417,11.249h-71.938C260.714,227.062,253.859,209.044,229.258,192.899z M362.427,300.353   c-22.896,13.006-48.917,19.881-75.25,19.881H180.63c-58.258,0-114.052-22.768-155.593-62.996h385.531   C397.82,274.831,381.38,289.587,362.427,300.353z"/>
</g>















</svg>
