<?xml version="1.0" encoding="iso-8859-1"?>
<!-- Generator: Adobe Illustrator 19.0.0, SVG Export Plug-In . SVG Version: 6.00 Build 0)  -->
<svg xmlns="http://www.w3.org/2000/svg" xmlns:xlink="http://www.w3.org/1999/xlink" version="1.1" id="Layer_1" x="0px" y="0px" viewBox="0 0 411.556 411.556" style="enable-background:new 0 0 411.556 411.556;" xml:space="preserve" width="512" height="512">
<g>
	<polygon style="fill:#F95428;" points="359.381,221.993 345.181,325.483 335.851,325.483 75.711,325.483 66.371,325.483    52.171,221.993 64.771,221.993 346.791,221.993  "/>
	<polygon style="fill:#E54728;" points="64.771,221.993 52.171,221.993 66.371,325.483 75.711,325.483 144.371,325.483    130.171,221.993  "/>
	<polygon style="fill:#E6E6E6;" points="335.851,325.483 327.541,404.053 84.021,404.053 75.711,325.483  "/>
	<polygon style="fill:#E6E6E6;" points="354.561,148.493 346.791,221.993 64.771,221.993 57.001,148.493 86.081,148.493    327.151,148.493  "/>
	<g>
		<polygon style="fill:#CCCCCC;" points="138.021,404.053 84.021,404.053 75.711,325.483 129.711,325.483   "/>
		<polygon style="fill:#CCCCCC;" points="118.771,221.993 64.771,221.993 57.001,148.493 111.001,148.493   "/>
	</g>
	<path style="fill:#F7B239;" d="M327.151,148.493H86.081c22.28-43.94,67.89-74.07,120.54-74.07   C259.261,74.423,304.871,104.553,327.151,148.493z"/>
	<path style="fill:#E09B2D;" d="M238.618,78.255c-10.26-2.494-20.971-3.832-31.997-3.832c-52.65,0-98.26,30.13-120.54,74.07h64   C167.694,113.757,199.893,87.668,238.618,78.255z"/>
	<path style="fill:#FFFFFF;" d="M305.55,391.554c-0.264,0-0.529-0.015-0.798-0.043c-4.119-0.436-7.104-4.128-6.669-8.247   l3.933-37.191c0.436-4.118,4.121-7.1,8.247-6.669c4.119,0.436,7.104,4.128,6.669,8.247l-3.933,37.191   C312.592,388.693,309.338,391.554,305.55,391.554z"/>
	<path style="fill:#FFFFFF;" d="M323.228,312.554c-0.264,0-0.529-0.015-0.798-0.043c-4.119-0.436-7.104-4.128-6.669-8.247   l4.261-40.297c0.436-4.119,4.122-7.109,8.247-6.669c4.119,0.436,7.104,4.128,6.669,8.247l-4.261,40.297   C330.27,309.693,327.016,312.554,323.228,312.554z"/>
	<path style="fill:#FFFFFF;" d="M324.936,208.199c-0.264,0-0.529-0.015-0.797-0.043c-4.12-0.436-7.105-4.127-6.67-8.246   l2.295-21.706c0.436-4.12,4.132-7.109,8.246-6.67c4.12,0.436,7.105,4.127,6.67,8.246l-2.295,21.706   C331.978,205.338,328.724,208.199,324.936,208.199z"/>
	<circle style="fill:#FFFFFF;" cx="329.795" cy="242.861" r="7.5"/>
	<path style="fill:#333333;" d="M405.62,89.857c2.406-3.372,1.624-8.056-1.747-10.462c-3.374-2.409-8.056-1.623-10.462,1.747   l-42.719,59.854h-19.026c-10.303-18.813-24.391-34.656-41.047-46.808l55.316-63.12c2.729-3.115,2.418-7.854-0.697-10.584   c-3.117-2.729-7.854-2.418-10.584,0.697l-56.735,64.74c-3.895-2.246-7.9-4.299-11.999-6.167l21.684-70.031   c1.226-3.957-0.989-8.158-4.945-9.383c-3.96-1.229-8.158,0.99-9.383,4.945L251.921,74.25c-14.346-4.775-29.598-7.323-45.303-7.323   c-52.475,0-99.965,28.263-125.049,74.068H60.864L18.145,81.142c-2.406-3.371-7.089-4.152-10.461-1.747   c-3.372,2.406-4.154,7.09-1.748,10.462l43.81,61.382l6.687,63.253h-4.259c-2.167,0-4.228,0.938-5.652,2.57   s-2.073,3.803-1.778,5.949l14.199,103.494c0.509,3.713,3.682,6.48,7.43,6.48h2.587l7.6,71.858c0.404,3.815,3.622,6.711,7.458,6.711   h243.52c3.837,0,7.055-2.896,7.458-6.711l7.6-71.858h2.588c3.748,0,6.921-2.768,7.431-6.48l14.199-103.494   c0.294-2.146-0.354-4.316-1.778-5.949c-1.425-1.633-3.485-2.57-5.652-2.57h-4.26l6.686-63.251L405.62,89.857z M314.248,140.995   h-36.504c7.871-6.685,14.728-14.306,18.67-22.195C303.093,125.436,309.085,132.862,314.248,140.995z M141.46,140.995   c-1.352-8.349-5.664-19.103-17.475-28.782c3.415-2.908,6.974-5.627,10.666-8.149c7.588,5.615,20.27,17.748,22.011,36.931H141.46z    M171.729,140.995c-1.454-21.762-13.593-36.58-23.352-45.092c5.583-2.857,11.386-5.301,17.369-7.311   c6.872,6.753,23.743,26.027,23.698,52.402H171.729z M258.377,92.805c-12.052,20.643-41.719,29.382-55.504,32.419   c-0.975-4.771-2.35-9.261-3.985-13.447c20.901-3.529,40.23-17.464,47.764-23.468C250.642,89.618,254.556,91.115,258.377,92.805z    M204.452,140.995c0.001-0.248-0.004-0.493-0.006-0.739c15.317-3.15,51.879-13.32,67.272-40.563   c4.423,2.621,8.691,5.501,12.769,8.646c-2.634,9.516-15.682,22.619-32.521,32.657H204.452z M227.468,83.631   c-9.376,6.119-22.742,13.126-35.651,13.901c-3.193-5.257-6.573-9.71-9.608-13.266c7.941-1.529,16.102-2.339,24.408-2.339   C213.688,81.927,220.653,82.516,227.468,83.631z M113.032,122.708c5.246,4.04,11,10.116,13.122,18.287H98.985   C103.155,134.427,107.856,128.311,113.032,122.708z M320.789,396.556H90.766l-6.723-63.569h243.47L320.789,396.556z    M338.642,317.987H72.914l-12.141-88.494h290.01L338.642,317.987z M71.516,214.492l-6.184-58.497h280.89l-6.183,58.497H71.516z"/>
</g>















</svg>
