<?xml version="1.0" encoding="iso-8859-1"?>
<!-- Generator: Adobe Illustrator 19.0.0, SVG Export Plug-In . SVG Version: 6.00 Build 0)  -->
<svg xmlns="http://www.w3.org/2000/svg" xmlns:xlink="http://www.w3.org/1999/xlink" version="1.1" id="Layer_1" x="0px" y="0px" viewBox="0 0 406.261 406.261" style="enable-background:new 0 0 406.261 406.261;" xml:space="preserve" width="512" height="512">
<g>
	<polygon style="fill:#E6E6E6;" points="334.584,245.774 324.474,344.764 81.794,344.764 71.674,245.774 71.684,245.774  "/>
	<path style="fill:#F95428;" d="M339.524,137.774h-7.24c-8.52-24.76-32.03-42.55-59.68-42.55c-12.83,0-24.77,3.83-34.73,10.41   l-0.01-0.01c-9.96-6.58-21.9-10.41-34.73-10.41s-24.78,3.83-34.74,10.41c-9.96-6.58-21.9-10.41-34.73-10.41   c-27.66,0-51.17,17.79-59.69,42.56h-7.23c3.27-72.5,63.08-130.27,136.39-130.27S336.254,65.274,339.524,137.774z"/>
	<g>
		<path style="fill:#E54728;" d="M139.237,95.467c23.916-39.534,67.316-65.963,116.897-65.963c8.422,0,16.664,0.771,24.665,2.231    C258.75,16.459,231.989,7.504,203.134,7.504c-73.31,0-133.12,57.771-136.39,130.271h7.23c8.52-24.771,32.03-42.56,59.69-42.56    C135.542,95.214,137.399,95.306,139.237,95.467z"/>
	</g>
	<path style="fill:#F95428;" d="M148.264,189.584c1.64,2.87,3.5,5.6,5.56,8.17c-18.45-4.85-32.52-20.86-34.23-40.68l-1.66-19.3   h-11.93c6.27-8.44,16.32-13.91,27.66-13.91c5.22,0,10.17,1.16,14.6,3.24c-5.26,9.21-8.26,19.87-8.26,31.24   C140.004,169.704,143.004,180.374,148.264,189.584z"/>
	<path style="fill:#F95428;" d="M217.734,127.104l0.01,0.01c-5.26,9.21-8.26,19.87-8.26,31.23s3,22.02,8.25,31.23   c-4.43,2.08-9.38,3.24-14.6,3.24s-10.17-1.16-14.61-3.24c5.26-9.21,8.26-19.87,8.26-31.23c0-11.37-3-22.03-8.25-31.24   c4.43-2.08,9.38-3.24,14.6-3.24S213.304,125.024,217.734,127.104z"/>
	<path style="fill:#F95428;" d="M300.254,137.774h-11.92l-1.67,19.3c-1.28,14.82-9.46,27.5-21.22,34.99   c-2.6-0.54-5.09-1.39-7.45-2.49c5.26-9.21,8.26-19.87,8.26-31.23c0-11.37-3-22.03-8.26-31.24c4.44-2.08,9.39-3.24,14.61-3.24   C283.934,123.864,293.984,129.334,300.254,137.774z"/>
	<path style="fill:#F7B239;" d="M168.394,105.624c-8.28,5.47-15.2,12.84-20.13,21.48c-4.43-2.08-9.38-3.24-14.6-3.24   c-11.34,0-21.39,5.47-27.66,13.91h-32.03c8.52-24.77,32.03-42.56,59.69-42.56C146.494,95.214,158.434,99.044,168.394,105.624z"/>
	<path style="fill:#E09B2D;" d="M188.534,127.104c5.25,9.21,8.25,19.87,8.25,31.24c0,11.36-3,22.02-8.26,31.23   c-11.74-5.5-19.87-17.41-19.87-31.23C168.654,144.514,176.794,132.594,188.534,127.104z"/>
	<path style="fill:#F7B239;" d="M257.994,189.574c2.36,1.1,4.85,1.95,7.45,2.49c-7.17,4.58-15.68,7.21-24.77,7.21h-16.12   c-2.56-3-4.85-6.25-6.82-9.7c-5.25-9.21-8.25-19.87-8.25-31.23s3-22.02,8.26-31.23c4.93-8.65,11.84-16.01,20.13-21.48   c9.96-6.58,21.9-10.41,34.73-10.41c27.65,0,51.16,17.79,59.68,42.55h-32.03c-6.27-8.44-16.32-13.91-27.65-13.91   c-5.22,0-10.17,1.16-14.61,3.24c-11.74,5.5-19.87,17.42-19.87,31.24C238.124,172.164,246.254,184.074,257.994,189.574z"/>
	<path style="fill:#F7B239;" d="M237.864,105.624l0.01,0.01c-8.29,5.47-15.2,12.83-20.13,21.48l-0.01-0.01   c-4.43-2.08-9.38-3.24-14.6-3.24s-10.17,1.16-14.6,3.24c-11.74,5.49-19.88,17.41-19.88,31.24c0,13.82,8.13,25.73,19.87,31.23   c4.44,2.08,9.39,3.24,14.61,3.24s10.17-1.16,14.6-3.24c1.97,3.45,4.26,6.7,6.82,9.7h-58.96c-4.06,0-8.01-0.53-11.77-1.52   c-2.06-2.57-3.92-5.3-5.56-8.17c-5.26-9.21-8.26-19.88-8.26-31.24c0-11.37,3-22.03,8.26-31.24c4.93-8.64,11.85-16.01,20.13-21.48   c9.96-6.58,21.91-10.41,34.74-10.41S227.904,99.044,237.864,105.624z"/>
	<path style="fill:#E09B2D;" d="M257.994,127.104c5.26,9.21,8.26,19.87,8.26,31.24c0,11.36-3,22.02-8.26,31.23   c-11.74-5.5-19.87-17.41-19.87-31.23C238.124,144.524,246.254,132.604,257.994,127.104z"/>
	<polygon style="fill:#F95428;" points="324.474,344.764 318.954,398.764 87.314,398.764 81.794,344.764  "/>
	<path style="fill:#F95428;" d="M339.524,137.774h6.1l-11.04,108h-262.9h-0.01l-11.04-108h6.11h7.23h32.03h11.93l1.66,19.3   c1.71,19.82,15.78,35.83,34.23,40.68c3.76,0.99,7.71,1.52,11.77,1.52h58.96h16.12c9.09,0,17.6-2.63,24.77-7.21   c11.76-7.49,19.94-20.17,21.22-34.99l1.67-19.3h11.92h32.03H339.524z"/>
	<g>
		<polygon style="fill:#CCCCCC;" points="127.793,344.764 81.794,344.764 71.674,245.774 117.674,245.774   "/>
		<polygon style="fill:#E54728;" points="133.313,398.764 87.314,398.764 81.794,344.764 127.793,344.764   "/>
		<polygon style="fill:#E54728;" points="106.634,137.774 117.674,245.774 71.674,245.774 60.634,137.774   "/>
	</g>
	<circle style="fill:#FFFFFF;" cx="317.634" cy="163.034" r="7.5"/>
	<path style="fill:#333333;" d="M351.19,132.747c-1.221-1.353-2.886-2.201-4.674-2.416C339.588,57.314,277.93,0,203.131,0   C128.33,0,66.673,57.314,59.745,130.332c-1.789,0.214-3.454,1.063-4.674,2.416c-1.422,1.574-2.11,3.678-1.895,5.789L79.85,399.523   c0.391,3.827,3.614,6.737,7.461,6.737H318.95c3.847,0,7.07-2.91,7.461-6.737l26.673-260.987   C353.3,136.425,352.612,134.321,351.19,132.747z M254.904,137.991c2.527,6.442,3.849,13.353,3.849,20.348   c0,6.992-1.322,13.9-3.85,20.342c-5.788-5.057-9.284-12.459-9.284-20.34C245.619,150.456,249.115,143.049,254.904,137.991z    M268.536,131.67c1.334-0.201,2.689-0.309,4.063-0.309c3.425,0,6.731,0.638,9.8,1.83c-0.853,1.104-1.41,2.453-1.538,3.937   l-1.668,19.306c-0.667,7.716-3.513,14.701-7.901,20.388c1.622-5.997,2.462-12.215,2.462-18.483   C273.753,149.162,271.965,140.09,268.536,131.67z M303.769,130.273c-7.902-8.766-19.28-13.912-31.17-13.912   c-6.214,0-12.2,1.328-17.792,3.947c-14.694,6.884-24.188,21.813-24.188,38.032c0,12.97,6.087,25.102,16.046,32.969   c-1.954,0.298-3.954,0.46-5.994,0.46h-12.513c-1.428-1.893-2.745-3.868-3.914-5.913c-4.753-8.339-7.266-17.854-7.266-27.517   c0-30.669,24.951-55.62,55.62-55.62c20.031,0,38.208,10.729,48.033,27.553H303.769z M145.207,117.973   c-3.726-1.068-7.588-1.611-11.548-1.611c-11.896,0-23.278,5.146-31.18,13.912H85.615c9.825-16.831,28.006-27.563,48.044-27.563   c7.317,0,14.472,1.426,21.127,4.161C151.216,110.229,148.011,113.961,145.207,117.973z M133.659,131.361   c1.374,0,2.726,0.108,4.058,0.308c-3.43,8.421-5.218,17.493-5.218,26.672c0,6.26,0.836,12.469,2.453,18.458   c-4.378-5.683-7.217-12.659-7.883-20.365l-1.668-19.306c-0.128-1.485-0.686-2.836-1.541-3.94   C126.928,131.998,130.234,131.361,133.659,131.361z M158.154,191.068c-1.224-1.676-2.36-3.418-3.382-5.207   c-4.758-8.33-7.273-17.847-7.273-27.521s2.515-19.19,7.274-27.523c4.321-7.573,10.459-14.122,17.75-18.938   c9.078-5.998,19.662-9.168,30.606-9.168c7.333,0,14.503,1.432,21.171,4.179c-3.568,3.351-6.786,7.066-9.599,11.088   c-3.732-1.072-7.602-1.618-11.568-1.618c-6.219,0-12.204,1.329-17.776,3.946c-14.703,6.875-24.204,21.804-24.204,38.033   c0,13.224,6.319,25.585,16.62,33.432H165.59C163.046,191.771,160.56,191.529,158.154,191.068z M203.131,171.006   c0.872,4.793,2.228,9.487,4.062,13.996c-1.332,0.2-2.686,0.308-4.06,0.308c-1.376,0-2.732-0.108-4.067-0.309   C200.901,180.495,202.258,175.801,203.131,171.006z M203.136,145.693c-0.872-4.805-2.229-9.509-4.066-14.025   c1.333-0.201,2.688-0.309,4.063-0.309c1.385,0,2.749,0.109,4.091,0.312C205.396,136.136,204.019,140.829,203.136,145.693z    M185.438,137.992c2.525,6.445,3.845,13.355,3.845,20.347c0,6.99-1.322,13.897-3.849,20.338   c-5.787-5.057-9.281-12.458-9.281-20.338C176.153,150.453,179.647,143.049,185.438,137.992z M203.131,15   c61.499,0,113.081,43.248,125.947,100.927c-13.092-17.423-33.854-28.207-56.479-28.207c-12.604,0-24.437,3.335-34.691,9.145   c-10.575-5.999-22.5-9.154-34.778-9.154c-12.265,0-24.177,3.145-34.74,9.126c-10.563-5.981-22.471-9.126-34.73-9.126   c-22.619,0-43.376,10.773-56.469,28.185C90.068,58.232,141.642,15,203.131,15z M79.981,253.271H326.28l-8.584,83.99H88.565   L79.981,253.271z M94.084,391.261l-3.986-39h226.065l-3.986,39H94.084z M327.813,238.271H78.448l-9.505-92.997h42.105l1.076,12.451   c1.159,13.419,7.263,25.822,17.188,34.927c9.925,9.105,22.808,14.119,36.277,14.119h75.082c13.469,0,26.352-5.014,36.277-14.119   c9.925-9.104,16.029-21.508,17.188-34.927l1.076-12.451h42.105L327.813,238.271z"/>
	<path style="fill:#FFFFFF;" d="M295.625,384.864c-0.255,0-0.512-0.014-0.771-0.04c-4.121-0.421-7.12-4.103-6.699-8.223   l19.416-190.025c0.421-4.121,4.109-7.11,8.224-6.698c4.121,0.421,7.12,4.103,6.698,8.224l-19.416,190.023   C302.683,381.987,299.425,384.864,295.625,384.864z"/>
</g>















</svg>
