<?xml version="1.0" encoding="iso-8859-1"?>
<!-- Generator: Adobe Illustrator 19.0.0, SVG Export Plug-In . SVG Version: 6.00 Build 0)  -->
<svg xmlns="http://www.w3.org/2000/svg" xmlns:xlink="http://www.w3.org/1999/xlink" version="1.1" id="Layer_1" x="0px" y="0px" viewBox="0 0 413.98 413.98" style="enable-background:new 0 0 413.98 413.98;" xml:space="preserve" width="512" height="512">
<g>
	<path style="fill:#F4DE3B;" d="M206.993,107.259l-111.74,111.73c-28.6-28.6-46.29-68.11-46.29-111.74h158.02L206.993,107.259z"/>
	<path style="fill:#F4DE3B;" d="M206.993,265.269v0.01c-43.64,0-83.15-17.69-111.74-46.29l111.74-111.73V265.269z"/>
	<path style="fill:#F4DE3B;" d="M206.993,107.259l111.73,111.73c-28.6,28.6-68.1,46.29-111.73,46.29v-0.01V107.259z"/>
	<path style="fill:#F4DE3B;" d="M206.993,107.249h158.03c0,43.64-17.69,83.15-46.3,111.74l-111.73-111.73V107.249z"/>
	<path style="fill:#F7B239;" d="M365.023,107.249h41.46c0,110.17-89.32,199.49-199.49,199.49c-110.18,0-199.49-89.32-199.49-199.49   h41.46c0,43.63,17.69,83.14,46.29,111.74c28.59,28.6,68.1,46.29,111.74,46.29c43.63,0,83.13-17.69,111.73-46.29   C347.333,190.399,365.023,150.889,365.023,107.249z"/>
	<path style="fill:#FFFFFF;" d="M293.607,270.788c-2.632,0-5.186-1.388-6.559-3.851c-2.016-3.618-0.717-8.186,2.901-10.202   c41.613-23.187,71.927-62.879,83.169-108.899c0.983-4.024,5.041-6.488,9.065-5.506c4.024,0.983,6.489,5.042,5.506,9.065   c-12.229,50.061-45.193,93.232-90.44,118.443C296.095,270.482,294.842,270.788,293.607,270.788z"/>
	<path style="fill:#FFFFFF;" d="M323.743,182.685c-1.285,0-2.587-0.33-3.777-1.025c-3.577-2.09-4.782-6.683-2.692-10.259   c6.85-11.722,11.737-24.414,14.526-37.723c0.849-4.055,4.828-6.648,8.878-5.803c4.054,0.85,6.652,4.825,5.802,8.879   c-3.121,14.893-8.59,29.095-16.255,42.214C328.831,181.354,326.321,182.685,323.743,182.685z"/>
	<circle style="fill:#FFFFFF;" cx="384.316" cy="128.344" r="7.5"/>
	<path style="fill:#333333;" d="M406.48,99.745H7.5c-4.142,0-7.5,3.358-7.5,7.5c0,114.135,92.855,206.99,206.99,206.99   c114.135,0,206.99-92.855,206.99-206.99C413.98,103.103,410.622,99.745,406.48,99.745z M95.431,208.2   c-22.636-24.99-37.014-57.592-38.783-93.456h132.248L95.431,208.2z M199.494,125.361v132.226   c-35.863-1.768-68.465-16.145-93.455-38.78L199.494,125.361z M214.494,125.362l93.446,93.446   c-24.989,22.633-57.587,37.009-93.446,38.778V125.362z M318.547,208.202l-93.458-93.458h132.242   C355.563,150.609,341.185,183.212,318.547,208.202z M206.99,299.235c-103.35,0-187.889-82.091-191.845-184.49h26.494   c3.936,87.805,76.592,158.029,165.351,158.029s161.416-70.224,165.352-158.029h26.494   C394.879,217.144,310.34,299.235,206.99,299.235z"/>
</g>















</svg>
