<?xml version="1.0" encoding="iso-8859-1"?>
<!-- Generator: Adobe Illustrator 19.0.0, SVG Export Plug-In . SVG Version: 6.00 Build 0)  -->
<svg xmlns="http://www.w3.org/2000/svg" xmlns:xlink="http://www.w3.org/1999/xlink" version="1.1" id="Layer_1" x="0px" y="0px" viewBox="0 0 423.914 423.914" style="enable-background:new 0 0 423.914 423.914;" xml:space="preserve" width="512" height="512">
<g>
	<path style="fill:#F2F2F2;" d="M388.25,262.571h28.16c0,23.83-19.31,43.14-43.14,43.14H50.64c-11.91,0-22.7-4.83-30.5-12.63   c-7.81-7.81-12.64-18.6-12.64-30.51h26.25H388.25z"/>
	<path style="fill:#E6E6E6;" d="M80.5,262.571H33.75H7.5c0,11.91,4.83,22.7,12.64,30.51c7.8,7.8,18.59,12.63,30.5,12.63h73   c-11.91,0-22.7-4.83-30.5-12.63C85.33,285.271,80.5,274.481,80.5,262.571z"/>
	<path style="fill:#F95428;" d="M250.32,161.611v14.7v14.75c0,5.16-1.96,9.86-5.19,13.4c-3.64,3.98-8.87,6.48-14.69,6.48   c-5.49,0-10.46-2.22-14.06-5.82c-0.22-0.22-0.43-0.44-0.63-0.66c-3.23-3.54-5.19-8.24-5.19-13.4v-14.75v-28.16v-29.95h79.52v29.95   v13.46c0,5.83-2.5,11.06-6.5,14.7c-3.54,3.21-8.23,5.18-13.38,5.18c-5.14,0-9.84-1.97-13.37-5.18   C252.83,172.671,250.32,167.441,250.32,161.611z"/>
	<rect x="33.75" y="232.631" style="fill:#F7B239;" width="354.5" height="29.94"/>
	<path style="fill:#F7B239;" d="M388.25,204.461v28.17H33.75v-28.17h182c0.2,0.22,0.41,0.44,0.63,0.66c3.6,3.6,8.57,5.82,14.06,5.82   c5.82,0,11.05-2.5,14.69-6.48H388.25z"/>
	<path style="fill:#F7B239;" d="M388.25,176.311v28.15H245.13c3.23-3.54,5.19-8.24,5.19-13.4v-14.75h6.51   c3.53,3.21,8.23,5.18,13.37,5.18c5.15,0,9.84-1.97,13.38-5.18H388.25z"/>
	<path style="fill:#F7B239;" d="M215.75,204.461h-182v-28.15h176.81v14.75C210.56,196.221,212.52,200.921,215.75,204.461z"/>
	<rect x="33.75" y="148.151" style="fill:#F7B239;" width="176.81" height="28.16"/>
	<path style="fill:#F7B239;" d="M388.25,148.151v28.16H283.58c4-3.64,6.5-8.87,6.5-14.7v-13.46H388.25z"/>
	<rect x="290.08" y="118.201" style="fill:#F7B239;" width="98.17" height="29.95"/>
	<rect x="33.75" y="118.201" style="fill:#F7B239;" width="176.81" height="29.95"/>
	<rect x="33.75" y="118.201" style="fill:#E09B2D;" width="50.21" height="144.66"/>
	<path style="fill:#FFFFFF;" d="M232.96,195.361c-4.143,0-7.5-3.357-7.5-7.5v-50c0-4.143,3.357-7.5,7.5-7.5s7.5,3.357,7.5,7.5v50   C240.46,192.003,237.103,195.361,232.96,195.361z"/>
	<path style="fill:#FFFFFF;" d="M271.96,167.761c-4.143,0-7.5-3.357-7.5-7.5v-21c0-4.143,3.357-7.5,7.5-7.5s7.5,3.357,7.5,7.5v21   C279.46,164.404,276.103,167.761,271.96,167.761z"/>
	<path style="fill:#333333;" d="M416.414,255.069h-20.662V118.202c0-4.143-3.357-7.5-7.5-7.5H33.746c-4.143,0-7.5,3.357-7.5,7.5   v136.867H7.5c-4.143,0-7.5,3.357-7.5,7.5c0,27.925,22.719,50.644,50.644,50.644h322.627c27.925,0,50.644-22.719,50.644-50.644   C423.914,258.426,420.557,255.069,416.414,255.069z M41.246,211.961h171.535c4.771,4.038,10.934,6.479,17.66,6.479   s12.888-2.441,17.66-6.479h132.652v13.167H41.246V211.961z M380.752,196.961H257.173c0.419-1.901,0.647-3.874,0.647-5.9v-5.039   c3.807,1.935,8.037,2.967,12.383,2.967c5.783,0,11.36-1.825,16.006-5.18h94.543V196.961z M380.752,168.809h-84.141   c0.637-2.328,0.972-4.748,0.972-7.2v-5.963h83.169V168.809z M282.583,161.609c0,3.527-1.438,6.776-4.051,9.151   c-2.289,2.082-5.247,3.229-8.329,3.229c-3.081,0-6.039-1.146-8.329-3.229c-2.612-2.374-4.051-5.624-4.051-9.15h-0.003v-17.671   c0-4.143-3.357-7.5-7.5-7.5s-7.5,3.357-7.5,7.5v47.123c0,6.826-5.554,12.38-12.38,12.38s-12.38-5.554-12.38-12.38v-65.359h64.522   V161.609z M203.061,168.809H41.246v-13.163h161.814V168.809z M203.061,183.809v7.252c0,2.026,0.228,3.999,0.647,5.9H41.246v-13.152   H203.061z M380.752,140.646h-83.169v-14.944h83.169V140.646z M203.061,125.702v14.944H41.246v-14.944H203.061z M41.246,240.128   h339.506v14.94H41.246V240.128z M373.271,298.212H50.644c-17.082,0-31.396-12.078-34.85-28.144h17.952h354.506h19.868   C404.666,286.134,390.353,298.212,373.271,298.212z"/>
</g>















</svg>
