<?xml version="1.0" encoding="iso-8859-1"?>
<!-- Generator: Adobe Illustrator 19.0.0, SVG Export Plug-In . SVG Version: 6.00 Build 0)  -->
<svg xmlns="http://www.w3.org/2000/svg" xmlns:xlink="http://www.w3.org/1999/xlink" version="1.1" id="Layer_1" x="0px" y="0px" viewBox="0 0 411.506 411.506" style="enable-background:new 0 0 411.506 411.506;" xml:space="preserve" width="512" height="512">
<g>
	<path style="fill:#F95428;" d="M227.858,24.082v56.32c0,7.36-5.97,13.33-13.33,13.33h-2.45c-7.36,0-13.33-5.97-13.33-13.33v-56.32   c0-7.36,5.97-13.33,13.33-13.33h2.45C221.888,10.752,227.858,16.722,227.858,24.082z"/>
	<path style="fill:#E6E6E6;" d="M242.418,175.712v27.2h-58.23v-27.2c0-14.72,11.94-26.66,26.67-26.66h4.9   C230.478,149.052,242.418,160.992,242.418,175.712z"/>
	<path style="fill:#E6E6E6;" d="M373.608,331.972l-26.02,46.87c-7.51,13.52-21.76,21.91-37.23,21.91h-209.21   c-15.47,0-29.72-8.39-37.23-21.91l-26.02-46.87h31.94h271.84H373.608z"/>
	<path style="fill:#CCCCCC;" d="M129.585,378.842l-26.02-46.87H69.838h-31.94l26.02,46.87c7.51,13.52,21.76,21.91,37.23,21.91   h65.667C151.345,400.752,137.095,392.362,129.585,378.842z"/>
	<path style="fill:#F7B239;" d="M341.678,331.972H69.838c25.12-49.55,76.56-83.52,135.92-83.52S316.558,282.422,341.678,331.972z"/>
	<path style="fill:#E09B2D;" d="M238.758,252.047c-10.627-2.348-21.668-3.595-33-3.595c-59.36,0-110.8,33.97-135.92,83.52h66   C156.162,291.882,193.72,261.999,238.758,252.047z"/>
	<path style="fill:#333333;" d="M404.006,324.472H346.19c-13.134-24.141-32.289-44.546-55.651-59.197   c-14.908-9.349-31.183-16.085-48.17-20.071v-69.488c0-17.123-12.663-31.342-29.115-33.791v-41.665   c8.429-2.669,14.558-10.562,14.558-19.863V24.087c0-11.488-9.346-20.833-20.833-20.833h-2.448   c-11.488,0-20.833,9.346-20.833,20.833v56.311c0,9.301,6.128,17.194,14.558,19.863v41.665   c-16.452,2.449-29.115,16.667-29.115,33.791v69.488c-16.987,3.986-33.262,10.723-48.169,20.071   c-23.362,14.651-42.517,35.056-55.652,59.197H7.5c-4.142,0-7.5,3.358-7.5,7.5s3.358,7.5,7.5,7.5h25.981L57.36,382.48   c8.826,15.897,25.604,25.773,43.789,25.773h209.209c18.184,0,34.963-9.875,43.788-25.773l23.88-43.008h25.981   c4.143,0,7.5-3.358,7.5-7.5S408.149,324.472,404.006,324.472z M328.846,324.472h-45.521c10.035-8.185,18.837-17.736,23.407-27.599   C315.101,305.035,322.54,314.276,328.846,324.472z M294.642,286.323c-2.654,11.053-17.832,26.48-37.483,38.149h-54.816   c0.012-0.867,0.014-1.728,0-2.583c6.766-1.367,17.752-4.052,29.572-8.827c22.323-9.018,38.345-21.863,46.88-37.453   C284.305,278.823,289.6,282.399,294.642,286.323z M131.455,324.472c-1.378-9.543-6.226-22.158-20.387-33.387   c4.304-3.725,8.817-7.184,13.514-10.363c8.741,6.409,24.186,20.868,25.875,43.75H131.455z M165.501,324.472   c-1.429-25.445-16.143-42.601-27.181-51.985c6.905-3.625,14.122-6.678,21.574-9.15c7.621,7.432,27.862,30.147,27.424,61.135   H165.501z M205.755,255.952c8.858,0,17.572,0.804,26.069,2.34c-10.835,7.327-27.359,16.446-43.273,17.198   c-4.039-6.732-8.373-12.304-12.123-16.57C185.949,256.973,195.761,255.952,205.755,255.952z M195.724,289.829   c24.186-3.661,46.744-20.172,54.989-26.799c5.035,1.633,9.957,3.547,14.755,5.711c-13.708,24.745-49.261,34.833-64.681,38.132   C199.613,300.777,197.848,295.082,195.724,289.829z M213.254,241.148v-30.736h14.115v32.009   C222.699,241.788,217.989,241.369,213.254,241.148z M198.697,24.087c0-3.217,2.617-5.833,5.833-5.833h2.448   c3.217,0,5.833,2.617,5.833,5.833v56.311c0,3.217-2.616,5.833-5.833,5.833h-2.448c-3.217,0-5.833-2.617-5.833-5.833V24.087z    M184.14,175.716c0-10.568,8.598-19.167,19.167-19.167h4.897c10.568,0,19.166,8.598,19.166,19.167v19.696H184.14V175.716z    M184.14,210.412h14.115v30.736c-4.735,0.221-9.444,0.639-14.115,1.273V210.412z M100.122,301.616   c6.471,4.832,13.85,12.415,16.114,22.856H82.664C87.776,316.206,93.627,308.562,100.122,301.616z M341.032,375.199   c-6.183,11.136-17.936,18.054-30.674,18.054H101.148c-12.738,0-24.492-6.918-30.674-18.054l-19.836-35.727h310.231L341.032,375.199   z"/>
	<path style="fill:#FFFFFF;" d="M314.581,386.344c-1.231,0-2.48-0.304-3.634-0.944c-3.621-2.01-4.927-6.576-2.917-10.197   l13.446-24.221c2.011-3.621,6.575-4.928,10.198-2.917c3.621,2.01,4.927,6.576,2.917,10.197l-13.446,24.221   C319.776,384.95,317.218,386.344,314.581,386.344z"/>
	<path style="fill:#FFFFFF;" d="M303.253,323.22c-2.096,0-4.181-0.874-5.664-2.581c-18.019-20.734-42.841-34.844-69.895-39.73   c-4.076-0.736-6.784-4.637-6.048-8.713s4.634-6.784,8.714-6.047c30.403,5.491,58.3,21.349,78.551,44.652   c2.717,3.126,2.385,7.864-0.741,10.581C306.75,322.615,304.997,323.22,303.253,323.22z"/>
	<path style="fill:#FFFFFF;" d="M218.092,192.222c-4.143,0-7.5-3.358-7.5-7.5v-12c0-4.142,3.357-7.5,7.5-7.5s7.5,3.358,7.5,7.5v12   C225.592,188.865,222.234,192.222,218.092,192.222z"/>
	<circle style="fill:#FFFFFF;" cx="206.17" cy="271.882" r="7.5"/>
</g>















</svg>
