<?xml version="1.0" encoding="iso-8859-1"?>
<!-- Generator: Adobe Illustrator 19.0.0, SVG Export Plug-In . SVG Version: 6.00 Build 0)  -->
<svg xmlns="http://www.w3.org/2000/svg" xmlns:xlink="http://www.w3.org/1999/xlink" version="1.1" id="Layer_1" x="0px" y="0px" viewBox="0 0 437.363 437.363" style="enable-background:new 0 0 437.363 437.363;" xml:space="preserve" width="512" height="512">
<g>
	<path style="fill:#90BC42;" d="M218.684,141.536c-3.39-2.03-6.87-3.86-10.42-5.49c-95.89-53.59-69.23-128.54-69.23-128.54   C252.575,20.855,218.684,141.536,218.684,141.536z"/>
	<path style="fill:#F7B239;" d="M270.544,126.875c66.69,0,120.75,67.83,120.75,151.5c0,83.66-54.06,151.49-120.75,151.49   c-18.56,0-36.15-5.27-51.86-14.66c-15.72,9.39-33.3,14.66-51.87,14.66c-66.69,0-120.74-67.83-120.74-151.49   c0-83.67,54.05-151.5,120.74-151.5c14.56,0,28.52,3.24,41.45,9.17c3.32,1.86,6.79,3.69,10.42,5.49   C234.395,132.145,251.984,126.875,270.544,126.875z M272.014,271.485c0-49.7-23.88-89.99-53.33-89.99   c-29.46,0-53.34,40.29-53.34,89.99c0,69,53.34,90,53.34,90S272.014,343.485,272.014,271.485z"/>
	<path style="fill:#B27214;" d="M218.684,181.495c29.45,0,53.33,40.29,53.33,89.99c0,72-53.33,90-53.33,90s-53.34-21-53.34-90   C165.344,221.785,189.225,181.495,218.684,181.495z"/>
	<path style="fill:#995C0D;" d="M205.344,271.485c0-37.765,13.79-70.091,33.337-83.442c-6.176-4.219-12.925-6.548-19.997-6.548   c-29.46,0-53.34,40.29-53.34,89.99c0,69,53.34,90,53.34,90s9.536-3.22,20.542-12.378   C223.985,336.288,205.344,312.276,205.344,271.485z"/>
	<path style="fill:#9AD14B;" d="M218.684,141.536c-3.39-2.03-6.87-3.86-10.42-5.49c-95.89-53.59-69.23-128.54-69.23-128.54   S202.684,97.485,218.684,141.536z"/>
	<path style="fill:#FFFFFF;" d="M237.719,323.734c-1.352,0-2.719-0.365-3.952-1.131c-3.518-2.187-4.598-6.812-2.411-10.329   c6.741-10.846,10.159-24.568,10.159-40.788c0-13.445-2.188-26.35-6.327-37.319c-1.462-3.875,0.494-8.202,4.369-9.664   c3.877-1.464,8.203,0.493,9.665,4.369c4.771,12.644,7.293,27.38,7.293,42.614c0,19.061-4.178,35.447-12.418,48.706   C242.675,322.477,240.226,323.734,237.719,323.734z"/>
	<circle style="fill:#FFFFFF;" cx="232.948" cy="214.906" r="7.5"/>
	<g>
		<path style="fill:#333333;" d="M361.792,166.575c-24.257-30.435-56.662-47.196-91.244-47.196c-14.309,0-28.199,2.854-41.47,8.479    c3.094-20.719,4.8-57.913-14.944-87.404c-15.272-22.813-40.243-36.405-74.219-40.4c-3.472-0.415-6.77,1.639-7.942,4.935    c-0.322,0.904-7.801,22.482-0.977,51.098c6.343,26.596,22.129,47.421,40.48,63.407c-1.549-0.067-3.102-0.114-4.661-0.114    c-34.582,0-66.986,16.762-91.244,47.196c-23.86,29.936-37,69.639-37,111.796s13.14,81.86,37,111.796    c24.257,30.435,56.662,47.196,91.244,47.196c18.093,0,35.52-4.544,51.867-13.515c16.347,8.971,33.774,13.515,51.867,13.515    c34.582,0,66.986-16.762,91.244-47.196c23.86-29.936,37-69.639,37-111.796S385.652,196.51,361.792,166.575z M145.779,53.398    c-4.052-16.34-2.573-30.127-1.126-37.534c26.061,4.294,45.208,15.336,56.976,32.875c18.386,27.401,14.819,64.406,11.815,81.461    c-0.572-0.277-1.145-0.551-1.72-0.817C175.432,109.093,153.263,83.574,145.779,53.398z M270.548,422.363    c-16.771,0-32.927-4.574-48.019-13.595c-1.185-0.708-2.517-1.063-3.848-1.063s-2.663,0.354-3.848,1.063    c-15.091,9.021-31.247,13.595-48.019,13.595c-62.443,0-113.244-64.595-113.244-143.992s50.801-143.992,113.244-143.992    c16.773,0,32.929,4.573,48.019,13.594c2.37,1.416,5.326,1.416,7.696,0c15.09-9.021,31.246-13.594,48.019-13.594    c62.443,0,113.244,64.595,113.244,143.992S332.991,422.363,270.548,422.363z"/>
		<path style="fill:#333333;" d="M218.682,173.993c-17.002,0-32.687,10.667-44.165,30.035    c-10.749,18.138-16.669,42.096-16.669,67.46c0,38.137,15.64,62.416,28.759,76.068c14.305,14.884,28.72,20.666,29.327,20.905    c0.882,0.348,1.814,0.521,2.748,0.521c0.809,0,1.62-0.131,2.398-0.394c0.613-0.207,15.186-5.237,29.604-19.835    c13.152-13.316,28.831-37.53,28.831-77.267c0-25.364-5.92-49.322-16.669-67.46C251.368,184.66,235.683,173.993,218.682,173.993z     M218.898,353.311c-4.247-2.159-13.159-7.354-21.938-16.634c-16-16.912-24.112-38.846-24.112-65.189    c0-44.717,20.989-82.495,45.834-82.495c24.844,0,45.834,37.778,45.834,82.495C264.515,328.741,229.038,348.76,218.898,353.311z"/>
	</g>
</g>















</svg>
