<?xml version="1.0" encoding="iso-8859-1"?>
<!-- Generator: Adobe Illustrator 19.0.0, SVG Export Plug-In . SVG Version: 6.00 Build 0)  -->
<svg xmlns="http://www.w3.org/2000/svg" xmlns:xlink="http://www.w3.org/1999/xlink" version="1.1" id="Layer_1" x="0px" y="0px" viewBox="0 0 438 438" style="enable-background:new 0 0 438 438;" xml:space="preserve" width="512" height="512">
<g>
	<circle style="fill:#CCCCCC;" cx="219.003" cy="27.003" r="19.5"/>
	<path style="fill:#B3B3B3;" d="M216.336,27.003c0-7.751,4.533-14.426,11.083-17.57c-2.551-1.225-5.398-1.93-8.417-1.93   c-10.77,0-19.5,8.73-19.5,19.5s8.73,19.5,19.5,19.5c3.019,0,5.866-0.706,8.417-1.931C220.87,41.429,216.336,34.754,216.336,27.003z   "/>
	<polygon style="fill:#CCCCCC;" points="301.453,383.653 309.143,430.503 128.853,430.503 136.553,383.653  "/>
	<path style="fill:#CCCCCC;" d="M138.003,199.353h162c0,15.57-9.54,29.61-24.84,39.62h-112.32   C147.533,228.963,138.003,214.923,138.003,199.353z"/>
	<path style="fill:#E6E6E6;" d="M301.573,281.413c18.09,13.48,29.14,31.39,29.14,51.07c0,19.72-11.08,37.68-29.26,51.17h-164.9   c-18.18-13.49-29.26-31.45-29.26-51.17c0-19.68,11.05-37.59,29.14-51.07c13.99-10.42,23.45-25.59,26.41-42.44h112.32   C278.113,255.823,287.583,270.993,301.573,281.413z"/>
	<path style="fill:#E6E6E6;" d="M300.003,199.353h-162c0-14.27,8.01-27.26,21.13-37.03c5.7-4.24,10.36-9.59,13.73-15.63h92.27   c3.38,6.04,8.03,11.39,13.74,15.63C291.993,172.093,300.003,185.083,300.003,199.353z"/>
	<path style="fill:#E6E6E6;" d="M300.003,101.503c0,18.73-13.8,35.26-34.87,45.19h-92.27c-21.06-9.93-34.86-26.46-34.86-45.19   c0-30.38,36.26-55,81-55C263.733,46.503,300.003,71.123,300.003,101.503z"/>
	<g>
		<polygon style="fill:#B3B3B3;" points="181.883,383.653 174.183,430.503 128.853,430.503 136.553,383.653   "/>
		<path style="fill:#B3B3B3;" d="M208.173,238.973h-45.33c-15.31-10.01-24.84-24.05-24.84-39.62h45.33    C183.333,214.923,192.863,228.963,208.173,238.973z"/>
		<path style="fill:#CCCCCC;" d="M152.623,332.483c0,19.72,11.08,37.68,29.26,51.17h-45.33c-18.18-13.49-29.26-31.45-29.26-51.17    c0-19.68,11.05-37.59,29.14-51.07c13.99-10.42,23.45-25.59,26.41-42.44h45.33c-2.96,16.85-12.42,32.02-26.41,42.44    C163.673,294.894,152.623,312.803,152.623,332.483z"/>
		<path style="fill:#CCCCCC;" d="M218.193,146.693c-3.37,6.04-8.03,11.39-13.73,15.63c-13.12,9.77-21.13,22.76-21.13,37.03h-45.33    c0-14.27,8.01-27.26,21.13-37.03c5.7-4.24,10.36-9.59,13.73-15.63H218.193z"/>
		<path style="fill:#CCCCCC;" d="M218.193,146.693h-45.33c-21.06-9.93-34.86-26.46-34.86-45.19c0-30.38,36.26-55,81-55    c7.87,0,15.47,0.76,22.66,2.19c-33.7,6.65-58.33,27.77-58.33,52.81C183.333,120.233,197.133,136.763,218.193,146.693z"/>
	</g>
	<path style="fill:#FFFFFF;" d="M270.156,123.21c-1.882,0-3.765-0.704-5.222-2.118c-2.973-2.884-3.044-7.633-0.159-10.604   c3.049-3.143,4.728-6.333,4.728-8.984c0-7.439-13.606-20.138-38.208-23.641c-4.102-0.583-6.952-4.381-6.368-8.481   c0.583-4.102,4.392-6.961,8.481-6.368c29.129,4.146,51.095,20.693,51.095,38.49c0,6.669-3.1,13.388-8.964,19.43   C274.069,122.448,272.113,123.21,270.156,123.21z"/>
	<path style="fill:#FFFFFF;" d="M269.96,192.444c-1.936,0-3.869-0.744-5.337-2.23c-1.174-1.188-2.508-2.342-3.967-3.428   c-6.418-4.767-12.057-10.429-16.752-16.822c-2.452-3.339-1.733-8.032,1.605-10.484c3.34-2.451,8.033-1.732,10.484,1.605   c3.81,5.188,8.39,9.785,13.613,13.665c2.073,1.543,3.984,3.198,5.689,4.925c2.91,2.947,2.88,7.696-0.067,10.606   C273.769,191.725,271.863,192.444,269.96,192.444z"/>
	<path style="fill:#FFFFFF;" d="M287.753,372.683c-2.294,0-4.558-1.048-6.029-3.031c-2.468-3.327-1.771-8.024,1.555-10.492   c6.324-4.692,16.935-14.396,16.935-26.676c0-12.223-10.565-21.921-16.864-26.614c-7.345-5.47-13.874-11.874-19.405-19.032   c-2.533-3.278-1.929-7.988,1.349-10.521s7.988-1.929,10.521,1.349c4.696,6.078,10.247,11.52,16.497,16.176   c8.555,6.374,22.903,19.868,22.903,38.643c0,18.848-14.408,32.351-22.997,38.723C290.873,372.202,289.306,372.683,287.753,372.683z   "/>
	<circle style="fill:#FFFFFF;" cx="257.059" cy="259.44" r="7.5"/>
	<path style="fill:#333333;" d="M309.573,386.831c18.505-15.059,28.636-34.21,28.636-54.352c0-21.358-11.421-41.631-32.158-57.083   c-0.001-0.001-0.002-0.002-0.003-0.002c-11.235-8.365-19.109-20.007-22.512-33.144c15.295-11.495,23.963-26.898,23.963-42.894   c0-16.161-8.577-31.448-24.151-43.046c-2.728-2.031-5.169-4.344-7.304-6.913c19.851-11.765,31.455-29.217,31.455-47.898   c0-17.253-9.593-33.269-27.011-45.096c-10.902-7.403-24.121-12.595-38.488-15.284C244.535,37.009,246,32.173,246,27   c0-14.888-12.112-27-27-27s-27,12.112-27,27c0,5.173,1.465,10.009,3.999,14.121c-14.366,2.689-27.585,7.881-38.488,15.284   C140.093,68.231,130.5,84.247,130.5,101.5c0,18.683,11.604,36.134,31.455,47.898c-2.135,2.57-4.576,4.882-7.305,6.913   c-15.573,11.598-24.15,26.885-24.15,43.046c0,15.996,8.667,31.398,23.962,42.894c-3.402,13.137-11.276,24.779-22.514,33.146   c-20.737,15.452-32.158,35.725-32.158,57.083c0,20.141,10.131,39.293,28.636,54.352l-6.97,42.454   c-0.356,2.172,0.26,4.392,1.685,6.069c1.425,1.679,3.516,2.646,5.717,2.646h180.285c2.201,0,4.292-0.967,5.717-2.646   c1.425-1.678,2.041-3.897,1.685-6.069L309.573,386.831z M207,27c0-6.617,5.383-12,12-12s12,5.383,12,12s-5.383,12-12,12   S207,33.617,207,27z M145.5,101.5c0-12.129,7.258-23.737,20.438-32.687C180.006,59.261,198.851,54,219,54   s38.994,5.261,53.063,14.813c13.18,8.949,20.438,20.558,20.438,32.687c0,14.639-10.843,28.64-29.09,37.697h-88.82   C156.343,130.141,145.5,116.14,145.5,101.5z M163.608,168.343c5.309-3.952,9.802-8.706,13.43-14.146h83.924   c3.628,5.44,8.12,10.193,13.429,14.146c9.072,6.755,14.96,14.912,17.144,23.515H146.465   C148.65,183.255,154.538,175.098,163.608,168.343z M146.449,206.857h145.102c-2.287,9.115-8.723,17.627-18.714,24.613H165.162   C155.172,224.484,148.736,215.973,146.449,206.857z M114.79,332.479c0-16.503,9.276-32.504,26.118-45.054   c13.869-10.325,23.621-24.7,27.939-40.955h100.304c4.318,16.255,14.071,30.63,27.94,40.955   c16.842,12.552,26.118,28.552,26.118,45.054c0,15.92-8.606,31.352-24.294,43.67H139.084   C123.396,363.831,114.79,348.399,114.79,332.479z M137.689,423l5.229-31.851h152.162L300.311,423H137.689z"/>
</g>















</svg>
