<?xml version="1.0" encoding="iso-8859-1"?>
<!-- Generator: Adobe Illustrator 19.0.0, SVG Export Plug-In . SVG Version: 6.00 Build 0)  -->
<svg xmlns="http://www.w3.org/2000/svg" xmlns:xlink="http://www.w3.org/1999/xlink" version="1.1" id="Layer_1" x="0px" y="0px" viewBox="0 0 455.125 455.125" style="enable-background:new 0 0 455.125 455.125;" xml:space="preserve" width="512" height="512">
<g>
	<polygon style="fill:#9AD14B;" points="289.058,37.142 269.218,114.392 248.188,121.961 228.168,83.112 225.408,88.461    207.948,122.322 185.908,114.382 166.078,37.142 206.888,60.592 217.068,35.202 228.168,7.501 249.288,60.001  "/>
	<path style="fill:#9AD14B;" d="M302.668,102.332l-28.52,69.61c-13.82-7.61-29.7-11.94-46.59-11.94c-5.86,0-11.59,0.52-17.16,1.52   c-10.49,1.88-20.4,5.45-29.43,10.42l-28.51-69.61l33.45,12.05l13.85,4.99l8.19,2.95l20.22-39.21l20.02,38.85l21.03-7.57   L302.668,102.332z"/>
	<path style="fill:#F7B239;" d="M324.338,256.772v94.08c0,53.45-43.33,96.77-96.78,96.77c-53.44,0-96.77-43.32-96.77-96.77v-94.08   c0-36.55,20.27-68.37,50.18-84.83c13.82-7.61,29.7-11.94,46.59-11.94s32.77,4.33,46.59,11.94c8.05,4.42,15.4,9.96,21.84,16.41   C313.508,205.862,324.338,230.052,324.338,256.772z"/>
	<path style="fill:#E09B2D;" d="M181.788,350.852v-94.08c0-36.55,20.27-68.37,50.18-84.83c6.597-3.633,13.668-6.508,21.09-8.531   c-8.126-2.216-16.673-3.408-25.5-3.408c-16.89,0-32.77,4.33-46.59,11.94c-29.91,16.46-50.18,48.28-50.18,84.83v94.08   c0,53.45,43.33,96.77,96.77,96.77c8.828,0,17.376-1.188,25.502-3.402C211.99,433.029,181.788,395.474,181.788,350.852z"/>
	<polygon style="fill:#90BC42;" points="225.408,88.461 207.948,122.322 185.908,114.382 166.078,37.142 206.888,60.592    217.068,35.202 218.568,35.832  "/>
	<path style="fill:#90BC42;" d="M210.398,161.521c-10.49,1.88-20.4,5.45-29.43,10.42l-28.51-69.61l33.45,12.05l13.85,4.99   L210.398,161.521z"/>
	<path style="fill:#333333;" d="M283.53,168.833l26.078-63.655c1.124-2.743,0.526-5.891-1.524-8.032   c-2.052-2.141-5.173-2.872-7.959-1.867l-20.12,7.25l16.316-63.523c0.75-2.922-0.323-6.009-2.724-7.835   c-2.402-1.827-5.662-2.037-8.278-0.533l-32.292,18.56L235.123,4.701C233.98,1.86,231.226,0,228.165,0c-0.001,0-0.003,0-0.005,0   c-3.063,0.002-5.817,1.866-6.957,4.709l-18.068,45.075l-33.319-19.147c-2.616-1.502-5.875-1.292-8.277,0.534   c-2.401,1.826-3.474,4.913-2.724,7.834l16.309,63.522l-20.127-7.25c-2.79-1.005-5.908-0.271-7.958,1.869   c-2.05,2.141-2.647,5.288-1.524,8.031l26.077,63.656c-29.02,18.534-48.303,51.028-48.303,87.942v94.077   c0,57.496,46.776,104.272,104.272,104.272c57.495,0,104.271-46.776,104.271-104.272v-94.077   C331.834,219.861,312.551,187.368,283.53,168.833z M227.562,431.146l-23.874-23.874l23.876-23.875l23.873,23.874L227.562,431.146z    M262.043,417.878l10.223,10.223c-9.526,5.534-20.164,9.356-31.49,11.044L262.043,417.878z M214.347,439.145   c-11.325-1.688-21.962-5.51-31.488-11.044l10.222-10.222L214.347,439.145z M214.341,168.485l-21.264,21.264l-10.22-10.219   C192.381,173.996,203.017,170.173,214.341,168.485z M272.268,179.529l-10.22,10.221l-21.265-21.265   C252.107,170.173,262.743,173.995,272.268,179.529z M227.562,176.477l23.879,23.88l-23.878,23.879l-23.88-23.88L227.562,176.477z    M316.834,265.75v7.163l-20.297,20.297l-23.884-23.884l23.878-23.878L316.834,265.75z M307.139,234.841l5.407-5.407   c1.47,4.56,2.586,9.277,3.308,14.122L307.139,234.841z M216.955,303.812l-23.881,23.881L169.2,303.817l23.879-23.881   L216.955,303.812z M203.686,269.329l23.878-23.88l23.876,23.877l-23.879,23.879L203.686,269.329z M227.562,314.418l23.884,23.884   l-23.882,23.882l-23.883-23.885L227.562,314.418z M238.168,303.812l23.879-23.879l23.884,23.884l-23.879,23.879L238.168,303.812z    M262.047,258.719l-23.877-23.877l23.878-23.879l23.878,23.878L262.047,258.719z M216.957,234.843l-23.878,23.88l-23.882-23.882   l23.879-23.879L216.957,234.843z M182.473,269.33l-23.879,23.88l-20.304-20.305v-7.157l20.3-20.3L182.473,269.33z M139.271,243.554   c0.722-4.844,1.837-9.56,3.307-14.119l5.406,5.406L139.271,243.554z M147.988,303.817l-9.698,9.698v-19.397L147.988,303.817z    M138.291,341.875v-7.147l20.304-20.305l23.874,23.875l-23.877,23.877L138.291,341.875z M147.984,372.782l-5.407,5.407   c-1.47-4.56-2.585-9.277-3.307-14.121L147.984,372.782z M193.074,348.906l23.883,23.885l-23.876,23.876l-23.884-23.884   L193.074,348.906z M238.17,372.791l23.882-23.882l23.873,23.873l-23.883,23.883L238.17,372.791z M272.659,338.302l23.879-23.878   l20.297,20.297v7.152l-20.302,20.302L272.659,338.302z M315.855,364.066c-0.722,4.845-1.837,9.563-3.307,14.124l-5.408-5.408   L315.855,364.066z M307.145,303.817l9.69-9.69v19.38L307.145,303.817z M306.204,214.562l-9.672,9.672l-23.878-23.878l12.083-12.084   C293.458,195.563,300.772,204.483,306.204,214.562z M177.768,52.508l25.379,14.584c1.884,1.083,4.143,1.295,6.195,0.583   c2.052-0.712,3.695-2.279,4.503-4.295l14.332-35.754l14.151,35.171c0.811,2.014,2.453,3.578,4.504,4.288   c2.048,0.709,4.31,0.497,6.191-0.585l24.34-13.989l-14.427,56.17l-11.099,3.999l-17.007-33.007   c-1.286-2.496-3.858-4.065-6.667-4.065c-2.808,0-5.38,1.568-6.667,4.064l-17.196,33.367l-12.113-4.363L177.768,52.508z    M165.795,115.11l39.615,14.271c3.546,1.277,7.484-0.272,9.209-3.62l13.544-26.281l13.355,25.92   c1.726,3.348,5.665,4.898,9.208,3.621l38.6-13.906l-19.065,46.537c-13.039-5.876-27.493-9.149-42.699-9.149   c-15.206,0-29.661,3.274-42.7,9.15L165.795,115.11z M170.387,188.272l12.083,12.083l-23.879,23.879l-9.671-9.671   C154.352,204.484,161.666,195.564,170.387,188.272z M148.918,393.062l9.673-9.673l23.884,23.884l-12.086,12.085   C161.666,412.066,154.351,403.144,148.918,393.062z M284.735,419.359l-12.086-12.087l23.883-23.883l9.674,9.674   C300.773,403.145,293.458,412.067,284.735,419.359z"/>
	<path style="fill:#FFFFFF;" d="M301.337,369.332c-4.143,0-7.5-3.358-7.5-7.5v-105.06c0-17.701-6.899-34.344-19.429-46.865   c-4.438-4.447-9.471-8.228-14.965-11.244c-3.294-1.813-6.775-3.353-10.355-4.579c-3.919-1.342-6.008-5.607-4.666-9.525   c1.343-3.92,5.61-6.007,9.525-4.666c4.398,1.506,8.679,3.399,12.724,5.625c6.734,3.698,12.909,8.337,18.347,13.785   c15.358,15.348,23.819,35.759,23.819,57.468v105.06C308.837,365.974,305.48,369.332,301.337,369.332z"/>
	<circle style="fill:#FFFFFF;" cx="228.326" cy="182.824" r="7.5"/>
</g>















</svg>
