<?xml version="1.0" encoding="iso-8859-1"?>
<!-- Generator: Adobe Illustrator 19.0.0, SVG Export Plug-In . SVG Version: 6.00 Build 0)  -->
<svg xmlns="http://www.w3.org/2000/svg" xmlns:xlink="http://www.w3.org/1999/xlink" version="1.1" id="Layer_1" x="0px" y="0px" viewBox="0 0 441.767 441.767" style="enable-background:new 0 0 441.767 441.767;" xml:space="preserve" width="512" height="512">
<g>
	<path style="fill:#F7B239;" d="M397.557,170.293l-64.35,80.82c-9.81-10.14-23.56-16.44-38.79-16.44c-29.82,0-53.99,24.18-53.99,54   c0,19.6,10.44,36.76,26.06,46.22l-45.6,57.27l-176.67-221.88c48.46-38.65,109.87-61.74,176.67-61.74   C287.677,108.543,349.097,131.633,397.557,170.293z M303.417,168.673c0-9.11-7.39-16.5-16.5-16.5c-9.11,0-16.5,7.39-16.5,16.5   s7.39,16.5,16.5,16.5C296.027,185.173,303.417,177.783,303.417,168.673z M197.087,185.163c0-20.71-16.79-37.5-37.5-37.5   s-37.5,16.79-37.5,37.5s16.79,37.5,37.5,37.5S197.087,205.873,197.087,185.163z"/>
	<circle style="fill:#F95428;" cx="286.917" cy="168.673" r="16.5"/>
	<path style="fill:#9AD14B;" d="M333.207,251.113l-66.72,83.78c-15.62-9.46-26.06-26.62-26.06-46.22c0-29.82,24.17-54,53.99-54   C309.647,234.673,323.397,240.973,333.207,251.113z"/>
	<circle style="fill:#F95428;" cx="159.587" cy="185.163" r="37.5"/>
	<path style="fill:#B27214;" d="M434.267,124.183l-36.71,46.11c-48.46-38.66-109.88-61.75-176.67-61.75   c-66.8,0-128.21,23.09-176.67,61.74l-36.72-46.12c58.54-46.66,132.7-74.56,213.39-74.56   C301.567,49.603,375.737,77.503,434.267,124.183z"/>
	<path style="fill:#FFFFFF;" d="M170.443,202.262c-1.767,0-3.54-0.621-4.968-1.883c-3.102-2.745-3.391-7.485-0.646-10.587   c1.134-1.281,1.758-2.925,1.758-4.629c0-3.86-3.141-7-7-7c-1.863,0-3.619,0.729-4.944,2.055c-2.93,2.928-7.679,2.93-10.606,0.001   c-2.93-2.929-2.93-7.677-0.001-10.606c4.158-4.159,9.681-6.449,15.552-6.449c12.131,0,22,9.869,22,22   c0,5.37-1.962,10.544-5.525,14.57C174.58,201.407,172.516,202.262,170.443,202.262z"/>
	<path style="fill:#FFFFFF;" d="M272.514,274.262c-1.919,0-3.838-0.732-5.303-2.196c-2.93-2.929-2.93-7.677-0.001-10.606   c7.277-7.279,16.939-11.287,27.207-11.287c4.143,0,7.5,3.358,7.5,7.5c0,4.142-3.357,7.5-7.5,7.5c-6.261,0-12.155,2.448-16.6,6.893   C276.354,273.53,274.433,274.262,272.514,274.262z"/>
	<path style="fill:#FFFFFF;" d="M345.763,206.533c-1.627,0-3.266-0.527-4.642-1.613c-3.251-2.566-3.807-7.282-1.241-10.534   l18.183-23.041c2.567-3.252,7.284-3.807,10.534-1.242c3.251,2.566,3.807,7.282,1.241,10.534l-18.183,23.041   C350.175,205.554,347.98,206.533,345.763,206.533z"/>
	<path style="fill:#FFFFFF;" d="M401.443,135.977c-1.463,0-2.941-0.427-4.239-1.318c-22.168-15.225-46.244-27.519-71.56-36.541   c-25.081-8.939-51.298-14.618-77.923-16.881c-4.128-0.351-7.189-3.981-6.838-8.108c0.351-4.127,3.985-7.179,8.107-6.838   c27.91,2.372,55.394,8.326,81.688,17.697c26.539,9.458,51.778,22.346,75.017,38.306c3.414,2.345,4.281,7.014,1.937,10.429   C406.178,134.839,403.83,135.977,401.443,135.977z"/>
	<circle style="fill:#FFFFFF;" cx="221.431" cy="72.637" r="7.5"/>
	<circle style="fill:#FFFFFF;" cx="330.905" cy="216.856" r="7.5"/>
	<g>
		<path style="fill:#333333;" d="M438.944,118.321c-30.331-24.191-64.158-43.031-100.543-55.998    c-37.646-13.416-77.184-20.219-117.517-20.219c-40.331,0-79.869,6.802-117.517,20.216C66.985,75.285,33.158,94.12,2.825,118.303    c-3.237,2.581-3.771,7.297-1.191,10.536l213.384,267.996c1.423,1.787,3.583,2.828,5.867,2.828s4.444-1.041,5.867-2.828    l213.383-267.978C442.713,125.618,442.18,120.903,438.944,118.321z M220.884,380.122L54.824,171.562    c22.374-16.881,47.016-30.187,73.365-39.576c29.689-10.58,60.877-15.944,92.695-15.944s63.005,5.364,92.694,15.944    c26.352,9.39,50.996,22.698,73.372,39.581l-54.665,68.651c-10.756-8.458-23.925-13.049-37.873-13.049    c-33.905,0-61.489,27.589-61.489,61.5c0,18.851,8.371,36.168,22.745,47.769L220.884,380.122z M247.924,288.668    c0-25.64,20.855-46.5,46.489-46.5c10.5,0,20.418,3.441,28.53,9.783l-57.924,72.744    C254.218,315.921,247.924,302.873,247.924,288.668z M396.298,159.828c-23.677-17.914-49.772-32.025-77.685-41.972    c-31.31-11.157-64.191-16.814-97.729-16.814c-33.539,0-66.42,5.657-97.73,16.814c-27.91,9.946-54.003,24.055-77.677,41.966    l-27.389-34.398c27.493-20.942,57.842-37.403,90.313-48.973c36.027-12.837,73.872-19.346,112.482-19.346    c38.612,0,76.456,6.51,112.481,19.348c32.475,11.573,62.821,28.037,90.314,48.987L396.298,159.828z"/>
		<path style="fill:#333333;" d="M159.585,140.166c-24.812,0-44.998,20.186-44.998,44.998c0,24.813,20.187,44.999,44.998,44.999    s44.998-20.186,44.998-44.999C204.583,160.352,184.397,140.166,159.585,140.166z M159.585,215.162    c-16.541,0-29.998-13.458-29.998-29.999s13.457-29.998,29.998-29.998s29.998,13.457,29.998,29.998    S176.126,215.162,159.585,215.162z"/>
		<path style="fill:#333333;" d="M286.917,192.673c13.233,0,24-10.766,24-23.999c0-13.233-10.767-24-24-24s-23.999,10.766-23.999,24    C262.918,181.907,273.684,192.673,286.917,192.673z M286.917,159.675c4.963,0,9,4.037,9,9c0,4.962-4.037,8.999-9,8.999    c-4.962,0-8.999-4.037-8.999-8.999C277.918,163.712,281.955,159.675,286.917,159.675z"/>
		<circle style="fill:#333333;" cx="337.917" cy="171.68" r="7.5"/>
		<circle style="fill:#333333;" cx="163.927" cy="254.17" r="7.5"/>
		<circle style="fill:#333333;" cx="219.427" cy="317.162" r="7.5"/>
	</g>
</g>















</svg>
