<?xml version="1.0" encoding="iso-8859-1"?>
<!-- Generator: Adobe Illustrator 19.0.0, SVG Export Plug-In . SVG Version: 6.00 Build 0)  -->
<svg xmlns="http://www.w3.org/2000/svg" xmlns:xlink="http://www.w3.org/1999/xlink" version="1.1" id="Layer_1" x="0px" y="0px" viewBox="0 0 415.978 415.978" style="enable-background:new 0 0 415.978 415.978;" xml:space="preserve" width="512" height="512">
<g>
	<path style="fill:#F95428;" d="M343.812,69.008v8.27c0,52.58-42.62,95.21-95.21,95.21h-81.26V69.008H343.812z"/>
	<path style="fill:#F95428;" d="M254.812,346.208v2.12c0,22.29-18.07,40.36-40.36,40.36h-47.11v-42.48h0.09H254.812z"/>
	<path style="fill:#F95428;" d="M167.432,346.208h-0.09v42.48c-88.28,0-159.84-71.56-159.84-159.84s71.56-159.84,159.84-159.84   v103.48C92.502,172.488,37.992,308.308,167.432,346.208z"/>
	<path style="fill:#E54728;" d="M60.502,228.848c0-69.701,44.614-128.967,106.84-150.831v-9.009   c-88.28,0-159.84,71.56-159.84,159.84c0,88.28,71.56,159.84,159.84,159.84v-9.009C105.116,357.816,60.502,298.549,60.502,228.848z"/>
	<path style="fill:#FFFFFF;" d="M248.602,156.988c-4.142,0-7.5-3.358-7.5-7.5s3.358-7.5,7.5-7.5c3.837,0,7.679-0.339,11.421-1.008   c4.074-0.731,7.974,1.984,8.703,6.063c0.729,4.078-1.985,7.974-6.063,8.703C258.053,156.57,253.322,156.988,248.602,156.988z"/>
	<path style="fill:#FFFFFF;" d="M315.087,112.951c-0.979,0-1.974-0.193-2.931-0.6c-3.812-1.621-5.588-6.025-3.967-9.836   c1.646-3.872,2.915-7.921,3.771-12.034c0.843-4.056,4.814-6.662,8.87-5.815c4.055,0.843,6.659,4.815,5.815,8.87   c-1.056,5.076-2.621,10.072-4.652,14.849C320.779,111.239,318.004,112.951,315.087,112.951z"/>
	<path style="fill:#FFFFFF;" d="M214.452,376.188c-4.142,0-7.5-3.358-7.5-7.5s3.358-7.5,7.5-7.5c2.175,0,4.239-0.525,6.135-1.562   c3.634-1.986,8.191-0.65,10.178,2.985c1.986,3.635,0.65,8.191-2.985,10.178C223.712,375.013,219.103,376.188,214.452,376.188z"/>
	<path style="fill:#FFFFFF;" d="M145.992,157.758c-4.142,0-7.5-3.358-7.5-7.5v-42c0-4.142,3.358-7.5,7.5-7.5s7.5,3.358,7.5,7.5v42   C153.492,154.4,150.134,157.758,145.992,157.758z"/>
	<g>
		<path style="fill:#333333;" d="M401.298,34.462c-9.474-9.462-22.064-14.673-35.45-14.673H21.792c-4.107,0-7.688,3.164-7.811,7.269    c-0.128,4.247,3.278,7.731,7.497,7.731h344.37c9.383,0,18.208,3.653,24.843,10.28c6.797,6.807,10.466,15.902,10.28,25.537    c-0.371,19.245-16.578,34.433-35.827,34.433H347.5c2.483-8.833,3.815-18.145,3.815-27.761v-8.273c0-4.142-3.358-7.5-7.5-7.5    H168.962c-92.5,0-168.703,74.368-168.961,166.867c-0.258,92.49,74.91,167.817,167.341,167.817h47.11    c26.433,0,47.861-21.428,47.861-47.861v-2.119c0-4.142-3.358-7.5-7.5-7.5H187.79c-20.175,0-40.037-5.783-56.663-17.211    c-8.936-6.142-16.223-13.286-21.804-21.398c0,0,0,0,0,0h13.356c4.107,0,7.688-3.164,7.811-7.269    c0.128-4.247-3.278-7.731-7.497-7.731h-21.526c-1.331-3.527-2.358-7.159-3.101-10.871h11.377c4.107,0,7.688-3.164,7.811-7.269    c0.128-4.247-3.278-7.731-7.497-7.731H96.967c0.038-3.382,0.301-6.807,0.797-10.264c0.074-0.513,0.17-1.02,0.253-1.53h19.118    c4.107,0,7.688-3.164,7.811-7.269c0.128-4.247-3.278-7.731-7.497-7.731h-15.571c1.579-4.422,3.503-8.676,5.727-12.718h20.616    c4.107,0,7.688-3.164,7.811-7.269c0.128-4.247-3.278-7.731-7.497-7.731h-10.483c13.123-15.104,30.939-24.729,49.289-24.729h81.264    c41.382,0,77.122-24.603,93.373-59.948h22.99c27.676,0,51.107-22.639,51.008-50.315C415.93,56.414,410.723,43.9,401.298,34.462z     M174.842,353.709h72.031c-2.576,15.568-16.134,27.48-32.421,27.48h-39.61V353.709z M111.289,189.98    c-15.246,15.386-25.322,35.578-28.374,56.855c-3.21,22.387,1.649,43.749,14.055,61.774c13.329,19.369,34.466,33.849,62.872,43.1    v29.294C79.311,377.079,15,310.334,15,228.847C15,147.36,79.311,80.615,159.842,76.691v88.705    C142.28,167.305,125.274,175.865,111.289,189.98z M248.606,164.987h-73.764V76.505h161.473v0.773    C336.315,125.641,296.969,164.987,248.606,164.987z"/>
		<path style="fill:#333333;" d="M303.478,113.246h-47.899c-3.201,0-6.049,2.031-7.091,5.058c-1.042,3.026-0.049,6.38,2.473,8.352    l24.899,19.463c1.371,1.072,2.998,1.591,4.613,1.591c2.229,0,4.436-0.99,5.915-2.882c2.551-3.263,1.973-7.977-1.291-10.528    l-7.745-6.054h26.126c4.142,0,7.5-3.358,7.5-7.5S307.62,113.246,303.478,113.246z"/>
		<circle style="fill:#333333;" cx="296.482" cy="92.209" r="7.5"/>
	</g>
</g>















</svg>
