<?xml version="1.0" encoding="iso-8859-1"?>
<!-- Generator: Adobe Illustrator 19.0.0, SVG Export Plug-In . SVG Version: 6.00 Build 0)  -->
<svg xmlns="http://www.w3.org/2000/svg" xmlns:xlink="http://www.w3.org/1999/xlink" version="1.1" id="Layer_1" x="0px" y="0px" viewBox="0 0 389.471 389.471" style="enable-background:new 0 0 389.471 389.471;" xml:space="preserve" width="512" height="512">
<g>
	<path style="fill:#F7B239;" d="M92.162,100.477l-34.21,34.2h-0.01c-5.48-2.18-11.06-4.09-16.75-5.71   c-12.01-3.45-18.97-15.97-15.54-27.99s15.96-18.98,27.98-15.54c13.28,3.8,26.18,8.85,38.52,15.03L92.162,100.477z"/>
	<path style="fill:#F7B239;" d="M363.812,100.977c3.43,12.02-3.53,24.54-15.55,27.99c-5.68,1.62-11.27,3.53-16.75,5.71l-34.21-34.21   c12.34-6.18,25.24-11.23,38.52-15.03C347.842,82.007,360.372,88.957,363.812,100.977z"/>
	<path style="fill:#F7B239;" d="M99.042,157.607l-24.72,24.72c-0.01,0.01-0.02,0.01-0.03,0.02c-28.76,28.8-28.75,75.64,0.03,104.42   c26.58,26.58,68.55,28.6,97.5,6.09c-1.93-36.43-14.57-70.77-36.81-99.84C124.722,179.567,112.562,167.637,99.042,157.607z    M258.162,125.347l-30.7-30.7c-18.05-18.05-47.42-18.05-65.47,0l-30.69,30.7c14.8,11.63,28.17,25.14,39.66,40.16   c9.27,12.13,17.22,24.98,23.77,38.41c6.55-13.43,14.49-26.28,23.76-38.41C229.992,150.487,243.352,136.977,258.162,125.347z    M290.422,157.607c-13.52,10.03-25.69,21.96-35.98,35.41c-22.23,29.07-34.87,63.4-36.8,99.84c28.94,22.51,70.92,20.49,97.5-6.09   c28.78-28.78,28.79-75.62,0.02-104.42c-0.04-0.04-0.08-0.08-0.12-0.12L290.422,157.607z M347.192,150.357   c46.39,46.44,46.38,121.99-0.04,168.41c-23.22,23.22-53.73,34.83-84.23,34.83c-23.9,0-47.8-7.12-68.19-21.38   c-20.4,14.25-44.3,21.38-68.19,21.38c-30.51,0-61.01-11.61-84.23-34.83c-46.39-46.38-46.44-121.85-0.15-168.3   c0.05-0.05,0.1-0.1,0.15-0.15l15.64-15.64l34.21-34.2l37.83-37.84c35.7-35.69,93.78-35.69,129.48,0l37.83,37.83l34.21,34.21   l15.55,15.55C347.102,150.277,347.152,150.317,347.192,150.357z"/>
	<path style="fill:#FFFFFF;" d="M357.224,260.505c-0.475,0-0.956-0.045-1.438-0.139c-4.066-0.79-6.722-4.727-5.932-8.792   c5.622-28.941-3.36-58.636-24.027-79.449c-0.203-0.196-0.402-0.396-0.598-0.598l-87.322-87.321   c-6.854-6.853-14.945-11.838-24.048-14.815c-3.937-1.287-6.084-5.522-4.797-9.46c1.288-3.937,5.525-6.087,9.46-4.796   c11.364,3.717,21.454,9.929,29.991,18.464l87.36,87.359c0.027,0.027,0.054,0.056,0.081,0.083c0.114,0.117,0.229,0.233,0.348,0.348   c0.037,0.036,0.074,0.073,0.111,0.109c24.211,24.345,34.74,59.087,28.165,92.936C363.882,258.018,360.743,260.505,357.224,260.505z   "/>
	<circle style="fill:#FFFFFF;" cx="194.579" cy="58.778" r="7.5"/>
	<circle style="fill:#FFFFFF;" cx="345.232" cy="105.231" r="7.5"/>
	<g>
		<path style="fill:#333333;" d="M352.492,145.055c-0.034-0.034-0.095-0.096-0.13-0.13l-7.181-7.181    c1.719-0.552,3.436-1.084,5.146-1.572c15.967-4.573,25.249-21.283,20.692-37.25c-4.56-15.975-21.271-25.259-37.256-20.697    c-11.898,3.404-23.626,7.824-34.936,13.164l-34.052-34.052c-38.624-38.621-101.468-38.62-140.091,0.001L90.633,91.39    c-11.31-5.34-23.039-9.761-34.936-13.164c-7.74-2.219-15.88-1.284-22.919,2.629c-7.037,3.91-12.129,10.327-14.338,18.067    c-4.557,15.967,4.725,32.677,20.7,37.253c1.707,0.486,3.422,1.018,5.139,1.57l-7.219,7.219l-0.212,0.213    c-49.192,49.363-49.12,129.616,0.161,178.898c23.878,23.876,55.673,37.024,89.53,37.023c24.405-0.003,47.87-6.853,68.191-19.857    c20.324,13.008,43.791,19.857,68.193,19.857c33.86-0.001,65.655-13.15,89.528-37.025    C401.795,274.731,401.814,194.424,352.492,145.055z M337.884,92.648c8.026-2.296,16.421,2.37,18.711,10.392    c2.289,8.021-2.375,16.415-10.39,18.71c-4.259,1.214-8.556,2.622-12.827,4.191l-23.23-23.23    C319.19,98.714,328.482,95.338,337.884,92.648z M43.261,121.752c-8.022-2.298-12.687-10.692-10.398-18.713    c1.109-3.887,3.667-7.109,7.201-9.073s7.62-2.432,11.505-1.319c9.406,2.691,18.699,6.067,27.743,10.064l-23.23,23.23    C51.81,124.371,47.514,122.965,43.261,121.752z M341.843,313.467c-21.04,21.042-49.068,32.631-78.921,32.632    c-23.053,0-45.148-6.925-63.897-20.026c-1.29-0.902-2.793-1.353-4.296-1.353s-3.006,0.451-4.296,1.353    c-18.746,13.099-40.841,20.023-63.896,20.026c-29.85,0.001-57.878-11.588-78.923-32.63C4.172,270.025,4.108,199.28,47.472,155.765    c0.014-0.014,0.128-0.129,0.142-0.143l87.676-87.677c32.774-32.774,86.102-32.775,118.878-0.001l87.634,87.634l0.079,0.078    C385.359,199.177,385.342,269.97,341.843,313.467z"/>
		<path style="fill:#333333;" d="M320.445,177.025c-0.007-0.007-0.098-0.098-0.104-0.105l-87.573-87.575    c-10.147-10.146-23.657-15.733-38.04-15.733c-14.383,0.001-27.892,5.589-38.037,15.734l-87.676,87.677h0    c-0.022,0.022-0.045,0.045-0.067,0.068c-31.649,31.721-31.624,83.287,0.066,114.978c0,0,0,0,0,0    c15.752,15.751,36.61,23.782,57.558,23.782c17.537,0,35.136-5.63,49.852-17.073c1.938-1.507,3.016-3.867,2.885-6.318    c-2.008-37.871-15.266-73.834-38.34-104.003c-8.918-11.653-19.21-22.219-30.639-31.531l21.492-21.497    c12.311,10.299,23.455,21.925,33.182,34.636c8.919,11.67,16.652,24.165,22.983,37.139c1.257,2.576,3.873,4.211,6.74,4.211    c2.867,0,5.483-1.635,6.74-4.211c6.332-12.974,14.064-25.47,22.98-37.136c9.729-12.713,20.873-24.341,33.186-34.641l21.495,21.496    c-11.429,9.313-21.723,19.879-30.644,31.536c-23.073,30.167-36.33,66.129-38.338,104c-0.13,2.451,0.947,4.812,2.885,6.318    c14.719,11.446,32.317,17.076,49.857,17.076c20.945,0,41.805-8.033,57.554-23.784l0,0.001    C352.147,260.364,352.158,208.766,320.445,177.025z M129.057,197.57c20.412,26.688,32.474,58.303,35.015,91.667    c-26.117,17.959-61.772,14.899-84.451-7.776h0c-25.858-25.857-25.868-67.94-0.021-93.81c0.016-0.016,0.031-0.031,0.047-0.048    l20.036-20.029C110.682,176.377,120.544,186.445,129.057,197.57z M212.534,160.953c-6.56,8.583-12.52,17.588-17.806,26.894    c-5.286-9.307-11.247-18.312-17.808-26.896c-10.131-13.239-21.694-25.377-34.449-36.172l24.827-24.827    c7.312-7.313,17.054-11.341,27.43-11.341c10.377,0,20.119,4.027,27.433,11.341l24.826,24.826    C234.232,135.573,222.668,147.711,212.534,160.953z M309.837,281.46C309.837,281.46,309.837,281.461,309.837,281.46    c-22.675,22.678-58.33,25.735-84.451,7.774c2.541-33.363,14.603-64.979,35.013-91.664c8.516-11.127,18.379-21.197,29.379-30.001    l19.895,19.896l0.184,0.186C335.704,213.52,335.694,255.603,309.837,281.46z"/>
	</g>
</g>















</svg>
