<?xml version="1.0" encoding="iso-8859-1"?>
<!-- Generator: Adobe Illustrator 19.0.0, SVG Export Plug-In . SVG Version: 6.00 Build 0)  -->
<svg xmlns="http://www.w3.org/2000/svg" xmlns:xlink="http://www.w3.org/1999/xlink" version="1.1" id="Layer_1" x="0px" y="0px" viewBox="0 0 415.521 415.521" style="enable-background:new 0 0 415.521 415.521;" xml:space="preserve" width="512" height="512">
<g>
	<path style="fill:#9AD14B;" d="M294.944,119.394c-12.03-9.48-25.56-17.04-40.17-22.25c-14.73-5.25-30.54-8.1-47.01-8.1   c-32.81,0-63.01,11.31-87.19,30.35c4.15-3.41,50.56-42.53,45.76-88.13h82.85C244.384,76.864,290.794,115.984,294.944,119.394z"/>
	<path style="fill:#90BC42;" d="M205.704,31.264c2.38,22.56-7.79,43.54-19.16,59.39c-24.58,3.74-47.1,13.89-65.97,28.74   c4.15-3.41,50.56-42.53,45.76-88.13H205.704z"/>
	<path style="fill:#F7B239;" d="M329.504,106.634c43.37,0,78.52,58.21,78.52,130.02s-35.15,130.02-78.52,130.02   c-6.14,0-12.12-1.17-17.85-3.38c-5.73-2.21-11.23-5.46-16.41-9.62c-24.22,19.19-54.54,30.59-87.48,30.59s-63.26-11.4-87.49-30.59   c-10.36,8.33-21.98,13-34.26,13c-43.36,0-78.51-58.21-78.51-130.02s35.15-130.02,78.51-130.02c12.28,0,23.9,4.67,34.26,13   c0,0,0.01-0.01,0.03-0.03c0.09-0.06,0.18-0.13,0.27-0.21c24.18-19.04,54.38-30.35,87.19-30.35c16.47,0,32.28,2.85,47.01,8.1   c14.61,5.21,28.14,12.77,40.17,22.25c0.09,0.08,0.18,0.15,0.27,0.21c0.02,0.02,0.03,0.03,0.03,0.03   C305.604,111.304,317.224,106.634,329.504,106.634z"/>
	<path style="fill:#E09B2D;" d="M70.464,236.654c0,53.27,19.34,99.06,47.03,119.15c-9.64,6.99-20.29,10.87-31.48,10.87   c-43.36,0-78.51-58.21-78.51-130.02c0-71.81,35.15-130.021,78.51-130.021c11.19,0,21.84,3.88,31.48,10.87   C89.804,137.594,70.464,183.383,70.464,236.654z"/>
	<path style="fill:#FFFFFF;" d="M295.64,300.883c-0.981,0-1.979-0.194-2.938-0.604c-3.811-1.625-5.581-6.031-3.956-9.841   c7.271-17.048,10.959-35.144,10.959-53.785c0-10.388-1.169-20.746-3.476-30.789c-0.928-4.037,1.594-8.062,5.631-8.988   c4.034-0.93,8.062,1.593,8.988,5.631c2.559,11.143,3.856,22.631,3.856,34.146c0,20.676-4.092,40.752-12.162,59.67   C301.326,299.174,298.555,300.883,295.64,300.883z"/>
	<path style="fill:#FFFFFF;" d="M376.01,301.271c-0.813,0-1.64-0.133-2.451-0.414c-3.914-1.354-5.99-5.624-4.637-9.539   c5.627-16.274,8.602-35.177,8.602-54.664c0-34.62-11.179-79.215-35.723-95.317c-3.463-2.271-4.429-6.921-2.156-10.385   c2.271-3.464,6.922-4.431,10.385-2.156c11.873,7.789,22.577,22.189,30.141,40.549c8.082,19.615,12.354,42.891,12.354,67.31   c0,21.137-3.259,41.734-9.426,59.566C382.025,299.323,379.119,301.271,376.01,301.271z"/>
	<circle style="fill:#FFFFFF;" cx="295.086" cy="178.633" r="7.5"/>
	<circle style="fill:#FFFFFF;" cx="323.016" cy="130.922" r="7.5"/>
	<g>
		<path style="fill:#333333;" d="M306.695,148.443c-3.621,2.013-4.924,6.579-2.912,10.199    c12.833,23.086,19.616,50.062,19.616,78.011c0,27.948-6.783,54.925-19.616,78.012c-2.012,3.62-0.709,8.187,2.912,10.199    c1.154,0.642,2.403,0.945,3.637,0.945c2.635,0,5.191-1.391,6.563-3.857c14.068-25.311,21.505-54.807,21.505-85.299    c0-30.493-7.437-59.988-21.505-85.298C314.882,147.734,310.313,146.431,306.695,148.443z"/>
		<path style="fill:#333333;" d="M391.444,140.838c-16.239-26.894-38.236-41.705-61.938-41.705c-11.664,0-23.258,3.753-33.858,10.9    c-11.624-10.66-42.715-42.75-39.005-77.988c0.223-2.114-0.463-4.224-1.885-5.803c-1.423-1.58-3.448-2.482-5.574-2.482h-82.851    c-2.126,0-4.152,0.902-5.574,2.482c-1.422,1.579-2.107,3.688-1.885,5.803c3.71,35.239-27.384,67.33-39.004,77.987    c-10.599-7.146-22.193-10.899-33.856-10.899c-23.701,0-45.698,14.812-61.938,41.705C8.55,166.549,0,200.577,0,236.653    c0,36.077,8.55,70.104,24.076,95.815c16.24,26.894,38.237,41.704,61.938,41.704c11.787,0,23.503-3.826,34.192-11.119    c25.642,18.801,55.793,28.707,87.558,28.707c31.771,0,61.917-9.906,87.548-28.708c10.69,7.294,22.407,11.12,34.195,11.12    c23.701,0,45.698-14.811,61.938-41.705c15.526-25.71,24.076-59.737,24.076-95.814    C415.521,200.577,406.971,166.548,391.444,140.838z M174.18,38.76h67.158c0.212,19.617,8.321,37.56,17.902,51.979    c-16.305-6.069-33.634-9.193-51.476-9.193c-17.842,0-35.175,3.126-51.486,9.198C165.86,76.324,173.968,58.378,174.18,38.76z     M378.604,324.714c-13.419,22.221-30.854,34.458-49.098,34.458c-10.254,0-20.199-3.817-29.559-11.346    c-2.729-2.194-6.615-2.209-9.359-0.034c-23.911,18.951-52.552,28.968-82.825,28.968c-30.268,0-58.912-10.017-82.837-28.966    c-1.365-1.081-3.011-1.621-4.657-1.621c-1.665,0-3.329,0.553-4.701,1.655c-9.358,7.527-19.302,11.344-29.555,11.344    c-18.243,0-35.679-12.237-49.098-34.458C22.784,301.309,15,270.036,15,236.653s7.784-64.656,21.917-88.061    c13.418-22.222,30.855-34.459,49.098-34.459c10.252,0,20.196,3.816,29.555,11.345c2.729,2.194,6.613,2.208,9.357,0.034    c23.925-18.949,52.569-28.966,82.837-28.966c30.274,0,58.915,10.017,82.825,28.968c2.743,2.176,6.63,2.161,9.359-0.034    c9.36-7.529,19.305-11.347,29.559-11.347c18.242,0,35.679,12.237,49.098,34.459c14.133,23.404,21.916,54.678,21.916,88.061    S392.737,301.31,378.604,324.714z"/>
		<path style="fill:#333333;" d="M108.82,148.443c-3.619-2.008-8.186-0.708-10.199,2.911    c-14.069,25.309-21.505,54.804-21.505,85.299c0,30.494,7.437,59.99,21.505,85.299c1.371,2.467,3.927,3.857,6.562,3.857    c1.233,0,2.483-0.305,3.637-0.945c3.62-2.013,4.924-6.579,2.911-10.199c-12.833-23.086-19.616-50.062-19.616-78.012    s6.783-54.926,19.616-78.01C113.744,155.022,112.441,150.456,108.82,148.443z"/>
	</g>
</g>















</svg>
