<?xml version="1.0" encoding="iso-8859-1"?>
<!-- Generator: Adobe Illustrator 19.0.0, SVG Export Plug-In . SVG Version: 6.00 Build 0)  -->
<svg xmlns="http://www.w3.org/2000/svg" xmlns:xlink="http://www.w3.org/1999/xlink" version="1.1" id="Layer_1" x="0px" y="0px" viewBox="0 0 441.626 441.626" style="enable-background:new 0 0 441.626 441.626;" xml:space="preserve" width="512" height="512">
<g>
	<path style="fill:#90BC42;" d="M141.386,45.81l80.27,113.42c-49.36-37.26-55.96-25.92-75.41-48.6   C126.806,87.94,141.386,45.81,141.386,45.81z"/>
	<path style="fill:#9AD14B;" d="M301.926,45.81c0,0,14.58,42.13-4.86,64.82c-19.45,22.68-26.05,11.34-75.41,48.6L301.926,45.81z"/>
	<path style="fill:#E6E6E6;" d="M220.816,322.89c18.81,0,36.55,4.68,52.1,12.94v0.01c-0.66,0.43-1.33,0.86-2.01,1.27   c-20.22,12.39-34.91,32.05-40.31,55.15l-9.78,41.87l-9.77-41.82c-5.32-22.74-19.35-42.66-39.39-54.64   c-0.99-0.59-1.97-1.2-2.94-1.84C184.256,327.57,201.996,322.89,220.816,322.89z"/>
	<path style="fill:#F95428;" d="M124.826,254.34c0.48-52.76,44.07-95.56,96.83-95.11c52.62,0.46,95.14,43.26,95.14,95.99   c0,33.8-17.47,63.52-43.88,80.62v-0.01c-15.55-8.26-33.29-12.94-52.1-12.94c-18.82,0-36.56,4.68-52.1,12.94   C142.076,318.6,124.526,288.51,124.826,254.34z"/>
	<g>
		<path style="fill:#CCCCCC;" d="M217.216,392.31l3.6,41.82l-9.77-41.82c-5.32-22.74-19.35-42.66-39.39-54.64    c-0.99-0.59-1.97-1.2-2.94-1.84c8.71-4.63,18.12-8.14,28.02-10.33c1.5,3.81,3.14,7.27,4.88,10.33c0.36,0.64,0.72,1.25,1.08,1.84    C210.086,349.65,215.256,369.57,217.216,392.31z"/>
		<path style="fill:#E54728;" d="M220.816,159.23c-19.32,0.01-35.2,42.64-35.38,95.11c-0.09,28.11,4.27,53.46,11.3,71.16    c-9.9,2.19-19.31,5.7-28.02,10.33c-26.64-17.23-44.19-47.32-43.89-81.49C125.306,201.87,168.436,159.24,220.816,159.23z"/>
	</g>
	<path style="fill:#FFFFFF;" d="M274.448,312.24c-1.822,0-3.649-0.66-5.092-1.995c-3.04-2.813-3.224-7.559-0.41-10.599   c11.189-12.092,17.351-27.868,17.351-44.426c0-23.544-12.833-45.419-33.491-57.088c-3.607-2.037-4.879-6.612-2.842-10.219   c2.037-3.607,6.612-4.879,10.219-2.842c25.36,14.325,41.114,41.204,41.114,70.148c0,20.346-7.58,39.741-21.342,54.613   C278.476,311.431,276.465,312.24,274.448,312.24z"/>
	<circle style="fill:#FFFFFF;" cx="232.174" cy="183.115" r="7.5"/>
	<path style="fill:#333333;" d="M294.287,182.34c-15.231-15.355-34.449-25.354-55.334-29.029   c16.7-11.501,27.188-16.265,35.257-19.93c10.4-4.724,17.915-8.136,28.548-20.542c21.992-25.656,6.907-70.261,6.254-72.146   c-0.919-2.657-3.248-4.576-6.031-4.972c-2.78-0.396-5.554,0.798-7.178,3.092l-66.646,94.172V7.5c0-4.143-3.358-7.5-7.5-7.5   s-7.5,3.357-7.5,7.5v125.486l-66.646-94.173c-1.625-2.295-4.398-3.493-7.178-3.092c-2.784,0.396-5.112,2.314-6.031,4.972   c-0.653,1.886-15.737,46.49,6.254,72.146c10.634,12.406,18.148,15.819,28.548,20.542c8.018,3.641,18.427,8.372,34.944,19.716   c-48.741,7.984-86.261,50.163-86.717,101.174c-0.328,36.619,19.014,71.044,50.478,89.841c17.927,10.71,31.023,28.897,35.931,49.898   l9.772,41.821c0.793,3.394,3.818,5.794,7.303,5.794s6.51-2.4,7.303-5.794l9.783-41.869c4.894-20.942,18.008-38.864,36.93-50.462   c30.978-18.989,49.472-51.992,49.472-88.283C324.301,227.734,313.642,201.852,294.287,182.34z M298.473,61.008   c0.336,2.112,0.63,4.367,0.844,6.718c0.978,10.757,0.393,25.623-7.947,35.353c-8.472,9.884-13.761,12.286-23.362,16.646   c-4.698,2.134-10.167,4.617-17.046,8.418L298.473,61.008z M175.306,119.725c-9.601-4.36-14.89-6.763-23.362-16.646   c-8.281-9.661-8.907-24.391-7.974-35.045c0.215-2.454,0.521-4.814,0.874-7.022l47.509,67.133   C185.473,124.342,180.005,121.858,175.306,119.725z M223.293,390.551l-2.479,10.612l-2.469-10.564   c-5.015-21.462-17.282-40.472-34.241-53.505c11.667-4.404,24.148-6.703,36.708-6.703c12.621,0,25.163,2.32,36.879,6.765   C240.325,350.677,228.261,369.287,223.293,390.551z M272.348,327.153c-15.971-7.701-33.688-11.762-51.536-11.762   c-17.843,0-35.554,4.059-51.521,11.754c-23.216-16.687-37.22-43.915-36.962-72.739c0.434-48.507,40.054-87.677,88.49-87.677   c0.256,0,0.518,0.001,0.774,0.004c23.472,0.202,45.506,9.496,62.045,26.17c16.549,16.684,25.663,38.813,25.663,62.314   C309.301,284.094,295.599,310.533,272.348,327.153z"/>
</g>















</svg>
