<?xml version="1.0" encoding="iso-8859-1"?>
<!-- Generator: Adobe Illustrator 19.0.0, SVG Export Plug-In . SVG Version: 6.00 Build 0)  -->
<svg xmlns="http://www.w3.org/2000/svg" xmlns:xlink="http://www.w3.org/1999/xlink" version="1.1" id="Layer_1" x="0px" y="0px" viewBox="0 0 370 370" style="enable-background:new 0 0 370 370;" xml:space="preserve" width="512" height="512">
<g>
	<path style="fill:#F2F2F2;" d="M277.963,49.533v34.85H92.033v-34.85c0-23.21,18.82-42.03,42.04-42.03h101.85   C259.143,7.503,277.963,26.323,277.963,49.533z"/>
	<path style="fill:#E6E6E6;" d="M185.071,7.503h-50.997c-23.22,0-42.04,18.82-42.04,42.03v34.85h50.997v-34.85   C143.031,26.323,161.851,7.503,185.071,7.503z"/>
	<path style="fill:#E6E6E6;" d="M308.573,308.713c3.88,28.45-18.23,53.79-46.94,53.79h-153.27c-28.71,0-50.82-25.34-46.94-53.79   l30.61-224.33h185.93L308.573,308.713z"/>
	<path style="fill:#CCCCCC;" d="M154.203,362.503h-45.84c-28.71,0-50.82-25.34-46.94-53.79l30.61-224.33h55.61l-12.3,224.33   C133.783,337.163,142.673,362.503,154.203,362.503z"/>
	<path style="fill:#FFFFFF;" d="M285.775,319.322c-3.692,0-6.909-2.727-7.422-6.487L254.96,141.4   c-0.56-4.104,2.313-7.885,6.417-8.444c4.108-0.568,7.885,2.313,8.445,6.417l23.393,171.435c0.56,4.104-2.313,7.885-6.417,8.444   C286.454,319.3,286.112,319.322,285.775,319.322z"/>
	<path style="fill:#FFFFFF;" d="M254.963,68.884c-4.142,0-7.5-3.357-7.5-7.5V49.533c0-6.357-5.177-11.53-11.54-11.53   c-4.142,0-7.5-3.357-7.5-7.5s3.358-7.5,7.5-7.5c14.634,0,26.54,11.901,26.54,26.53v11.851   C262.463,65.526,259.105,68.884,254.963,68.884z"/>
	<circle style="fill:#FFFFFF;" cx="258.409" cy="111.202" r="7.5"/>
	<g>
		<path style="fill:#333333;" d="M316.006,307.703L285.463,83.876v-34.34C285.463,22.222,263.241,0,235.927,0H134.073    c-27.314,0-49.536,22.222-49.536,49.536v34.34L53.994,307.703c-2.143,15.706,2.606,31.563,13.029,43.505S92.516,370,108.368,370    h153.264c15.852,0,30.921-6.85,41.344-18.792S318.149,323.409,316.006,307.703z M99.537,49.536    C99.537,30.493,115.03,15,134.073,15h101.854c19.043,0,34.536,15.493,34.536,34.536v27.35H99.537V49.536z M291.676,341.345    C284.101,350.022,273.151,355,261.632,355H108.368c-11.519,0-22.469-4.978-30.043-13.655c-7.574-8.678-11.025-20.201-9.468-31.614    L98.583,91.886h172.834l29.726,217.845C302.7,321.144,299.25,332.667,291.676,341.345z"/>
		<path style="fill:#333333;" d="M135.94,109.018c-4.141-0.29-7.715,2.83-8.002,6.962l-13.36,192.22    c-0.287,4.133,2.83,7.715,6.962,8.003c0.177,0.012,0.353,0.018,0.528,0.018c3.905,0,7.199-3.024,7.474-6.979l13.36-192.221    C143.189,112.888,140.073,109.306,135.94,109.018z"/>
		<path style="fill:#333333;" d="M242.062,115.979c-0.288-4.132-3.881-7.248-8.002-6.962c-4.132,0.288-7.249,3.87-6.962,8.002    l13.36,192.221c0.275,3.955,3.569,6.979,7.474,6.979c0.175,0,0.351-0.006,0.528-0.018c4.132-0.288,7.249-3.87,6.962-8.003    L242.062,115.979z"/>
	</g>
</g>















</svg>
