<?xml version="1.0" encoding="iso-8859-1"?>
<!-- Generator: Adobe Illustrator 19.0.0, SVG Export Plug-In . SVG Version: 6.00 Build 0)  -->
<svg xmlns="http://www.w3.org/2000/svg" xmlns:xlink="http://www.w3.org/1999/xlink" version="1.1" id="Layer_1" x="0px" y="0px" viewBox="0 0 455.021 455.021" style="enable-background:new 0 0 455.021 455.021;" xml:space="preserve" width="512" height="512">
<g>
	<rect x="127.344" y="379.284" style="fill:#E6E6E6;" width="200.34" height="68.24"/>
	<polygon style="fill:#E6E6E6;" points="298.324,189.534 327.684,189.534 327.684,257.784 127.344,257.784 127.344,189.534    156.704,189.534  "/>
	<rect x="127.344" y="257.784" style="fill:#F95428;" width="200.34" height="121.5"/>
	<g>
		<rect x="127.344" y="379.284" style="fill:#CCCCCC;" width="56.44" height="68.24"/>
		<rect x="127.344" y="189.534" style="fill:#CCCCCC;" width="56.44" height="68.25"/>
		<rect x="127.344" y="257.784" style="fill:#E54728;" width="56.44" height="121.5"/>
	</g>
	<path style="fill:#F2F2F2;" d="M323.944,81.144l8.54,14.71l-3.6,16.62l3.6,16.62l-8.54,14.71l-1.73,16.93l-12.69,11.32l-6.87,15.56   l-4.33,1.92h-141.62l-4.34-1.92l-6.87-15.56l-12.69-11.32l-1.73-16.93l-8.54-14.7l3.61-16.63l-3.61-16.62l8.54-14.71l1.73-16.93   l12.69-11.33l6.87-15.55l15.57-6.88l11.32-12.69l16.92-1.72l14.71-8.54l16.62,3.6l16.63-3.6l14.71,8.54l16.92,1.72l11.33,12.69   l15.56,6.88l6.87,15.55l12.69,11.33L323.944,81.144z M301.894,111.714c0-41.08-33.3-74.38-74.38-74.38s-74.38,33.3-74.38,74.38   s33.3,74.38,74.38,74.38S301.894,152.794,301.894,111.714z"/>
	<circle style="fill:#E6E6E6;" cx="227.514" cy="111.714" r="74.38"/>
	<path style="fill:#FFFFFF;" d="M302.074,430.742c-4.143,0-7.5-3.357-7.5-7.5V234.253c0-4.143,3.357-7.5,7.5-7.5s7.5,3.357,7.5,7.5   v188.988C309.574,427.384,306.217,430.742,302.074,430.742z"/>
	<circle style="fill:#FFFFFF;" cx="302.074" cy="211.752" r="7.5"/>
	<g>
		<path style="fill:#333333;" d="M335.182,440.08v-243.1c3.719-0.443,6.604-3.603,6.604-7.441c0-4.143-3.357-7.5-7.5-7.5h-6.604    h-14.365l2.414-5.467l11.478-10.247c1.396-1.247,2.275-2.971,2.466-4.833l1.564-15.314l7.735-13.313    c0.939-1.618,1.241-3.529,0.844-5.358l-3.263-15.032l3.263-15.031c0.397-1.829,0.096-3.74-0.844-5.358l-7.735-13.313    l-1.564-15.314c-0.19-1.862-1.069-3.586-2.466-4.833l-11.478-10.248l-6.213-14.072c-0.755-1.71-2.121-3.076-3.831-3.831    l-14.078-6.219L281.36,12.773c-1.247-1.396-2.971-2.276-4.833-2.466l-15.315-1.563l-13.308-7.729    c-1.619-0.939-3.529-1.24-5.357-0.844l-15.038,3.263L212.477,0.17c-1.828-0.396-3.738-0.096-5.356,0.843l-13.314,7.73    l-15.31,1.563c-1.862,0.189-3.587,1.069-4.833,2.466l-10.248,11.479l-14.078,6.219c-1.709,0.755-3.074,2.12-3.83,3.829    l-6.219,14.073l-11.479,10.249c-1.396,1.247-2.275,2.971-2.466,4.833l-1.564,15.315l-7.73,13.314    c-0.939,1.618-1.24,3.528-0.843,5.357l3.264,15.03l-3.264,15.038c-0.397,1.829-0.096,3.739,0.844,5.357l7.729,13.309l1.564,15.314    c0.19,1.862,1.069,3.586,2.466,4.833l11.479,10.248l2.415,5.466h-14.364h-6.604c-4.143,0-7.5,3.357-7.5,7.5    c0,3.839,2.885,6.998,6.604,7.441v243.1c-3.719,0.443-6.604,3.603-6.604,7.441c0,4.143,3.357,7.5,7.5,7.5h6.604h200.343h6.604    c4.143,0,7.5-3.357,7.5-7.5C341.786,443.682,338.901,440.523,335.182,440.08z M134.839,265.279h185.343v106.5H134.839V265.279z     M158.054,181.927l-5.701-12.9c-0.433-0.978-1.068-1.852-1.865-2.563l-10.519-9.391l-1.433-14.027    c-0.108-1.06-0.44-2.084-0.976-3.005l-7.08-12.19l2.992-13.786c0.228-1.049,0.228-2.134,0-3.183l-2.992-13.779l7.081-12.196    c0.534-0.921,0.866-1.944,0.975-3.004l1.434-14.028l10.518-9.391c0.797-0.712,1.433-1.586,1.865-2.563l5.701-12.9l12.906-5.701    c0.979-0.432,1.853-1.068,2.564-1.865l9.391-10.519l14.021-1.433c1.06-0.107,2.083-0.44,3.004-0.975l12.196-7.081l13.78,2.991    c1.049,0.229,2.133,0.229,3.182,0l13.786-2.991l12.19,7.08c0.921,0.535,1.945,0.868,3.005,0.976l14.028,1.433l9.391,10.519    c0.712,0.797,1.586,1.434,2.564,1.865l12.905,5.7l5.694,12.899c0.433,0.979,1.068,1.853,1.866,2.565l10.519,9.391l1.433,14.028    c0.108,1.061,0.44,2.085,0.976,3.006l7.086,12.195l-2.991,13.779c-0.228,1.048-0.228,2.134,0,3.182l2.991,13.78l-7.086,12.195    c-0.535,0.921-0.867,1.945-0.976,3.006l-1.433,14.027l-10.519,9.391c-0.798,0.712-1.434,1.587-1.866,2.565l-5.694,12.898    l-0.252,0.111H269.39c23.935-14.308,40.002-40.471,40.002-70.325c0-45.149-36.731-81.882-81.881-81.882    s-81.882,36.732-81.882,81.882c0,29.854,16.068,56.018,40.003,70.325h-27.327L158.054,181.927z M227.512,178.594    c-36.879,0-66.882-30.003-66.882-66.881c0-36.879,30.003-66.882,66.882-66.882c36.878,0,66.881,30.003,66.881,66.882    C294.393,148.591,264.39,178.594,227.512,178.594z M320.182,197.039v53.24H134.839v-53.24H320.182z M134.839,440.021v-53.242    h185.343v53.242H134.839z"/>
		<path style="fill:#333333;" d="M175.764,294.531h103.494c4.143,0,7.5-3.357,7.5-7.5s-3.357-7.5-7.5-7.5H175.764    c-4.143,0-7.5,3.357-7.5,7.5S171.621,294.531,175.764,294.531z"/>
		<path style="fill:#333333;" d="M279.258,311.03H175.764c-4.143,0-7.5,3.357-7.5,7.5s3.357,7.5,7.5,7.5h103.494    c4.143,0,7.5-3.357,7.5-7.5S283.401,311.03,279.258,311.03z"/>
		<path style="fill:#333333;" d="M279.258,342.528H175.764c-4.143,0-7.5,3.357-7.5,7.5s3.357,7.5,7.5,7.5h103.494    c4.143,0,7.5-3.357,7.5-7.5S283.401,342.528,279.258,342.528z"/>
	</g>
</g>















</svg>
