<?xml version="1.0" encoding="iso-8859-1"?>
<!-- Generator: Adobe Illustrator 19.0.0, SVG Export Plug-In . SVG Version: 6.00 Build 0)  -->
<svg xmlns="http://www.w3.org/2000/svg" xmlns:xlink="http://www.w3.org/1999/xlink" version="1.1" id="Layer_1" x="0px" y="0px" viewBox="0 0 441 441" style="enable-background:new 0 0 441 441;" xml:space="preserve" width="512" height="512">
<g>
	<polygon style="fill:#F95428;" points="283.893,7.503 279.023,42.913 266.683,42.913 260.713,75.103 180.283,75.103    174.323,42.913 161.973,42.913 157.113,7.503 167.263,7.503 273.743,7.503  "/>
	<polygon style="fill:#E54728;" points="205.503,7.503 167.263,7.503 157.113,7.503 161.973,42.913 174.323,42.913 180.283,75.104    214.283,75.104  "/>
	<path style="fill:#666666;" d="M188.333,232.423h64.34c4.99,16.8,10.93,33.37,17.79,49.68l4.17,9.9   c15.14,36,20.32,74.99,15.16,113.5h-138.59c-5.15-38.51,0.02-77.5,15.17-113.5l4.16-9.9   C177.393,265.793,183.333,249.223,188.333,232.423z"/>
	<path style="fill:#4D4D4D;" d="M193.606,292.003l4.16-9.899c6.86-16.311,12.8-32.88,17.8-49.681h-27.233   c-5,16.801-10.94,33.37-17.8,49.681l-4.16,9.899c-15.15,36-20.32,74.99-15.17,113.5h27.233   C173.286,366.993,178.456,328.003,193.606,292.003z"/>
	<path style="fill:#A3E3E5;" d="M252.673,232.423h-64.34c12.49-41.92,19.15-85.22,19.89-129.32h24.56   C233.513,147.203,240.173,190.503,252.673,232.423z"/>
	<path style="fill:#99E2FF;" d="M300.443,281.143c18.83,44.77,24,94.11,14.87,141.81c-1.17,6.12-6.53,10.55-12.76,10.55h-164.11   c-3.12,0-6.01-1.11-8.27-2.98c-2.27-1.87-3.89-4.51-4.48-7.57c-9.14-47.7-3.96-97.04,14.87-141.81l4.16-9.89   c23.47-55.81,35.56-115.74,35.56-176.28v-19.87h80.43v19.87c0,60.54,12.09,120.47,35.56,176.28L300.443,281.143z M289.793,405.503   c5.16-38.51-0.02-77.5-15.16-113.5l-4.17-9.9c-6.86-16.31-12.8-32.88-17.79-49.68c-12.5-41.92-19.16-85.22-19.89-129.32h-24.56   c-0.74,44.1-7.4,87.4-19.89,129.32c-5,16.8-10.94,33.37-17.8,49.68l-4.16,9.9c-15.15,36-20.32,74.99-15.17,113.5H289.793z"/>
	<path style="fill:#FFFFFF;" d="M267.054,358.827c-3.709,0-6.933-2.75-7.427-6.527c-2.183-16.669-6.591-32.974-13.104-48.461   l-4.174-9.907c-5.413-12.869-10.353-26.086-14.684-39.287c-1.292-3.936,0.853-8.173,4.788-9.464   c3.938-1.294,8.174,0.854,9.464,4.788c4.206,12.816,9.002,25.65,14.257,38.144l4.174,9.908   c7.034,16.728,11.795,34.333,14.151,52.332c0.538,4.107-2.355,7.872-6.463,8.41C267.707,358.806,267.378,358.827,267.054,358.827z"/>
	<path style="fill:#FFFFFF;" d="M242.806,63.005c-0.731,0-1.474-0.107-2.209-0.334c-3.959-1.218-6.181-5.415-4.962-9.374l4-13   c1.217-3.96,5.417-6.179,9.374-4.962c3.959,1.218,6.181,5.415,4.962,9.374l-4,13C248.98,60.933,246.011,63.005,242.806,63.005z"/>
	<circle style="fill:#FFFFFF;" cx="268.628" cy="382.503" r="7.5"/>
	<circle style="fill:#FFFFFF;" cx="260.903" cy="25.003" r="7.5"/>
	<g>
		<path style="fill:#333333;" d="M307.353,278.239l-4.162-9.897c-23.209-55.178-34.978-113.508-34.978-173.369v-19.19l4.702-25.372    h6.111c3.748,0,6.921-2.767,7.431-6.479l4.862-35.41c0.294-2.147-0.354-4.316-1.778-5.95C288.117,0.938,286.056,0,283.889,0    H157.111c-2.167,0-4.229,0.938-5.652,2.57c-1.425,1.634-2.072,3.803-1.778,5.95l4.862,35.41c0.51,3.713,3.683,6.479,7.431,6.479    h6.111l4.703,25.378v19.185c0,59.859-11.769,118.189-34.978,173.369l-4.163,9.896c-19.468,46.282-24.767,96.813-15.324,146.128    c1.846,9.638,10.309,16.634,20.122,16.634h164.111c9.813,0,18.275-6.996,20.121-16.634v-0.001    C332.12,375.051,326.821,324.521,307.353,278.239z M165.711,15h109.577l-2.802,20.41h-5.809c-3.615,0-6.716,2.579-7.374,6.134    l-4.829,26.058h-67.949l-4.83-26.058c-0.658-3.555-3.759-6.134-7.374-6.134h-5.809L165.711,15z M307.945,421.545L307.945,421.545    c-0.494,2.581-2.761,4.455-5.389,4.455H138.445c-2.629,0-4.896-1.874-5.39-4.455c-8.885-46.4-3.898-93.944,14.418-137.49    l4.163-9.896c23.988-57.031,36.151-117.318,36.151-179.186V82.602h65.426v12.371c0,61.87,12.163,122.156,36.151,179.185    l4.162,9.897C311.844,327.601,316.83,375.145,307.945,421.545z"/>
		<path style="fill:#333333;" d="M277.381,279.198c-23.613-56.138-36.097-115.427-37.102-176.221    c-0.067-4.093-3.405-7.376-7.499-7.376H208.22c-4.094,0-7.432,3.283-7.499,7.376c-1.005,60.793-13.488,120.083-37.102,176.222    l-4.163,9.896c-15.584,37.051-21.006,77.647-15.682,117.401c0.499,3.724,3.677,6.504,7.434,6.504h138.585    c3.758,0,6.935-2.78,7.434-6.504c5.324-39.754-0.099-80.35-15.683-117.4L277.381,279.198z M215.542,110.602h9.916    c1.221,38.866,7.008,77.107,17.263,114.318h-44.442C208.534,187.709,214.321,149.468,215.542,110.602z M283.127,398H157.874    c-3.58-35.016,1.709-70.519,15.408-103.089l4.163-9.896c6.237-14.827,11.713-29.87,16.439-45.096h53.232    c4.726,15.226,10.202,30.268,16.439,45.095l4.163,9.897C281.418,327.482,286.706,362.984,283.127,398z"/>
	</g>
</g>















</svg>
