<?xml version="1.0" encoding="iso-8859-1"?>
<!-- Generator: Adobe Illustrator 19.0.0, SVG Export Plug-In . SVG Version: 6.00 Build 0)  -->
<svg xmlns="http://www.w3.org/2000/svg" xmlns:xlink="http://www.w3.org/1999/xlink" version="1.1" id="Layer_1" x="0px" y="0px" viewBox="0 0 420.714 420.714" style="enable-background:new 0 0 420.714 420.714;" xml:space="preserve" width="512" height="512">
<g>
	<path style="fill:#F2F2F2;" d="M293.565,188.91c21.53,0,38.99,17.46,38.99,39s-17.46,39-38.99,39c-21.54,0-39-17.46-39-39   S272.025,188.91,293.565,188.91z"/>
	<path style="fill:#B27214;" d="M349.175,103.71c86.38,55.95,81.25,173.25,9.29,231.57c-1.35,1.09-2.72,2.15-4.12,3.19   c-44.62,33.08-132.86,36.75-179.74-34.46c-40.3-61.23-81.81-60.65-105.36-62.03c-23.56-1.38-78.1-2.76-57.03-67.55   c21.08-64.78,128.92-148.87,275.2-100.62C312.365,82.04,332.345,92.8,349.175,103.71z M342.725,315.85   c30.45-24.68,47.4-62.74,45.32-101.82c-1.97-36.97-20.6-68.7-52.46-89.34c-18.59-12.04-36.38-20.67-56.01-27.14   c-26.22-8.65-52.32-13.04-77.55-13.04c-52.23,0-90.11,18.4-112.7,33.83c-26.22,17.93-46.16,41.79-53.33,63.83   c-3.95,12.13-4.64,21.81-1.85,25.89c4.9,7.17,25.76,8.35,34.67,8.85c0,0,3.95,0.22,5.03,0.28c12.97,0.69,32.58,1.73,54.57,11.65   c25.51,11.52,47.45,31.61,67.07,61.42c26.32,39.98,64.63,45.96,85.13,45.96c0,0,0,0,0.01,0c21.77,0,43.77-6.67,58.83-17.83   C340.545,317.58,341.645,316.72,342.725,315.85z"/>
	<path style="fill:#F95428;" d="M388.045,214.03c2.08,39.08-14.87,77.14-45.32,101.82c-1.08,0.87-2.18,1.73-3.27,2.54   c-15.06,11.16-37.06,17.83-58.83,17.83c-0.01,0-0.01,0-0.01,0c-20.5,0-58.81-5.98-85.13-45.96c-19.62-29.81-41.56-49.9-67.07-61.42   c-21.99-9.92-41.6-10.96-54.57-11.65c-1.08-0.06-5.03-0.28-5.03-0.28c-8.91-0.5-29.77-1.68-34.67-8.85   c-2.79-4.08-2.1-13.76,1.85-25.89c7.17-22.04,27.11-45.9,53.33-63.83c22.59-15.43,60.47-33.83,112.7-33.83   c25.23,0,51.33,4.39,77.55,13.04c19.63,6.47,37.42,15.1,56.01,27.14C367.445,145.33,386.075,177.06,388.045,214.03z    M332.555,227.91c0-21.54-17.46-39-38.99-39c-21.54,0-39,17.46-39,39s17.46,39,39,39C315.095,266.91,332.555,249.45,332.555,227.91   z"/>
	<circle style="fill:#FFFFFF;" cx="236.777" cy="110.495" r="7.5"/>
	<g>
		<polygon style="fill:#333333;" points="363.188,341.1 363.186,341.101 363.185,341.102   "/>
		<path style="fill:#333333;" d="M420.497,212.304c-1.205-22.675-7.338-43.99-18.231-63.354    c-11.624-20.662-28.113-38.002-49.01-51.54c-20.699-13.408-41.469-23.458-63.496-30.724    c-36.288-11.969-72.339-16.647-107.152-13.914c-30.829,2.423-60.074,10.547-86.924,24.147    c-44.038,22.307-78.752,58.783-90.596,95.194c-7.463,22.946-6.712,41.213,2.233,54.292c13.927,20.363,42.55,21.984,59.651,22.953    l1.832,0.105c1.069,0.063,2.174,0.121,3.314,0.182c23.818,1.262,59.813,3.169,96.225,58.484    c26.422,40.138,62.32,53.94,87.782,58.451c8.032,1.423,16.208,2.116,24.372,2.116c28.727,0,57.253-8.59,78.317-24.205    c1.466-1.086,2.937-2.227,4.372-3.391C401.699,309.894,423.124,261.746,420.497,212.304z M353.742,329.448    c-0.001,0.001-0.002,0.001-0.002,0.001c-1.268,1.028-2.564,2.035-3.858,2.992c-23.852,17.682-58.773,25.103-91.141,19.371    c-22.561-3.997-54.383-16.251-77.87-51.93c-17.748-26.961-37.263-44.981-59.663-55.091c-18.994-8.572-35.931-9.47-48.298-10.125    c-1.112-0.059-2.189-0.115-3.231-0.177l-1.859-0.106c-14.346-0.813-38.357-2.173-48.119-16.445    c-6.181-9.038-6.299-22.895-0.35-41.184c8.351-25.674,34.569-61.866,83.109-86.454c23.86-12.086,57.402-23.382,99.434-23.382    c24.84,0,52.653,3.949,83.167,14.014C306.143,87.886,325.22,97.122,345.1,110c36.692,23.77,58.149,60.384,60.418,103.1    C407.891,257.76,388.535,301.255,353.742,329.448z"/>
		<path style="fill:#333333;" d="M339.663,118.392c-19.142-12.4-37.487-21.286-57.734-27.964    c-26.987-8.9-53.871-13.414-79.905-13.414c-54.147,0-93.472,19.107-116.927,35.137c-27.549,18.828-48.572,44.135-56.236,67.696    c-3.396,10.44-6.31,24.544-0.905,32.446c5.798,8.477,20.357,10.971,40.434,12.106c0,0,3.967,0.224,5.054,0.281    c12.414,0.658,31.174,1.652,51.881,10.997c24.178,10.912,45.079,30.115,63.899,58.706c28.253,42.921,69.384,49.333,91.386,49.335    h0.01c23.331,0,46.995-7.218,63.301-19.307c1.169-0.866,2.354-1.786,3.524-2.733c32.314-26.184,50.291-66.576,48.087-108.049    C393.438,174.198,373.596,140.376,339.663,118.392z M338.003,310.025c-1.002,0.812-2.015,1.597-3.013,2.337    c-13.816,10.242-34.141,16.357-54.37,16.357h-0.008c-18.984-0.002-54.473-5.536-78.858-42.583    c-20.43-31.036-43.411-52.013-70.258-64.13c-23.272-10.503-43.725-11.587-57.255-12.304c-1.075-0.058-5.005-0.279-5.004-0.279    c-22.804-1.29-27.79-4.287-28.874-5.57c-0.563-1.239-1.196-7.193,2.764-19.365c6.674-20.519,25.528-42.931,50.435-59.952    c21.708-14.836,58.147-32.521,108.463-32.521c24.435,0,49.738,4.26,75.207,12.66c18.995,6.265,36.242,14.624,54.277,26.308    c29.794,19.302,47.213,48.936,49.046,83.443C382.504,251.118,366.597,286.855,338.003,310.025z"/>
		<path style="fill:#333333;" d="M293.56,181.41c-25.639,0-46.498,20.859-46.498,46.498s20.859,46.498,46.498,46.498    s46.498-20.859,46.498-46.498S319.199,181.41,293.56,181.41z M293.56,259.406c-17.368,0-31.498-14.13-31.498-31.498    s14.13-31.498,31.498-31.498s31.498,14.13,31.498,31.498S310.928,259.406,293.56,259.406z"/>
		<path style="fill:#333333;" d="M156.33,110.427c-3.581-2.077-8.172-0.858-10.25,2.725l-43.498,74.996    c-2.078,3.583-0.858,8.172,2.725,10.25c1.184,0.688,2.479,1.014,3.756,1.014c2.586,0,5.104-1.34,6.495-3.738l43.498-74.996    C161.133,117.094,159.913,112.505,156.33,110.427z"/>
		<path style="fill:#333333;" d="M219.69,111.927c-3.58-2.077-8.172-0.858-10.25,2.725l-57.393,98.953    c-2.078,3.583-0.858,8.172,2.725,10.25c1.184,0.688,2.479,1.014,3.756,1.014c2.586,0,5.104-1.34,6.495-3.738l57.393-98.953    C224.493,118.594,223.273,114.005,219.69,111.927z"/>
		<path style="fill:#333333;" d="M283.068,126.044c-3.575-2.091-8.168-0.886-10.26,2.689l-75.392,128.952    c-2.091,3.575-0.887,8.169,2.689,10.26c1.19,0.696,2.492,1.026,3.778,1.026c2.577,0,5.086-1.33,6.481-3.716l75.392-128.952    C287.848,132.728,286.644,128.135,283.068,126.044z"/>
		<path style="fill:#333333;" d="M272.335,278.386c-3.575-2.093-8.169-0.887-10.26,2.689l-7.412,12.678    c-2.091,3.575-0.887,8.169,2.689,10.26c1.19,0.696,2.493,1.026,3.779,1.026c2.577,0,5.086-1.33,6.481-3.716l7.412-12.678    C277.115,285.07,275.911,280.476,272.335,278.386z"/>
		<path style="fill:#333333;" d="M343.683,156.016c-3.574-2.093-8.168-0.887-10.26,2.689l-9.291,15.892    c-2.091,3.575-0.887,8.169,2.689,10.26c1.19,0.696,2.492,1.026,3.778,1.026c2.577,0,5.086-1.33,6.481-3.716l9.291-15.892    C348.464,162.7,347.26,158.106,343.683,156.016z"/>
	</g>
	<path style="fill:#FFFFFF;" d="M333.433,300.97c-2.007,0-4.01-0.801-5.487-2.386c-2.824-3.029-2.658-7.775,0.371-10.6   c20.054-18.697,30.723-45.061,29.271-72.332c-1.438-26.962-15.14-50.175-38.584-65.362c-16.367-10.601-31.932-18.155-48.983-23.774   c-3.934-1.297-6.072-5.537-4.775-9.471s5.537-6.07,9.471-4.775c18.304,6.032,34.968,14.113,52.443,25.431   c27.583,17.868,43.708,45.269,45.408,77.154c1.688,31.716-10.712,62.369-34.021,84.101   C337.101,300.303,335.265,300.97,333.433,300.97z"/>
</g>















</svg>
