<?xml version="1.0" encoding="iso-8859-1"?>
<!-- Generator: Adobe Illustrator 19.0.0, SVG Export Plug-In . SVG Version: 6.00 Build 0)  -->
<svg xmlns="http://www.w3.org/2000/svg" xmlns:xlink="http://www.w3.org/1999/xlink" version="1.1" id="Layer_1" x="0px" y="0px" viewBox="0 0 368.621 368.621" style="enable-background:new 0 0 368.621 368.621;" xml:space="preserve" width="512" height="512">
<g>
	<rect x="55.695" y="321.534" style="fill:#CCCCCC;" width="45.72" height="29.66"/>
	<rect x="292.965" y="321.534" style="fill:#CCCCCC;" width="45.72" height="29.66"/>
	<path style="fill:#2BA5F7;" d="M360.985,303.284c1.28,9.67-6.24,18.25-15.99,18.25h-6.31h-45.72h-191.55h-45.72h-6.31   c-9.75,0-17.27-8.58-15.98-18.25l17.85-134.48c4.48-33.75,32.43-59.25,66.09-60.96c1.2-0.07,2.41-0.1,3.62-0.1h152.46   c1.84,0,3.66,0.07,5.47,0.21c32.82,2.54,59.83,27.72,64.23,60.85L360.985,303.284z"/>
	<path style="fill:#2197D8;" d="M68.405,303.284l17.85-134.48c4.48-33.75,32.43-59.25,66.09-60.96c1.2-0.07,2.41-0.1,3.62-0.1h-35   c-1.21,0-2.42,0.029-3.62,0.1c-33.66,1.71-61.61,27.21-66.09,60.96l-17.85,134.48c-1.29,9.67,6.23,18.25,15.98,18.25h6.31h28.69   C74.635,321.534,67.115,312.954,68.405,303.284z"/>
	<path style="fill:#F7B239;" d="M303.935,71.574c0,2.29-0.92,4.37-2.43,5.88c-1.51,1.5-3.58,2.43-5.89,2.43h-6.1   c-5.86,0-10.62,4.75-10.62,10.62v17.45c-1.81-0.14-3.63-0.21-5.47-0.21h-152.46c-1.21,0-2.42,0.03-3.62,0.1v-17.34   c0-5.87-4.76-10.62-10.62-10.62h-6.11c-4.59,0-8.31-3.72-8.31-8.31c0-14.96,6.06-28.49,15.85-38.29s23.33-15.86,38.28-15.86h103.37   C279.705,17.424,303.935,41.664,303.935,71.574z"/>
	<path style="fill:#FFFFFF;" d="M335.259,291.852c-3.704,0-6.925-2.742-7.425-6.514l-14.943-112.52   c-1.738-13.085-9.891-24.456-21.808-30.416c-3.705-1.854-5.206-6.358-3.353-10.063c1.853-3.705,6.356-5.205,10.063-3.354   c16.371,8.188,27.573,23.836,29.967,41.857l14.943,112.52c0.545,4.106-2.341,7.877-6.447,8.422   C335.921,291.831,335.588,291.852,335.259,291.852z"/>
	<path style="fill:#FFFFFF;" d="M278.218,66.34c-2.862,0-5.596-1.647-6.845-4.427c-3.819-8.498-12.285-13.989-21.567-13.989h-18.99   c-4.142,0-7.5-3.357-7.5-7.5s3.358-7.5,7.5-7.5h18.99c15.177,0,29.013,8.965,35.249,22.839c1.698,3.778,0.012,8.218-3.766,9.916   C280.29,66.127,279.245,66.34,278.218,66.34z"/>
	<circle style="fill:#FFFFFF;" cx="274.315" cy="130.714" r="7.5"/>
	<g>
		<path style="fill:#333333;" d="M368.415,302.301l-17.854-134.481c-4.534-34.15-31.116-60.839-64.163-66.462V90.506    c0-1.72,1.399-3.119,3.119-3.119h6.103c4.205,0,8.171-1.638,11.185-4.631c2.987-2.985,4.632-6.958,4.632-11.186    c0-33.99-27.648-61.643-61.631-61.643H146.434c-16.466,0-31.944,6.41-43.585,18.051C91.211,39.628,84.803,55.109,84.803,71.57    c0,8.721,7.095,15.816,15.817,15.816h6.103c1.72,0,3.119,1.399,3.119,3.119v10.548c-30.955,4.492-56.547,27.441-64.285,57.874H7.5    c-4.142,0-7.5,3.357-7.5,7.5s3.358,7.5,7.5,7.5h35.511L25.968,302.301c-0.896,6.748,1.163,13.556,5.648,18.676    c4.224,4.821,10.212,7.705,16.58,8.025v22.191c0,4.143,3.358,7.5,7.5,7.5h45.724c4.142,0,7.5-3.357,7.5-7.5v-22.159h176.545    v22.159c0,4.143,3.358,7.5,7.5,7.5h45.724c4.142,0,7.5-3.357,7.5-7.5v-22.191c6.368-0.32,12.356-3.204,16.58-8.025    C367.252,315.855,369.312,309.049,368.415,302.301z M106.722,72.387h-6.103c-0.451,0-0.817-0.366-0.817-0.816    c0-12.457,4.851-24.174,13.655-32.987c8.806-8.806,20.517-13.655,32.976-13.655h103.372c25.712,0,46.631,20.924,46.631,46.643    c0,0.227-0.08,0.421-0.219,0.56c-0.259,0.257-0.514,0.257-0.598,0.257h-6.103c-9.991,0-18.119,8.128-18.119,18.119v9.739H124.841    v-9.739C124.841,80.515,116.713,72.387,106.722,72.387z M93.919,343.693H63.195v-14.659h30.724V343.693z M331.188,343.693h-30.724    v-14.659h30.724V343.693z M351.484,311.093c-1.662,1.896-3.965,2.941-6.487,2.941H49.386c-2.521,0-4.825-1.045-6.487-2.941    s-2.394-4.317-2.062-6.817l17.854-134.481c4.129-31.098,30.898-54.549,62.269-54.549h152.463c31.37,0,58.14,23.451,62.269,54.549    l17.854,134.481C353.877,306.774,353.146,309.196,351.484,311.093z"/>
		<circle style="fill:#333333;" cx="208.067" cy="49.426" r="7.5"/>
		<circle style="fill:#333333;" cx="141.001" cy="57.705" r="7.5"/>
		<circle style="fill:#333333;" cx="175.1" cy="77.727" r="7.5"/>
		<circle style="fill:#333333;" cx="244.925" cy="82.561" r="7.5"/>
	</g>
</g>















</svg>
