<?xml version="1.0" encoding="iso-8859-1"?>
<!-- Generator: Adobe Illustrator 19.0.0, SVG Export Plug-In . SVG Version: 6.00 Build 0)  -->
<svg xmlns="http://www.w3.org/2000/svg" xmlns:xlink="http://www.w3.org/1999/xlink" version="1.1" id="Layer_1" x="0px" y="0px" viewBox="0 0 456.102 456.102" style="enable-background:new 0 0 456.102 456.102;" xml:space="preserve" width="512" height="512">
<g>
	<path style="fill:#F7B239;" d="M135.084,349.799c16.89,4.6,32.86,13.54,46.13,26.81c-13.27,13.26-29.24,22.2-46.13,26.8V349.799z"/>
	<path style="fill:#F7B239;" d="M181.214,376.609c40.61-40.62,106.47-40.62,147.09,0c-20.31,20.31-46.93,30.46-73.55,30.46   S201.514,396.919,181.214,376.609z"/>
	<path style="fill:#CCCCCC;" d="M362.314,178.829c0,57.59-36.27,106.72-87.21,125.78h-94.12c-50.94-19.06-87.2-68.19-87.2-125.78   c0-74.15,60.11-134.26,134.26-134.26S362.314,104.679,362.314,178.829z"/>
	<path style="fill:#E6E6E6;" d="M385.434,127.689l13.95,24.01l-5.89,27.13l5.89,27.13l-13.95,24.01l-2.82,27.62l-20.71,18.49   l-11.21,25.39l-7.11,3.14h-68.48c50.94-19.06,87.21-68.19,87.21-125.78c0-74.15-60.12-134.26-134.27-134.26   s-134.26,60.11-134.26,134.26c0,57.59,36.26,106.72,87.2,125.78h-68.47l-7.11-3.14l-11.22-25.39l-20.71-18.49l-2.82-27.62   l-13.94-24l5.89-27.14l-5.89-27.13l13.94-24.01l2.82-27.62l20.71-18.49l11.22-25.39l25.4-11.22l18.49-20.71l27.61-2.82l24.01-13.94   l27.13,5.89l27.14-5.89l24,13.94l27.62,2.82l18.49,20.71l25.4,11.22l11.21,25.39l20.71,18.49L385.434,127.689z"/>
	<path style="fill:#2BA5F7;" d="M181.214,376.609c20.3,20.31,46.92,30.46,73.54,30.46s53.24-10.15,73.55-30.46   C287.684,335.989,221.824,335.989,181.214,376.609c-13.27-13.27-29.24-22.21-46.13-26.81v53.61   C151.974,398.809,167.944,389.869,181.214,376.609z M391.544,304.609v143.99H64.564v-143.99h47.95h68.47h94.12h68.48H391.544z"/>
	<rect x="64.564" y="304.609" style="fill:#2197D8;" width="52.139" height="145.329"/>
	<path style="fill:#FFFFFF;" d="M319.015,250.404c-1.495,0-3.005-0.446-4.319-1.374c-3.384-2.389-4.19-7.069-1.801-10.453   c12.377-17.531,18.919-38.192,18.919-59.749c0-23.646-7.783-45.934-22.506-64.453c-14.293-17.978-34.352-30.875-56.48-36.317   c-4.022-0.989-6.481-5.052-5.492-9.074c0.989-4.022,5.055-6.482,9.074-5.492c25.335,6.231,48.291,20.986,64.639,41.548   c16.856,21.201,25.765,46.716,25.765,73.788c0,24.671-7.492,48.324-21.665,68.4C323.688,249.298,321.369,250.404,319.015,250.404z"/>
	<path style="fill:#FFFFFF;" d="M365.691,431.94c-4.142,0-7.5-3.358-7.5-7.5v-74.297c0-4.142,3.358-7.5,7.5-7.5s7.5,3.358,7.5,7.5   v74.297C373.191,428.582,369.833,431.94,365.691,431.94z"/>
	<circle style="fill:#FFFFFF;" cx="365.691" cy="329.197" r="7.5"/>
	<g>
		<path style="fill:#333333;" d="M181.215,366.338c-12.724-11.167-27.857-19.331-44.162-23.77c-2.256-0.614-4.667-0.142-6.524,1.277    c-1.857,1.419-2.946,3.623-2.946,5.959v53.601c0,2.337,1.089,4.54,2.946,5.959c1.322,1.011,2.926,1.541,4.554,1.541    c0.658,0,1.32-0.086,1.969-0.263c16.304-4.438,31.438-12.602,44.163-23.77c20.971,18.426,47.249,27.644,73.541,27.644    c28.552,0,57.113-10.872,78.849-32.608c1.407-1.406,2.197-3.314,2.197-5.303s-0.79-3.897-2.197-5.303    C291.854,329.55,224.963,327.901,181.215,366.338z M142.582,393.05v-32.89c10.015,3.89,19.35,9.455,27.574,16.445    C161.932,383.596,152.597,389.161,142.582,393.05z M192.26,376.605c35.906-30.556,89.084-30.556,124.993,0    C281.345,407.16,228.165,407.16,192.26,376.605z"/>
		<path style="fill:#333333;" d="M402.322,441.102h-3.279V312.109h3.279c4.142,0,7.5-3.358,7.5-7.5s-3.358-7.5-7.5-7.5h-41.501    l7.292-16.516l19.5-17.409c1.396-1.247,2.276-2.971,2.466-4.833l2.656-26.012l13.138-22.612c0.94-1.618,1.242-3.53,0.844-5.359    l-5.544-25.539l5.544-25.539c0.397-1.829,0.096-3.741-0.844-5.359l-13.138-22.612l-2.656-26.012    c-0.19-1.862-1.07-3.586-2.466-4.833l-19.5-17.41L357.558,53.16c-0.755-1.709-2.121-3.076-3.83-3.831l-23.917-10.565l-17.409-19.5    c-1.247-1.396-2.971-2.276-4.833-2.466l-26.012-2.655L258.954,1.014c-1.618-0.939-3.53-1.239-5.357-0.844l-25.549,5.544    l-25.539-5.544c-1.829-0.396-3.739-0.096-5.357,0.843l-22.613,13.129l-26.003,2.655c-1.862,0.19-3.586,1.07-4.833,2.466    l-17.409,19.5l-23.917,10.565c-1.709,0.755-3.075,2.12-3.83,3.829L87.983,77.065l-19.5,17.41    c-1.396,1.247-2.276,2.971-2.466,4.833l-2.656,26.013l-13.128,22.613c-0.939,1.618-1.24,3.528-0.843,5.357l5.544,25.539    l-5.545,25.549c-0.396,1.829-0.096,3.74,0.844,5.358l13.128,22.603l2.656,26.012c0.19,1.862,1.07,3.586,2.466,4.833l19.5,17.41    l7.298,16.515H53.78c-4.142,0-7.5,3.358-7.5,7.5s3.358,7.5,7.5,7.5h3.279v128.993H53.78c-4.142,0-7.5,3.358-7.5,7.5    s3.358,7.5,7.5,7.5h10.779h326.984h10.779c4.142,0,7.5-3.358,7.5-7.5S406.464,441.102,402.322,441.102z M111.094,295.782    l-10.046-22.734c-0.432-0.978-1.068-1.852-1.865-2.563l-18.54-16.552l-2.524-24.725c-0.108-1.06-0.441-2.084-0.976-3.005    l-12.479-21.485l5.273-24.297c0.228-1.049,0.228-2.134,0-3.182l-5.273-24.288l12.479-21.495c0.535-0.92,0.867-1.944,0.976-3.004    l2.524-24.725l18.54-16.552c0.797-0.712,1.433-1.586,1.865-2.563l10.046-22.733l22.744-10.047    c0.978-0.432,1.853-1.068,2.564-1.865l16.552-18.54l24.715-2.524c1.059-0.108,2.083-0.44,3.003-0.975l21.496-12.48l24.288,5.272    c1.049,0.228,2.134,0.228,3.182,0l24.298-5.273l21.485,12.479c0.921,0.535,1.946,0.868,3.005,0.976l24.725,2.524l16.552,18.54    c0.712,0.797,1.586,1.433,2.564,1.865l22.743,10.046l10.037,22.732c0.432,0.979,1.068,1.853,1.866,2.565l18.54,16.552    l2.524,24.725c0.108,1.06,0.441,2.085,0.977,3.006l12.488,21.494l-5.272,24.287c-0.228,1.049-0.228,2.134,0,3.183l5.272,24.287    l-12.488,21.494c-0.535,0.921-0.868,1.946-0.977,3.006l-2.524,24.725l-18.54,16.552c-0.798,0.712-1.434,1.587-1.866,2.565    l-10.037,22.732l-3.003,1.326h-35.744c14.619-9.668,27.379-22.024,37.679-36.615c16.928-23.979,25.875-52.218,25.875-81.665    c0-78.167-63.598-141.76-141.77-141.76c-78.167,0-141.76,63.593-141.76,141.76c0,29.448,8.946,57.687,25.87,81.664    c10.299,14.59,23.057,26.947,37.675,36.615h-35.735L111.094,295.782z M182.411,297.109c-23.408-9.029-43.447-24.649-57.999-45.265    c-15.128-21.433-23.125-46.681-23.125-73.014c0-69.896,56.864-126.76,126.76-126.76c69.901,0,126.77,56.864,126.77,126.76    c0,26.332-7.998,51.58-23.129,73.014c-14.554,20.616-34.595,36.235-58.004,45.266H182.411z M72.059,441.102V312.109h311.984    v128.993H72.059z"/>
	</g>
</g>















</svg>
