<?xml version="1.0" encoding="iso-8859-1"?>
<!-- Generator: Adobe Illustrator 19.0.0, SVG Export Plug-In . SVG Version: 6.00 Build 0)  -->
<svg xmlns="http://www.w3.org/2000/svg" xmlns:xlink="http://www.w3.org/1999/xlink" version="1.1" id="Layer_1" x="0px" y="0px" viewBox="0 0 448.495 448.495" style="enable-background:new 0 0 448.495 448.495;" xml:space="preserve" width="512" height="512">
<g>
	<rect x="193.248" y="92.991" style="fill:#A3E3E5;" width="38.03" height="143"/>
	<path style="fill:#99E2FF;" d="M258.508,51.001c11.6,0,21,9.4,21,21c0,5.79-2.35,11.04-6.15,14.84c-3.8,3.8-9.05,6.15-14.85,6.15   h-27.23h-38.03h-28h-4.74c-3.42,0-6.8-0.6-9.97-1.74s-6.15-2.83-8.79-5.01l-17.65-14.62c-8.4-6.96-3.48-20.62,7.43-20.62h47.56   h66.34H258.508z"/>
	<polygon style="fill:#F7B239;" points="251.418,7.501 245.428,51.001 179.088,51.001 173.098,7.501  "/>
	<polygon style="fill:#E09B2D;" points="173.098,7.501 179.088,51.001 211.088,51.001 205.098,7.501  "/>
	<path style="fill:#99E2FF;" d="M330.208,177.351c7.84,10.58,10.14,23.87,6.3,36.46l-35.13,115.47   c8.13,14.49,12.83,31.12,12.98,48.78c0.14,17.87-4.31,34.68-12.24,49.34c-4.57,8.44-13.51,13.59-23.11,13.59h-133.5   c-9.59,0-18.52-5.13-23.08-13.55c-7.82-14.44-12.27-30.97-12.27-48.54c0-39.43,22.36-73.64,55.09-90.65V92.991h28v143v69.27   l-15.09,7.84c-24.67,12.82-40,38.03-40,65.8c0,12.05,2.79,23.52,8.3,34.09h131.6c5.53-10.63,8.39-22.61,8.3-34.71   c-0.22-27.36-15.57-52.31-40.06-65.13l-15.02-7.86v-69.3v-143h27.23h0.77v67.72h37.88   C310.328,160.711,322.368,166.781,330.208,177.351z M308.098,205.171c1.07-3.5,0.43-7.2-1.75-10.14s-5.53-4.62-9.19-4.62h-37.88   v97.93c7.01,3.67,13.54,8.13,19.49,13.26L308.098,205.171z"/>
	<path style="fill:#F4DE3B;" d="M286.358,378.281c0.09,12.1-2.77,24.08-8.3,34.71h-131.6c-5.51-10.57-8.3-22.04-8.3-34.09   c0-27.77,15.33-52.98,40-65.8l15.09-7.84v-69.27h38.03v69.3l15.02,7.86C270.788,325.971,286.138,350.921,286.358,378.281z"/>
	<path style="fill:#E0C734;" d="M193.248,235.991h7.81v69.271l-8.89,7.84c-14.54,12.819-23.58,38.03-23.58,65.8   c0,12.05,1.65,23.52,4.89,34.09h-27.02c-5.51-10.57-8.3-22.04-8.3-34.09c0-27.77,15.33-52.98,40-65.8l15.09-7.84V235.991z"/>
	<g>
		<path style="fill:#333333;" d="M336.235,172.889c-9.267-12.507-23.509-19.68-39.075-19.68h-30.385v-53.94    c11.696-3.552,20.233-14.432,20.233-27.271c0-15.715-12.784-28.499-28.499-28.499h-4.475l4.816-34.975    c0.296-2.147-0.352-4.317-1.776-5.952C255.651,0.938,253.59,0,251.422,0h-78.325c-2.167,0-4.229,0.938-5.653,2.571    c-1.424,1.635-2.072,3.805-1.776,5.952l4.817,34.975h-38.951c-8.175,0-15.247,4.97-18.018,12.66s-0.492,16.027,5.804,21.24    l17.65,14.615c5.892,4.88,13.182,7.796,20.775,8.37v183.423c-34.093,19.546-55.082,55.568-55.082,95.091    c0,18.189,4.553,36.209,13.167,52.112c5.842,10.785,17.213,17.485,29.675,17.485h133.509c12.47,0,23.851-6.716,29.701-17.527    c8.744-16.162,13.288-34.478,13.141-52.968c-0.138-17.2-4.411-34.256-12.385-49.531l34.217-112.47    C348.218,201.107,345.502,185.395,336.235,172.889z M181.7,15h61.118l-3.925,28.498h-53.268L181.7,15z M146.535,80.461    l-17.65-14.616c-2.027-1.678-1.555-3.778-1.258-4.603c0.297-0.825,1.272-2.744,3.905-2.744h126.977    c7.443,0,13.499,6.056,13.499,13.499c0,7.442-6.056,13.498-13.499,13.498h-98C155.419,85.495,150.456,83.707,146.535,80.461    L146.535,80.461z M196.703,311.912c2.483-1.291,4.041-3.856,4.041-6.655v-61.762h23.031v61.801c0,2.791,1.55,5.352,4.023,6.646    l15.02,7.858c22.031,11.526,35.84,33.96,36.036,58.544c0.075,9.354-1.825,18.651-5.521,27.151H151.175    c-3.661-8.355-5.514-17.281-5.514-26.598c0-24.955,13.776-47.617,35.954-59.145L196.703,311.912z M223.775,228.495h-23.031v-128    h23.031V228.495z M329.336,211.633L294.208,327.1c-0.596,1.955-0.366,4.068,0.633,5.851c7.733,13.791,11.888,29.411,12.014,45.17    c0.128,15.964-3.792,31.77-11.334,45.709c-3.226,5.962-9.552,9.666-16.508,9.666H145.504c-6.952,0-13.269-3.689-16.486-9.63    c-7.429-13.716-11.356-29.266-11.356-44.968c0-35.443,19.558-67.626,51.041-83.988c2.483-1.291,4.041-3.856,4.041-6.655V100.495    h13v200.207l-11.046,5.742c-27.162,14.117-44.036,41.88-44.036,72.453c0,13.269,3.076,25.906,9.141,37.561    c1.291,2.48,3.856,4.037,6.653,4.037h131.606c2.799,0,5.365-1.559,6.655-4.043c6.084-11.711,9.243-24.931,9.137-38.228    c-0.241-30.136-17.133-57.616-44.083-71.716l-10.996-5.753V100.495h13v60.214c0,4.143,3.357,7.5,7.5,7.5h37.885    c10.765,0,20.614,4.96,27.022,13.609C330.591,190.468,332.47,201.334,329.336,211.633z"/>
		<path style="fill:#333333;" d="M297.16,182.906h-37.885c-4.143,0-7.5,3.357-7.5,7.5v97.938c0,2.791,1.55,5.352,4.023,6.646    c6.439,3.369,12.518,7.504,18.067,12.291c1.379,1.189,3.123,1.82,4.899,1.82c0.696,0,1.398-0.097,2.085-0.296    c2.437-0.705,4.351-2.595,5.089-5.021l29.338-96.431c0.001,0,0.001-0.001,0.001-0.001c1.762-5.798,0.704-11.915-2.903-16.786    C308.765,185.698,303.22,182.906,297.16,182.906z M300.927,202.988l-26.168,86.011c-2.591-1.811-5.256-3.509-7.984-5.086v-86.007    h30.385c1.279,0,2.402,0.565,3.163,1.591C301.084,200.525,301.299,201.766,300.927,202.988L300.927,202.988z"/>
	</g>
	<g>
		<path style="fill:#FFFFFF;" d="M284.915,400.992c-0.488,0-0.982-0.047-1.479-0.146c-4.062-0.813-6.695-4.765-5.883-8.826    c0.9-4.498,1.34-9.102,1.306-13.683c-0.198-24.574-14.008-47.008-36.039-58.541c-3.67-1.921-5.087-6.453-3.166-10.123    c1.922-3.67,6.455-5.085,10.123-3.166c26.947,14.106,43.839,41.586,44.082,71.714c0.041,5.609-0.496,11.24-1.597,16.742    C291.548,398.527,288.416,400.992,284.915,400.992z"/>
		<path style="fill:#FFFFFF;" d="M231.248,282.651c-4.143,0-7.5-3.357-7.5-7.5v-129c0-4.143,3.357-7.5,7.5-7.5s7.5,3.357,7.5,7.5    v129C238.748,279.294,235.39,282.651,231.248,282.651z"/>
		<path style="fill:#FFFFFF;" d="M228.756,41.752c-0.487,0-0.982-0.047-1.479-0.146c-4.062-0.813-6.696-4.764-5.884-8.825l2-10    c0.813-4.062,4.765-6.702,8.825-5.884c4.062,0.813,6.696,4.764,5.884,8.825l-2,10C235.389,39.287,232.258,41.752,228.756,41.752z"/>
		<circle style="fill:#FFFFFF;" cx="257.248" cy="71.151" r="7.5"/>
		<circle style="fill:#FFFFFF;" cx="231.248" cy="119.604" r="7.5"/>
	</g>
</g>















</svg>
