<?xml version="1.0" encoding="iso-8859-1"?>
<!-- Generator: Adobe Illustrator 19.0.0, SVG Export Plug-In . SVG Version: 6.00 Build 0)  -->
<svg xmlns="http://www.w3.org/2000/svg" xmlns:xlink="http://www.w3.org/1999/xlink" version="1.1" id="Layer_1" x="0px" y="0px" viewBox="0 0 429.967 429.967" style="enable-background:new 0 0 429.967 429.967;" xml:space="preserve" width="512" height="512">
<g>
	<path style="fill:#F95428;" d="M48.077,111.242h333.81c0,92.18-74.73,166.9-166.9,166.9   C122.807,278.142,48.077,203.422,48.077,111.242z"/>
	<path style="fill:#9AD14B;" d="M422.467,111.242c0,114.59-92.89,207.48-207.48,207.48c-22.75,0-44.65-3.66-65.13-10.43   c-82.69-27.31-142.36-105.21-142.36-197.05h40.58c0,46.23,18.8,88.07,49.17,118.3c30.18,30.03,71.79,48.6,117.74,48.6   c92.17,0,166.9-74.72,166.9-166.9H422.467z"/>
	<path style="fill:#90BC42;" d="M149.857,308.292c-82.69-27.31-142.36-105.21-142.36-197.05h40.58c0,46.23,18.8,88.07,49.17,118.3   C109.737,254.833,126.747,281.643,149.857,308.292z"/>
	<path style="fill:#FFFFFF;" d="M273.296,250.299c-2.873,0-5.614-1.659-6.857-4.453c-1.684-3.785,0.019-8.217,3.804-9.901   c35.965-16.002,63.299-46.675,74.993-84.156c1.233-3.954,5.438-6.159,9.394-4.926c3.954,1.234,6.159,5.439,4.926,9.394   c-12.978,41.597-43.309,75.638-83.214,93.393C275.35,250.09,274.314,250.299,273.296,250.299z"/>
	<g>
		<path style="fill:#333333;" d="M422.467,103.742H7.5c-4.142,0-7.5,3.358-7.5,7.5c0,57.424,22.362,111.411,62.967,152.017    c40.605,40.605,94.592,62.967,152.016,62.967S326.395,303.863,367,263.258c40.605-40.605,62.967-94.592,62.967-152.017    C429.967,107.1,426.609,103.742,422.467,103.742z M374.205,118.742c-3.93,84.426-73.841,151.903-159.221,151.903    c-85.38,0-155.29-67.477-159.221-151.903H374.205z M214.983,311.226c-107.761,0-195.888-85.673-199.845-192.484h25.614    c3.943,92.699,80.578,166.903,174.231,166.903s170.288-74.203,174.231-166.903h25.614    C410.872,225.553,322.745,311.226,214.983,311.226z"/>
		<circle style="fill:#333333;" cx="214.843" cy="155.339" r="7.5"/>
		<circle style="fill:#333333;" cx="164.106" cy="197.242" r="7.5"/>
		<circle style="fill:#333333;" cx="265.856" cy="197.242" r="7.5"/>
		<circle style="fill:#333333;" cx="214.843" cy="240.795" r="7.5"/>
		<circle style="fill:#333333;" cx="312.333" cy="155.339" r="7.5"/>
		<circle style="fill:#333333;" cx="117.32" cy="155.339" r="7.5"/>
	</g>
	<circle style="fill:#FFFFFF;" cx="357.643" cy="130.883" r="7.5"/>
</g>















</svg>
